WenQuanYiZenHei-Medium.ufo
<glyph name="quotedbl" format="2">
  <advance width="471" height="471"/>
  <unicode hex="0022"/>
  <outline>
    <contour>
      <point x="365" y="589" type="line"/>
      <point x="337" y="451" type="line"/>
      <point x="296" y="451" type="line"/>
      <point x="268" y="589" type="line"/>
      <point x="268" y="702" type="line"/>
      <point x="365" y="702" type="line"/>
    </contour>
    <contour>
      <point x="202" y="589" type="line"/>
      <point x="174" y="451" type="line"/>
      <point x="133" y="451" type="line"/>
      <point x="105" y="589" type="line"/>
      <point x="105" y="702" type="line"/>
      <point x="202" y="702" type="line"/>
    </contour>
  </outline>
</glyph>
<glyph name="numbersign" format="2">
  <advance width="614"/>
  <unicode hex="0023"/>
  <outline>
    <contour>
      <point x="578" y="439" type="line"/>
      <point x="462" y="439" type="line"/>
      <point x="434" y="276" type="line"/>
      <point x="544" y="276" type="line"/>
      <point x="544" y="212" type="line"/>
      <point x="418" y="212" type="line"/>
      <point x="379" y="0" type="line"/>
      <point x="311" y="0" type="line"/>
      <point x="349" y="212" type="line"/>
      <point x="213" y="212" type="line"/>
      <point x="172" y="0" type="line"/>
      <point x="105" y="0" type="line"/>
      <point x="143" y="212" type="line"/>
      <point x="37" y="212" type="line"/>
      <point x="37" y="276" type="line"/>
      <point x="159" y="276" type="line"/>
      <point x="186" y="439" type="line"/>
      <point x="75" y="439" type="line"/>
      <point x="75" y="504" type="line"/>
      <point x="201" y="504" type="line"/>
      <point x="238" y="702" type="line"/>
      <point x="306" y="702" type="line"/>
      <point x="269" y="504" type="line"/>
      <point x="407" y="504" type="line"/>
      <point x="442" y="702" type="line"/>
      <point x="513" y="702" type="line"/>
      <point x="477" y="504" type="line"/>
      <point x="578" y="504" type="line"/>
    </contour>
    <contour>
      <point x="392" y="439" type="line"/>
      <point x="256" y="439" type="line"/>
      <point x="228" y="276" type="line"/>
      <point x="365" y="276" type="line"/>
    </contour>
  </outline>
</glyph>
<glyph name="dollar" format="2">
  <advance width="614"/>
  <unicode hex="0024"/>
  <outline>
    <contour>
      <point x="555" y="210" type="curve" smooth="yes"/>
      <point x="555" y="159.333"/>
      <point x="536.333" y="116"/>
      <point x="499" y="80" type="curve" smooth="yes"/>
      <point x="493" y="75.3333"/>
      <point x="487.333" y="71"/>
      <point x="482" y="67" type="curve" smooth="yes"/>
      <point x="450.667" y="43.6667"/>
      <point x="404.333" y="28.6667"/>
      <point x="343" y="22" type="curve"/>
      <point x="343" y="-77" type="line"/>
      <point x="281" y="-77" type="line"/>
      <point x="281" y="22" type="line"/>
      <point x="178.333" y="32"/>
      <point x="108.667" y="76"/>
      <point x="72" y="154" type="curve" smooth="yes"/>
      <point x="68" y="163.333"/>
      <point x="64" y="173"/>
      <point x="60" y="183" type="curve"/>
      <point x="130" y="210" type="line"/>
      <point x="149.333" y="156"/>
      <point x="183.667" y="120"/>
      <point x="233" y="102" type="curve" smooth="yes"/>
      <point x="248.333" y="96.6667"/>
      <point x="264.333" y="93.6667"/>
      <point x="281" y="93" type="curve"/>
      <point x="281" y="332" type="line"/>
      <point x="196.333" y="351.333"/>
      <point x="140.667" y="381"/>
      <point x="114" y="421" type="curve" smooth="yes"/>
      <point x="97.3333" y="445"/>
      <point x="89" y="473.667"/>
      <point x="89" y="507" type="curve" smooth="yes"/>
      <point x="89" y="590.333"/>
      <point x="131" y="646.333"/>
      <point x="215" y="675" type="curve" smooth="yes"/>
      <point x="235" y="682.333"/>
      <point x="257" y="687.333"/>
      <point x="281" y="690" type="curve"/>
      <point x="281" y="775" type="line"/>
      <point x="343" y="775" type="line"/>
      <point x="343" y="690" type="line"/>
      <point x="445" y="682"/>
      <point x="511.333" y="637"/>
      <point x="542" y="555" type="curve"/>
      <point x="472" y="531" type="line"/>
      <point x="457.333" y="579"/>
      <point x="423.667" y="608.667"/>
      <point x="371" y="620" type="curve" smooth="yes"/>
      <point x="361.667" y="621.333"/>
      <point x="352.333" y="622.333"/>
      <point x="343" y="623" type="curve"/>
      <point x="343" y="402" type="line"/>
      <point x="436.333" y="382.667"/>
      <point x="498" y="351"/>
      <point x="528" y="307" type="curve" smooth="yes"/>
      <point x="546" y="280.333"/>
      <point x="555" y="248"/>
    </contour>
    <contour>
      <point x="281" y="412" type="curve"/>
      <point x="281" y="623" type="line"/>
      <point x="234.333" y="619.667"/>
      <point x="200.333" y="602.333"/>
      <point x="179" y="571" type="curve" smooth="yes"/>
      <point x="169" y="556.333"/>
      <point x="164" y="539"/>
      <point x="164" y="519" type="curve" smooth="yes"/>
      <point x="164" y="462.333"/>
      <point x="203" y="426.667"/>
    </contour>
    <contour>
      <point x="476" y="204" type="curve" smooth="yes"/>
      <point x="476" y="260"/>
      <point x="441.333" y="296"/>
      <point x="372" y="312" type="curve" smooth="yes"/>
      <point x="362" y="314"/>
      <point x="352.333" y="315.667"/>
      <point x="343" y="317" type="curve"/>
      <point x="343" y="93" type="line"/>
      <point x="389.667" y="93"/>
      <point x="426" y="108"/>
      <point x="452" y="138" type="curve" smooth="yes"/>
      <point x="468" y="156.667"/>
      <point x="476" y="178.667"/>
    </contour>
  </outline>
</glyph>
<glyph name="percent" format="2">
  <advance width="716" height="716"/>
  <unicode hex="0025"/>
  <outline>
    <contour>
      <point x="690" y="172" type="curve" smooth="yes"/>
      <point x="690" y="107.333"/>
      <point x="671.333" y="58"/>
      <point x="634" y="24" type="curve"/>
      <point x="611" y="6" type="line" smooth="yes"/>
      <point x="599.667" y="0"/>
      <point x="587.667" y="-4.33333"/>
      <point x="575" y="-7" type="curve" smooth="yes"/>
      <point x="545" y="-10" type="line"/>
      <point x="485.667" y="-10"/>
      <point x="443.333" y="19.3333"/>
      <point x="418" y="78" type="curve" smooth="yes"/>
      <point x="405.333" y="106.667"/>
      <point x="399" y="138"/>
      <point x="399" y="172" type="curve" smooth="yes"/>
      <point x="399" y="240.667"/>
      <point x="418.667" y="292"/>
      <point x="458" y="326" type="curve" smooth="yes"/>
      <point x="481.333" y="345.333"/>
      <point x="509.667" y="355"/>
      <point x="543" y="355" type="curve" smooth="yes"/>
      <point x="604.333" y="355"/>
      <point x="647.667" y="324.667"/>
      <point x="673" y="264" type="curve" smooth="yes"/>
      <point x="684.333" y="236.667"/>
      <point x="690" y="206"/>
    </contour>
    <contour>
      <point x="543" y="303" type="curve" smooth="yes"/>
      <point x="489" y="303"/>
      <point x="462" y="259.333"/>
      <point x="462" y="172" type="curve" smooth="yes"/>
      <point x="462" y="98.6667"/>
      <point x="482" y="56.3333"/>
      <point x="522" y="45" type="curve" smooth="yes"/>
      <point x="528.667" y="43"/>
      <point x="536.333" y="42"/>
      <point x="545" y="42" type="curve" smooth="yes"/>
      <point x="589.667" y="42"/>
      <point x="616.667" y="72.3333"/>
      <point x="626" y="133" type="curve" smooth="yes"/>
      <point x="627.333" y="144.333"/>
      <point x="628" y="155.667"/>
      <point x="628" y="167" type="curve" smooth="yes"/>
      <point x="628" y="257.667"/>
      <point x="599.667" y="303"/>
    </contour>
    <contour>
      <point x="608" y="702" type="line"/>
      <point x="183" y="0" type="line"/>
      <point x="109" y="0" type="line"/>
      <point x="534" y="702" type="line"/>
    </contour>
    <contour>
      <point x="317" y="529" type="curve" smooth="yes"/>
      <point x="317" y="464.333"/>
      <point x="298.333" y="415"/>
      <point x="261" y="381" type="curve" smooth="yes"/>
      <point x="237" y="358.333"/>
      <point x="207.333" y="347"/>
      <point x="172" y="347" type="curve" smooth="yes"/>
      <point x="112.667" y="347"/>
      <point x="70.3333" y="376.333"/>
      <point x="45" y="435" type="curve" smooth="yes"/>
      <point x="33" y="463.667"/>
      <point x="27" y="495"/>
      <point x="27" y="529" type="curve" smooth="yes"/>
      <point x="27" y="598.333"/>
      <point x="46.3333" y="649.667"/>
      <point x="85" y="683" type="curve" smooth="yes"/>
      <point x="108.333" y="703"/>
      <point x="136.667" y="713"/>
      <point x="170" y="713" type="curve" smooth="yes"/>
      <point x="231.333" y="713"/>
      <point x="274.667" y="682.667"/>
      <point x="300" y="622" type="curve" smooth="yes"/>
      <point x="311.333" y="594.667"/>
      <point x="317" y="563.667"/>
    </contour>
    <contour>
      <point x="170" y="660" type="curve" smooth="yes"/>
      <point x="116" y="660"/>
      <point x="89" y="616.333"/>
      <point x="89" y="529" type="curve" smooth="yes"/>
      <point x="89" y="456.333"/>
      <point x="109.333" y="414"/>
      <point x="150" y="402" type="curve" smooth="yes"/>
      <point x="156.667" y="400"/>
      <point x="164" y="399"/>
      <point x="172" y="399" type="curve" smooth="yes"/>
      <point x="217.333" y="399"/>
      <point x="244.333" y="429.333"/>
      <point x="253" y="490" type="curve" smooth="yes"/>
      <point x="254.333" y="501.333"/>
      <point x="255" y="512.667"/>
      <point x="255" y="524" type="curve" smooth="yes"/>
      <point x="255" y="614.667"/>
      <point x="226.667" y="660"/>
    </contour>
  </outline>
</glyph>
<glyph name="ampersand" format="2">
  <advance width="696"/>
  <unicode hex="0026"/>
  <outline>
    <contour>
      <point x="660" y="4" type="line"/>
      <point x="583" y="-3" type="line"/>
      <point x="551" y="-3"/>
      <point x="522" y="9"/>
      <point x="496" y="33" type="curve"/>
      <point x="496" y="33" type="line"/>
      <point x="496" y="33" type="line"/>
      <point x="495.333" y="33"/>
      <point x="485.667" y="41.6667"/>
      <point x="467" y="59" type="curve"/>
      <point x="413.667" y="15.6667"/>
      <point x="355.333" y="-7.33333"/>
      <point x="292" y="-10" type="curve" smooth="yes"/>
      <point x="286" y="-10"/>
      <point x="286" y="-10"/>
      <point x="279" y="-10" type="curve" smooth="yes"/>
      <point x="207" y="-10"/>
      <point x="147.667" y="12"/>
      <point x="101" y="56" type="curve" smooth="yes"/>
      <point x="61.6667" y="94.6667"/>
      <point x="42" y="141.667"/>
      <point x="42" y="197" type="curve" smooth="yes"/>
      <point x="42" y="263.667"/>
      <point x="72.3333" y="319.333"/>
      <point x="133" y="364" type="curve" smooth="yes"/>
      <point x="160.333" y="384"/>
      <point x="190.667" y="399"/>
      <point x="224" y="409" type="curve"/>
      <point x="179.333" y="472.333"/>
      <point x="157" y="524"/>
      <point x="157" y="564" type="curve" smooth="yes"/>
      <point x="157" y="621.333"/>
      <point x="180.333" y="663.667"/>
      <point x="227" y="691" type="curve" smooth="yes"/>
      <point x="252.333" y="705.667"/>
      <point x="281" y="713"/>
      <point x="313" y="713" type="curve" smooth="yes"/>
      <point x="375.667" y="713"/>
      <point x="422" y="691.667"/>
      <point x="452" y="649" type="curve" smooth="yes"/>
      <point x="468.667" y="625"/>
      <point x="477" y="596.667"/>
      <point x="477" y="564" type="curve" smooth="yes"/>
      <point x="477" y="498.667"/>
      <point x="439.667" y="444.667"/>
      <point x="365" y="402" type="curve"/>
      <point x="330" y="384" type="line"/>
      <point x="477" y="162" type="line"/>
      <point x="525.667" y="221.333"/>
      <point x="557.333" y="295.333"/>
      <point x="572" y="384" type="curve"/>
      <point x="648" y="369" type="line"/>
      <point x="626" y="267"/>
      <point x="582.667" y="180.333"/>
      <point x="518" y="109" type="curve"/>
      <point x="540.667" y="84.3333"/>
      <point x="563.667" y="72"/>
      <point x="587" y="72" type="curve" smooth="yes"/>
      <point x="595" y="72"/>
      <point x="619.333" y="73.6667"/>
      <point x="660" y="77" type="curve"/>
    </contour>
    <contour>
      <point x="411" y="560" type="curve" smooth="yes"/>
      <point x="411" y="596"/>
      <point x="394.333" y="622"/>
      <point x="361" y="638" type="curve" smooth="yes"/>
      <point x="347" y="644.667"/>
      <point x="331.667" y="648"/>
      <point x="315" y="648" type="curve" smooth="yes"/>
      <point x="281.667" y="648"/>
      <point x="257.333" y="634.333"/>
      <point x="242" y="607" type="curve"/>
      <point x="233" y="585" type="line" smooth="yes"/>
      <point x="231.667" y="579.667"/>
      <point x="231" y="573.667"/>
      <point x="231" y="567" type="curve" smooth="yes"/>
      <point x="231" y="538.333"/>
      <point x="252" y="494"/>
      <point x="294" y="434" type="curve"/>
      <point x="335.333" y="458.667"/>
      <point x="359" y="473"/>
      <point x="365" y="477" type="curve" smooth="yes"/>
      <point x="395.667" y="501"/>
      <point x="411" y="528.667"/>
    </contour>
    <contour>
      <point x="427" y="112" type="curve"/>
      <point x="258" y="356" type="line"/>
      <point x="198.667" y="330.667"/>
      <point x="160.667" y="301.333"/>
      <point x="144" y="268" type="curve" smooth="yes"/>
      <point x="134.667" y="249.333"/>
      <point x="130" y="227.667"/>
      <point x="130" y="203" type="curve" smooth="yes"/>
      <point x="130" y="135.667"/>
      <point x="158.667" y="91"/>
      <point x="216" y="69" type="curve" smooth="yes"/>
      <point x="238" y="60.3333"/>
      <point x="262.667" y="56"/>
      <point x="290" y="56" type="curve" smooth="yes"/>
      <point x="344" y="56"/>
      <point x="389.667" y="74.6667"/>
    </contour>
  </outline>
</glyph>
<glyph name="quotesingle" format="2">
  <advance width="307"/>
  <unicode hex="0027"/>
  <outline>
    <contour>
      <point x="202" y="589" type="line"/>
      <point x="174" y="451" type="line"/>
      <point x="133" y="451" type="line"/>
      <point x="105" y="589" type="line"/>
      <point x="105" y="702" type="line"/>
      <point x="202" y="702" type="line"/>
    </contour>
  </outline>
</glyph>
<glyph name="parenleft" format="2">
  <advance width="307" height="307"/>
  <unicode hex="0028"/>
  <outline>
    <contour>
      <point x="257" y="-175" type="curve"/>
      <point x="204" y="-175" type="line"/>
      <point x="118.667" y="-69"/>
      <point x="68.6667" y="55"/>
      <point x="54" y="197" type="curve" smooth="yes"/>
      <point x="52" y="219"/>
      <point x="51" y="241.667"/>
      <point x="51" y="265" type="curve" smooth="yes"/>
      <point x="51" y="411.667"/>
      <point x="95.6667" y="549.667"/>
      <point x="185" y="679" type="curve" smooth="yes"/>
      <point x="191" y="686.333"/>
      <point x="197" y="694"/>
      <point x="203" y="702" type="curve"/>
      <point x="256" y="702" type="line"/>
      <point x="171.333" y="572"/>
      <point x="128.333" y="427.667"/>
      <point x="127" y="269" type="curve" smooth="yes"/>
      <point x="127" y="109.667"/>
      <point x="170.333" y="-38.3333"/>
    </contour>
  </outline>
</glyph>
<glyph name="parenright" format="2">
  <advance width="307" height="307"/>
  <unicode hex="0029"/>
  <outline>
    <contour>
      <point x="256" y="265" type="curve" smooth="yes"/>
      <point x="256" y="121"/>
      <point x="217" y="-9.33333"/>
      <point x="139" y="-126" type="curve" smooth="yes"/>
      <point x="128.333" y="-143.333"/>
      <point x="116.333" y="-159.667"/>
      <point x="103" y="-175" type="curve"/>
      <point x="50" y="-175" type="line"/>
      <point x="136.667" y="-38.3333"/>
      <point x="180" y="109.667"/>
      <point x="180" y="269" type="curve" smooth="yes"/>
      <point x="180" y="427.667"/>
      <point x="138" y="570.667"/>
      <point x="54" y="698" type="curve" smooth="yes"/>
      <point x="52.6667" y="699.333"/>
      <point x="51.6667" y="700.667"/>
      <point x="51" y="702" type="curve"/>
      <point x="104" y="702" type="line"/>
      <point x="197.333" y="578.667"/>
      <point x="247.667" y="444"/>
      <point x="255" y="298" type="curve" smooth="yes"/>
      <point x="255.667" y="287.333"/>
      <point x="256" y="276.333"/>
    </contour>
  </outline>
</glyph>
<glyph name="asterisk" format="2">
  <advance width="614"/>
  <unicode hex="002A"/>
  <outline>
    <contour>
      <point x="510" y="404" type="line"/>
      <point x="481" y="352" type="line"/>
      <point x="332" y="446" type="line"/>
      <point x="340" y="271" type="line"/>
      <point x="280" y="271" type="line"/>
      <point x="287" y="446" type="line"/>
      <point x="136" y="352" type="line"/>
      <point x="104" y="404" type="line"/>
      <point x="261" y="486" type="line"/>
      <point x="104" y="568" type="line"/>
      <point x="136" y="621" type="line"/>
      <point x="287" y="526" type="line"/>
      <point x="280" y="702" type="line"/>
      <point x="340" y="702" type="line"/>
      <point x="332" y="526" type="line"/>
      <point x="481" y="621" type="line"/>
      <point x="510" y="568" type="line"/>
      <point x="351" y="486" type="line"/>
    </contour>
  </outline>
</glyph>
<glyph name="plus" format="2">
  <advance width="614" height="614"/>
  <unicode hex="002B"/>
  <outline>
    <contour>
      <point x="571" y="262" type="line"/>
      <point x="340" y="262" type="line"/>
      <point x="340" y="31" type="line"/>
      <point x="273" y="31" type="line"/>
      <point x="273" y="262" type="line"/>
      <point x="42" y="262" type="line"/>
      <point x="42" y="329" type="line"/>
      <point x="273" y="329" type="line"/>
      <point x="273" y="560" type="line"/>
      <point x="340" y="560" type="line"/>
      <point x="340" y="329" type="line"/>
      <point x="571" y="329" type="line"/>
    </contour>
  </outline>
</glyph>
<glyph name="comma" format="2">
  <advance width="307"/>
  <unicode hex="002C"/>
  <outline>
    <contour>
      <point x="218" y="12" type="line"/>
      <point x="141" y="-132" type="line"/>
      <point x="97" y="-132" type="line"/>
      <point x="159" y="0" type="line"/>
      <point x="105" y="0" type="line"/>
      <point x="105" y="118" type="line"/>
      <point x="218" y="118" type="line"/>
    </contour>
  </outline>
</glyph>
<glyph name="hyphen" format="2">
  <advance width="307"/>
  <unicode hex="002D"/>
  <outline>
    <contour>
      <point x="218" y="231" type="line"/>
      <point x="0" y="231" type="line"/>
      <point x="0" y="295" type="line"/>
      <point x="218" y="295" type="line"/>
    </contour>
  </outline>
</glyph>
<glyph name="zero" format="2">
  <advance width="614" height="614"/>
  <unicode hex="0030"/>
  <outline>
    <contour>
      <point x="573" y="348" type="curve" smooth="yes"/>
      <point x="573" y="253.333"/>
      <point x="551" y="171.333"/>
      <point x="507" y="102" type="curve" smooth="yes"/>
      <point x="458.333" y="27.3333"/>
      <point x="392.667" y="-10"/>
      <point x="310" y="-10" type="curve" smooth="yes"/>
      <point x="212.667" y="-10"/>
      <point x="139.333" y="37.6667"/>
      <point x="90" y="133" type="curve" smooth="yes"/>
      <point x="57.3333" y="196.333"/>
      <point x="41" y="268.667"/>
      <point x="41" y="350" type="curve" smooth="yes"/>
      <point x="41" y="456.667"/>
      <point x="64.6667" y="543.667"/>
      <point x="112" y="611" type="curve" smooth="yes"/>
      <point x="158.667" y="679"/>
      <point x="222" y="713"/>
      <point x="302" y="713" type="curve" smooth="yes"/>
      <point x="406" y="713"/>
      <point x="481.667" y="662"/>
      <point x="529" y="560" type="curve" smooth="yes"/>
      <point x="558.333" y="498.667"/>
      <point x="573" y="428"/>
    </contour>
    <contour>
      <point x="483" y="336" type="curve" smooth="yes"/>
      <point x="483" y="470"/>
      <point x="455.333" y="561"/>
      <point x="400" y="609" type="curve"/>
      <point x="376" y="627" type="line"/>
      <point x="354" y="639"/>
      <point x="329.333" y="645"/>
      <point x="302" y="645" type="curve" smooth="yes"/>
      <point x="218" y="645"/>
      <point x="164.667" y="587.667"/>
      <point x="142" y="473" type="curve" smooth="yes"/>
      <point x="134.667" y="437.667"/>
      <point x="131" y="398.667"/>
      <point x="131" y="356" type="curve" smooth="yes"/>
      <point x="131" y="226.667"/>
      <point x="158.667" y="138.333"/>
      <point x="214" y="91" type="curve" smooth="yes"/>
      <point x="240.667" y="68.3333"/>
      <point x="272.667" y="57"/>
      <point x="310" y="57" type="curve" smooth="yes"/>
      <point x="388.667" y="57"/>
      <point x="441.333" y="107"/>
      <point x="468" y="207" type="curve" smooth="yes"/>
      <point x="478" y="246.333"/>
      <point x="483" y="289.333"/>
    </contour>
  </outline>
</glyph>
<glyph name="one" format="2">
  <advance width="614"/>
  <unicode hex="0031"/>
  <outline>
    <contour>
      <point x="569" y="0" type="line"/>
      <point x="78" y="0" type="line"/>
      <point x="78" y="65" type="line"/>
      <point x="288" y="65" type="line"/>
      <point x="288" y="596" type="line"/>
      <point x="227.333" y="532"/>
      <point x="162.667" y="482"/>
      <point x="94" y="446" type="curve"/>
      <point x="94" y="534" type="line"/>
      <point x="186.667" y="581.333"/>
      <point x="258.333" y="637.333"/>
      <point x="309" y="702" type="curve"/>
      <point x="373" y="702" type="line"/>
      <point x="373" y="65" type="line"/>
      <point x="569" y="65" type="line"/>
    </contour>
  </outline>
</glyph>
<glyph name="two" format="2">
  <advance width="614" height="614"/>
  <unicode hex="0032"/>
  <outline>
    <contour>
      <point x="558" y="0" type="line"/>
      <point x="59" y="0" type="line"/>
      <point x="59" y="73" type="line"/>
      <point x="344" y="296" type="line" smooth="yes"/>
      <point x="427.333" y="361.333"/>
      <point x="469" y="430.333"/>
      <point x="469" y="503" type="curve" smooth="yes"/>
      <point x="469" y="553.667"/>
      <point x="445.333" y="592"/>
      <point x="398" y="618" type="curve" smooth="yes"/>
      <point x="370.667" y="634"/>
      <point x="341" y="642"/>
      <point x="309" y="642" type="curve" smooth="yes"/>
      <point x="255" y="642"/>
      <point x="211.333" y="621"/>
      <point x="178" y="579" type="curve" smooth="yes"/>
      <point x="154.667" y="551"/>
      <point x="142.333" y="518.667"/>
      <point x="141" y="482" type="curve"/>
      <point x="59" y="507" type="line"/>
      <point x="76.3333" y="593.667"/>
      <point x="121.333" y="654"/>
      <point x="194" y="688" type="curve" smooth="yes"/>
      <point x="229.333" y="704.667"/>
      <point x="268.667" y="713"/>
      <point x="312" y="713" type="curve" smooth="yes"/>
      <point x="384.667" y="713"/>
      <point x="445.333" y="691"/>
      <point x="494" y="647" type="curve"/>
      <point x="516" y="622" type="line"/>
      <point x="536" y="593" type="line"/>
      <point x="550" y="565"/>
      <point x="557" y="535"/>
      <point x="557" y="503" type="curve" smooth="yes"/>
      <point x="557" y="414.333"/>
      <point x="505.667" y="330.333"/>
      <point x="403" y="251" type="curve" smooth="yes"/>
      <point x="171" y="73" type="line"/>
      <point x="558" y="73" type="line"/>
    </contour>
  </outline>
</glyph>
<glyph name="three" format="2">
  <advance width="614"/>
  <unicode hex="0033"/>
  <outline>
    <contour>
      <point x="574" y="197" type="curve" smooth="yes"/>
      <point x="574" y="118.333"/>
      <point x="536" y="60.3333"/>
      <point x="460" y="23" type="curve" smooth="yes"/>
      <point x="414.667" y="1"/>
      <point x="364" y="-10"/>
      <point x="308" y="-10" type="curve" smooth="yes"/>
      <point x="214" y="-10"/>
      <point x="141" y="19.3333"/>
      <point x="89" y="78" type="curve" smooth="yes"/>
      <point x="67.6667" y="101.333"/>
      <point x="51.6667" y="128.667"/>
      <point x="41" y="160" type="curve"/>
      <point x="123" y="187" type="line"/>
      <point x="147" y="102.333"/>
      <point x="208" y="60"/>
      <point x="306" y="60" type="curve" smooth="yes"/>
      <point x="382.667" y="60"/>
      <point x="435.333" y="82"/>
      <point x="464" y="126" type="curve" smooth="yes"/>
      <point x="476.667" y="146"/>
      <point x="483" y="169.667"/>
      <point x="483" y="197" type="curve" smooth="yes"/>
      <point x="483" y="240.333"/>
      <point x="462.667" y="275"/>
      <point x="422" y="301" type="curve" smooth="yes"/>
      <point x="390.667" y="321"/>
      <point x="340.333" y="331"/>
      <point x="271" y="331" type="curve" smooth="yes"/>
      <point x="265" y="331"/>
      <point x="265" y="331"/>
      <point x="258" y="331" type="curve" smooth="yes"/>
      <point x="214" y="331" type="line"/>
      <point x="214" y="399" type="line"/>
      <point x="281.333" y="399"/>
      <point x="321.667" y="399.667"/>
      <point x="335" y="401" type="curve" smooth="yes"/>
      <point x="359.667" y="405"/>
      <point x="379.333" y="410.667"/>
      <point x="394" y="418" type="curve" smooth="yes"/>
      <point x="426" y="433.333"/>
      <point x="446.333" y="459.333"/>
      <point x="455" y="496" type="curve" smooth="yes"/>
      <point x="457" y="503.333"/>
      <point x="458" y="511"/>
      <point x="458" y="519" type="curve" smooth="yes"/>
      <point x="458" y="572.333"/>
      <point x="432.333" y="609.667"/>
      <point x="381" y="631" type="curve"/>
      <point x="346" y="641" type="line" smooth="yes"/>
      <point x="334.667" y="643"/>
      <point x="322.333" y="644"/>
      <point x="309" y="644" type="curve" smooth="yes"/>
      <point x="251" y="644"/>
      <point x="205.333" y="623"/>
      <point x="172" y="581" type="curve" smooth="yes"/>
      <point x="160.667" y="565.667"/>
      <point x="151.667" y="548.667"/>
      <point x="145" y="530" type="curve"/>
      <point x="67" y="553" type="line"/>
      <point x="94.3333" y="627"/>
      <point x="146.667" y="675.667"/>
      <point x="224" y="699" type="curve" smooth="yes"/>
      <point x="252.667" y="708.333"/>
      <point x="283.333" y="713"/>
      <point x="316" y="713" type="curve" smooth="yes"/>
      <point x="392.667" y="713"/>
      <point x="453" y="691.333"/>
      <point x="497" y="648" type="curve" smooth="yes"/>
      <point x="530.333" y="615.333"/>
      <point x="547" y="574"/>
      <point x="547" y="524" type="curve" smooth="yes"/>
      <point x="547" y="474.667"/>
      <point x="526" y="434"/>
      <point x="484" y="402" type="curve" smooth="yes"/>
      <point x="462.667" y="385.333"/>
      <point x="438.667" y="375"/>
      <point x="412" y="371" type="curve"/>
      <point x="412" y="369" type="line"/>
      <point x="476.667" y="359"/>
      <point x="523.333" y="330.333"/>
      <point x="552" y="283" type="curve" smooth="yes"/>
      <point x="566.667" y="257"/>
      <point x="574" y="228.333"/>
    </contour>
  </outline>
</glyph>
<glyph name="five" format="2">
  <advance width="614" height="614"/>
  <unicode hex="0035"/>
  <outline>
    <contour>
      <point x="565" y="238" type="curve" smooth="yes"/>
      <point x="565" y="152.667"/>
      <point x="532" y="86.6667"/>
      <point x="466" y="40" type="curve" smooth="yes"/>
      <point x="417.333" y="6.66667"/>
      <point x="360.333" y="-10"/>
      <point x="295" y="-10" type="curve" smooth="yes"/>
      <point x="223.667" y="-10"/>
      <point x="163" y="12"/>
      <point x="113" y="56" type="curve" smooth="yes"/>
      <point x="81.6667" y="84"/>
      <point x="60.3333" y="117.333"/>
      <point x="49" y="156" type="curve"/>
      <point x="125" y="181" type="line"/>
      <point x="148.333" y="117.667"/>
      <point x="190.333" y="79"/>
      <point x="251" y="65" type="curve" smooth="yes"/>
      <point x="265.667" y="61"/>
      <point x="281" y="59"/>
      <point x="297" y="59" type="curve" smooth="yes"/>
      <point x="371" y="59"/>
      <point x="424" y="85.6667"/>
      <point x="456" y="139" type="curve" smooth="yes"/>
      <point x="472" y="167"/>
      <point x="480" y="200.333"/>
      <point x="480" y="239" type="curve" smooth="yes"/>
      <point x="480" y="299"/>
      <point x="457.667" y="345"/>
      <point x="413" y="377" type="curve" smooth="yes"/>
      <point x="385" y="396.333"/>
      <point x="352.333" y="406"/>
      <point x="315" y="406" type="curve" smooth="yes"/>
      <point x="254.333" y="406"/>
      <point x="204.333" y="381.333"/>
      <point x="165" y="332" type="curve" smooth="yes"/>
      <point x="159.667" y="325.333"/>
      <point x="154.667" y="318"/>
      <point x="150" y="310" type="curve"/>
      <point x="80" y="325" type="line"/>
      <point x="103" y="702" type="line"/>
      <point x="519" y="702" type="line"/>
      <point x="512" y="627" type="line"/>
      <point x="167" y="627" type="line"/>
      <point x="152" y="400" type="line"/>
      <point x="203.333" y="450.667"/>
      <point x="259.667" y="476"/>
      <point x="321" y="476" type="curve" smooth="yes"/>
      <point x="396.333" y="476"/>
      <point x="458" y="449.333"/>
      <point x="506" y="396" type="curve" smooth="yes"/>
      <point x="545.333" y="352"/>
      <point x="565" y="299.333"/>
    </contour>
  </outline>
</glyph>
<glyph name="six" format="2">
  <advance width="614"/>
  <unicode hex="0036"/>
  <outline>
    <contour>
      <point x="568" y="229" type="curve" smooth="yes"/>
      <point x="568" y="153.667"/>
      <point x="539" y="92.6667"/>
      <point x="481" y="46" type="curve" smooth="yes"/>
      <point x="435.667" y="8.66667"/>
      <point x="381.667" y="-10"/>
      <point x="319" y="-10" type="curve" smooth="yes"/>
      <point x="214.333" y="-10"/>
      <point x="138" y="37.3333"/>
      <point x="90" y="132" type="curve" smooth="yes"/>
      <point x="60.6667" y="189.333"/>
      <point x="46" y="256.333"/>
      <point x="46" y="333" type="curve" smooth="yes"/>
      <point x="46" y="462.333"/>
      <point x="76.3333" y="561.333"/>
      <point x="137" y="630" type="curve" smooth="yes"/>
      <point x="186.333" y="685.333"/>
      <point x="251.333" y="713"/>
      <point x="332" y="713" type="curve" smooth="yes"/>
      <point x="427.333" y="713"/>
      <point x="496" y="675.667"/>
      <point x="538" y="601" type="curve" smooth="yes"/>
      <point x="545.333" y="587.667"/>
      <point x="551.667" y="573"/>
      <point x="557" y="557" type="curve"/>
      <point x="478" y="536" type="line"/>
      <point x="452.667" y="604.667"/>
      <point x="404" y="639.667"/>
      <point x="332" y="641" type="curve" smooth="yes"/>
      <point x="223.333" y="641"/>
      <point x="157.667" y="569.667"/>
      <point x="135" y="427" type="curve" smooth="yes"/>
      <point x="129.667" y="393.667"/>
      <point x="127" y="357"/>
      <point x="127" y="317" type="curve"/>
      <point x="129" y="317" type="line"/>
      <point x="150.333" y="373"/>
      <point x="189.667" y="413.667"/>
      <point x="247" y="439" type="curve" smooth="yes"/>
      <point x="276.333" y="452.333"/>
      <point x="307" y="459"/>
      <point x="339" y="459" type="curve" smooth="yes"/>
      <point x="410.333" y="459"/>
      <point x="468.667" y="432.667"/>
      <point x="514" y="380" type="curve" smooth="yes"/>
      <point x="550" y="337.333"/>
      <point x="568" y="287"/>
    </contour>
    <contour>
      <point x="486" y="225" type="curve" smooth="yes"/>
      <point x="486" y="278.333"/>
      <point x="465.667" y="321.333"/>
      <point x="425" y="354" type="curve" smooth="yes"/>
      <point x="395.667" y="377.333"/>
      <point x="362.667" y="389"/>
      <point x="326" y="389" type="curve" smooth="yes"/>
      <point x="271.333" y="389"/>
      <point x="225.667" y="368.333"/>
      <point x="189" y="327" type="curve" smooth="yes"/>
      <point x="161" y="295"/>
      <point x="147" y="258.333"/>
      <point x="147" y="217" type="curve" smooth="yes"/>
      <point x="147" y="166.333"/>
      <point x="169.667" y="125"/>
      <point x="215" y="93" type="curve" smooth="yes"/>
      <point x="245.667" y="71"/>
      <point x="279.667" y="60"/>
      <point x="317" y="60" type="curve" smooth="yes"/>
      <point x="374.333" y="60"/>
      <point x="420" y="81.6667"/>
      <point x="454" y="125" type="curve" smooth="yes"/>
      <point x="475.333" y="153.667"/>
      <point x="486" y="187"/>
    </contour>
  </outline>
</glyph>
<glyph name="seven" format="2">
  <advance width="614" height="614"/>
  <unicode hex="0037"/>
  <outline>
    <contour>
      <point x="544" y="649" type="line"/>
      <point x="377.333" y="448.333"/>
      <point x="294" y="232"/>
      <point x="294" y="0" type="curve"/>
      <point x="204" y="0" type="line"/>
      <point x="203.333" y="153.333"/>
      <point x="245" y="304"/>
      <point x="329" y="452" type="curve" smooth="yes"/>
      <point x="363.667" y="513.333"/>
      <point x="404.667" y="571.333"/>
      <point x="452" y="626" type="curve"/>
      <point x="71" y="626" type="line"/>
      <point x="80" y="702" type="line"/>
      <point x="544" y="702" type="line"/>
    </contour>
  </outline>
</glyph>
<glyph name="eight" format="2">
  <advance width="614" height="614"/>
  <unicode hex="0038"/>
  <outline>
    <contour>
      <point x="579" y="188" type="curve" smooth="yes"/>
      <point x="579" y="108.667"/>
      <point x="538" y="51.3333"/>
      <point x="456" y="16" type="curve" smooth="yes"/>
      <point x="412.667" y="-1.33333"/>
      <point x="364.333" y="-10"/>
      <point x="311" y="-10" type="curve" smooth="yes"/>
      <point x="235" y="-10"/>
      <point x="170" y="7.66667"/>
      <point x="116" y="43" type="curve" smooth="yes"/>
      <point x="62.6667" y="77.6667"/>
      <point x="36" y="123.333"/>
      <point x="36" y="180" type="curve" smooth="yes"/>
      <point x="36" y="260.667"/>
      <point x="91.6667" y="322.333"/>
      <point x="203" y="365" type="curve"/>
      <point x="144.333" y="386.333"/>
      <point x="104.333" y="421.333"/>
      <point x="83" y="470" type="curve" smooth="yes"/>
      <point x="75" y="489.333"/>
      <point x="71" y="509.667"/>
      <point x="71" y="531" type="curve" smooth="yes"/>
      <point x="71" y="603.667"/>
      <point x="108.333" y="655.667"/>
      <point x="183" y="687" type="curve" smooth="yes"/>
      <point x="223" y="704.333"/>
      <point x="266.667" y="713"/>
      <point x="314" y="713" type="curve" smooth="yes"/>
      <point x="389.333" y="713"/>
      <point x="449.667" y="693.667"/>
      <point x="495" y="655" type="curve" smooth="yes"/>
      <point x="530.333" y="625"/>
      <point x="548" y="586.333"/>
      <point x="548" y="539" type="curve" smooth="yes"/>
      <point x="548" y="461"/>
      <point x="502.667" y="407"/>
      <point x="412" y="377" type="curve"/>
      <point x="482" y="345"/>
      <point x="528.667" y="311.333"/>
      <point x="552" y="276" type="curve" smooth="yes"/>
      <point x="570" y="250.667"/>
      <point x="579" y="221.333"/>
    </contour>
    <contour>
      <point x="471" y="535" type="curve" smooth="yes"/>
      <point x="471" y="595"/>
      <point x="436" y="631"/>
      <point x="366" y="643" type="curve" smooth="yes"/>
      <point x="350" y="645.667"/>
      <point x="333" y="647"/>
      <point x="315" y="647" type="curve" smooth="yes"/>
      <point x="258.333" y="647"/>
      <point x="215.333" y="632.667"/>
      <point x="186" y="604" type="curve" smooth="yes"/>
      <point x="168.667" y="586.667"/>
      <point x="160" y="565.333"/>
      <point x="160" y="540" type="curve" smooth="yes"/>
      <point x="160" y="492"/>
      <point x="191.667" y="454"/>
      <point x="255" y="426" type="curve" smooth="yes"/>
      <point x="272.333" y="418"/>
      <point x="290.333" y="412"/>
      <point x="309" y="408" type="curve"/>
      <point x="378.333" y="426.667"/>
      <point x="424" y="448.333"/>
      <point x="446" y="473" type="curve" smooth="yes"/>
      <point x="462.667" y="491"/>
      <point x="471" y="511.667"/>
    </contour>
    <contour>
      <point x="492" y="175" type="curve" smooth="yes"/>
      <point x="492" y="243.667"/>
      <point x="428" y="294.667"/>
      <point x="300" y="328" type="curve"/>
      <point x="216.667" y="310"/>
      <point x="162" y="278.667"/>
      <point x="136" y="234" type="curve" smooth="yes"/>
      <point x="126.667" y="218"/>
      <point x="122" y="200.333"/>
      <point x="122" y="181" type="curve" smooth="yes"/>
      <point x="122" y="121"/>
      <point x="159" y="82.3333"/>
      <point x="233" y="65" type="curve" smooth="yes"/>
      <point x="257" y="58.3333"/>
      <point x="283" y="55"/>
      <point x="311" y="55" type="curve" smooth="yes"/>
      <point x="372.333" y="55"/>
      <point x="420.667" y="69.6667"/>
      <point x="456" y="99" type="curve" smooth="yes"/>
      <point x="480" y="119.667"/>
      <point x="492" y="145"/>
    </contour>
  </outline>
</glyph>
<glyph name="nine" format="2">
  <advance width="614"/>
  <unicode hex="0039"/>
  <outline>
    <contour>
      <point x="567" y="368" type="curve" smooth="yes"/>
      <point x="567" y="246.667"/>
      <point x="539" y="151.333"/>
      <point x="483" y="82" type="curve" smooth="yes"/>
      <point x="434.333" y="20.6667"/>
      <point x="368" y="-10"/>
      <point x="284" y="-10" type="curve" smooth="yes"/>
      <point x="196.667" y="-10"/>
      <point x="132" y="19.3333"/>
      <point x="90" y="78" type="curve" smooth="yes"/>
      <point x="79.3333" y="93.3333"/>
      <point x="70.3333" y="110.667"/>
      <point x="63" y="130" type="curve"/>
      <point x="134" y="156" type="line"/>
      <point x="154" y="104.667"/>
      <point x="192" y="73.3333"/>
      <point x="248" y="62" type="curve" smooth="yes"/>
      <point x="259.333" y="60"/>
      <point x="271.333" y="59"/>
      <point x="284" y="59" type="curve" smooth="yes"/>
      <point x="371.333" y="59"/>
      <point x="431.333" y="110"/>
      <point x="464" y="212" type="curve" smooth="yes"/>
      <point x="478.667" y="257.333"/>
      <point x="486" y="307.667"/>
      <point x="486" y="363" type="curve" smooth="yes"/>
      <point x="486" y="366"/>
      <point x="486" y="366"/>
      <point x="486" y="370" type="curve"/>
      <point x="484" y="370" type="line"/>
      <point x="446.667" y="298"/>
      <point x="389" y="257"/>
      <point x="311" y="247" type="curve" smooth="yes"/>
      <point x="300.333" y="245.667"/>
      <point x="289.667" y="245"/>
      <point x="279" y="245" type="curve" smooth="yes"/>
      <point x="205" y="245"/>
      <point x="145.333" y="271.667"/>
      <point x="100" y="325" type="curve" smooth="yes"/>
      <point x="64.6667" y="366.333"/>
      <point x="47" y="416"/>
      <point x="47" y="474" type="curve" smooth="yes"/>
      <point x="47" y="548"/>
      <point x="74.6667" y="608.333"/>
      <point x="130" y="655" type="curve" smooth="yes"/>
      <point x="175.333" y="693.667"/>
      <point x="229" y="713"/>
      <point x="291" y="713" type="curve" smooth="yes"/>
      <point x="415.667" y="713"/>
      <point x="499" y="654.667"/>
      <point x="541" y="538" type="curve" smooth="yes"/>
      <point x="558.333" y="488.667"/>
      <point x="567" y="432"/>
    </contour>
    <contour>
      <point x="468" y="479" type="curve" smooth="yes"/>
      <point x="468" y="539.667"/>
      <point x="443.667" y="585"/>
      <point x="395" y="615" type="curve" smooth="yes"/>
      <point x="367" y="632.333"/>
      <point x="334.667" y="641"/>
      <point x="298" y="641" type="curve" smooth="yes"/>
      <point x="235.333" y="641"/>
      <point x="188.667" y="617.333"/>
      <point x="158" y="570" type="curve" smooth="yes"/>
      <point x="142.667" y="546.667"/>
      <point x="134" y="519.667"/>
      <point x="132" y="489" type="curve" smooth="yes"/>
      <point x="131.333" y="483.667"/>
      <point x="131" y="478.333"/>
      <point x="131" y="473" type="curve" smooth="yes"/>
      <point x="131" y="415"/>
      <point x="155" y="371"/>
      <point x="203" y="341" type="curve" smooth="yes"/>
      <point x="231.667" y="323"/>
      <point x="264" y="314"/>
      <point x="300" y="314" type="curve" smooth="yes"/>
      <point x="352" y="314"/>
      <point x="395" y="334.667"/>
      <point x="429" y="376" type="curve" smooth="yes"/>
      <point x="455" y="406.667"/>
      <point x="468" y="441"/>
    </contour>
  </outline>
</glyph>
<glyph name="colon" format="2">
  <advance width="307" height="307"/>
  <unicode hex="003A"/>
  <outline>
    <contour>
      <point x="215" y="404" type="line"/>
      <point x="101" y="404" type="line"/>
      <point x="101" y="520" type="line"/>
      <point x="215" y="520" type="line"/>
    </contour>
    <contour>
      <point x="215" y="0" type="line"/>
      <point x="101" y="0" type="line"/>
      <point x="101" y="116" type="line"/>
      <point x="215" y="116" type="line"/>
    </contour>
  </outline>
</glyph>
<glyph name="semicolon" format="2">
  <advance width="307"/>
  <unicode hex="003B"/>
  <outline>
    <contour>
      <point x="218" y="404" type="line"/>
      <point x="104" y="404" type="line"/>
      <point x="104" y="520" type="line"/>
      <point x="218" y="520" type="line"/>
    </contour>
    <contour>
      <point x="218" y="12" type="line"/>
      <point x="141" y="-132" type="line"/>
      <point x="97" y="-132" type="line"/>
      <point x="159" y="0" type="line"/>
      <point x="105" y="0" type="line"/>
      <point x="105" y="118" type="line"/>
      <point x="218" y="118" type="line"/>
    </contour>
  </outline>
</glyph>
<glyph name="equal" format="2">
  <advance width="614"/>
  <unicode hex="003D"/>
  <outline>
    <contour>
      <point x="571" y="361" type="line"/>
      <point x="42" y="361" type="line"/>
      <point x="42" y="428" type="line"/>
      <point x="571" y="428" type="line"/>
    </contour>
    <contour>
      <point x="571" y="163" type="line"/>
      <point x="42" y="163" type="line"/>
      <point x="42" y="229" type="line"/>
      <point x="571" y="229" type="line"/>
    </contour>
  </outline>
</glyph>
<glyph name="question" format="2">
  <advance width="552"/>
  <unicode hex="003F"/>
  <outline>
    <contour>
      <point x="516" y="515" type="curve" smooth="yes"/>
      <point x="516" y="437"/>
      <point x="472.333" y="375.667"/>
      <point x="385" y="331" type="curve" smooth="yes"/>
      <point x="347" y="311.667"/>
      <point x="324.333" y="297.333"/>
      <point x="317" y="288" type="curve" smooth="yes"/>
      <point x="306.333" y="274.667"/>
      <point x="301" y="249.667"/>
      <point x="301" y="213" type="curve" smooth="yes"/>
      <point x="301" y="206"/>
      <point x="301" y="206"/>
      <point x="301" y="195" type="curve" smooth="yes"/>
      <point x="301" y="174" type="line"/>
      <point x="227" y="174" type="line"/>
      <point x="227" y="218" type="line" smooth="yes"/>
      <point x="227" y="268"/>
      <point x="233.333" y="303"/>
      <point x="246" y="323" type="curve" smooth="yes"/>
      <point x="256" y="338.333"/>
      <point x="272" y="352.667"/>
      <point x="294" y="366" type="curve" smooth="yes"/>
      <point x="340.667" y="392.667"/>
      <point x="368.667" y="410"/>
      <point x="378" y="418" type="curve" smooth="yes"/>
      <point x="409.333" y="444"/>
      <point x="425" y="476"/>
      <point x="425" y="514" type="curve" smooth="yes"/>
      <point x="425" y="567.333"/>
      <point x="400.667" y="604.667"/>
      <point x="352" y="626" type="curve" smooth="yes"/>
      <point x="330" y="635.333"/>
      <point x="306.333" y="640"/>
      <point x="281" y="640" type="curve" smooth="yes"/>
      <point x="213" y="640"/>
      <point x="165.333" y="608.667"/>
      <point x="138" y="546" type="curve"/>
      <point x="126" y="507" type="line" smooth="yes"/>
      <point x="124.667" y="501.667"/>
      <point x="123.667" y="495.667"/>
      <point x="123" y="489" type="curve"/>
      <point x="46" y="506" type="line"/>
      <point x="61.3333" y="602"/>
      <point x="108" y="665"/>
      <point x="186" y="695" type="curve" smooth="yes"/>
      <point x="216" y="707"/>
      <point x="249.667" y="713"/>
      <point x="287" y="713" type="curve" smooth="yes"/>
      <point x="361.667" y="713"/>
      <point x="421" y="690.333"/>
      <point x="465" y="645" type="curve"/>
      <point x="486" y="620" type="line"/>
      <point x="505.333" y="590"/>
      <point x="515.333" y="555"/>
    </contour>
    <contour>
      <point x="319" y="0" type="line"/>
      <point x="215" y="0" type="line"/>
      <point x="215" y="100" type="line"/>
      <point x="319" y="100" type="line"/>
    </contour>
  </outline>
</glyph>
<glyph name="at" format="2">
  <advance width="819"/>
  <unicode hex="0040"/>
  <outline>
    <contour>
      <point x="783" y="418" type="curve" smooth="yes"/>
      <point x="783" y="352"/>
      <point x="763.333" y="292.333"/>
      <point x="724" y="239" type="curve" smooth="yes"/>
      <point x="688" y="191"/>
      <point x="644.667" y="163.333"/>
      <point x="594" y="156" type="curve" smooth="yes"/>
      <point x="585.333" y="154.667"/>
      <point x="576.667" y="154"/>
      <point x="568" y="154" type="curve" smooth="yes"/>
      <point x="511.333" y="154"/>
      <point x="479" y="172.333"/>
      <point x="471" y="209" type="curve" smooth="yes"/>
      <point x="470.333" y="211"/>
      <point x="470" y="213"/>
      <point x="470" y="215" type="curve"/>
      <point x="439.333" y="186.333"/>
      <point x="414.667" y="168.667"/>
      <point x="396" y="162" type="curve" smooth="yes"/>
      <point x="383.333" y="158"/>
      <point x="369.333" y="156"/>
      <point x="354" y="156" type="curve" smooth="yes"/>
      <point x="306.667" y="156"/>
      <point x="270" y="177.667"/>
      <point x="244" y="221" type="curve" smooth="yes"/>
      <point x="228.667" y="247"/>
      <point x="221" y="275"/>
      <point x="221" y="305" type="curve" smooth="yes"/>
      <point x="221" y="364.333"/>
      <point x="242.333" y="418"/>
      <point x="285" y="466" type="curve" smooth="yes"/>
      <point x="327" y="514"/>
      <point x="375.667" y="538"/>
      <point x="431" y="538" type="curve" smooth="yes"/>
      <point x="462.333" y="538"/>
      <point x="489.333" y="525"/>
      <point x="512" y="499" type="curve" smooth="yes"/>
      <point x="522" y="487.667"/>
      <point x="528.667" y="475.667"/>
      <point x="532" y="463" type="curve"/>
      <point x="551" y="517" type="line"/>
      <point x="618" y="517" type="line"/>
      <point x="547" y="302" type="line"/>
      <point x="535" y="253" type="line"/>
      <point x="535" y="250" type="line"/>
      <point x="538.333" y="226"/>
      <point x="551" y="213"/>
      <point x="573" y="211" type="curve" smooth="yes"/>
      <point x="617.667" y="211"/>
      <point x="655.667" y="236.667"/>
      <point x="687" y="288" type="curve" smooth="yes"/>
      <point x="709.667" y="324.667"/>
      <point x="721" y="361.333"/>
      <point x="721" y="398" type="curve" smooth="yes"/>
      <point x="721" y="472.667"/>
      <point x="687.333" y="535.333"/>
      <point x="620" y="586" type="curve" smooth="yes"/>
      <point x="560" y="630.667"/>
      <point x="493.667" y="653"/>
      <point x="421" y="653" type="curve" smooth="yes"/>
      <point x="349" y="653"/>
      <point x="281" y="623.667"/>
      <point x="217" y="565" type="curve" smooth="yes"/>
      <point x="155" y="508.333"/>
      <point x="118.667" y="444.333"/>
      <point x="108" y="373" type="curve" smooth="yes"/>
      <point x="105.333" y="360.333"/>
      <point x="104" y="348.333"/>
      <point x="104" y="337" type="curve" smooth="yes"/>
      <point x="104" y="247"/>
      <point x="139.667" y="174.333"/>
      <point x="211" y="119" type="curve" smooth="yes"/>
      <point x="269.667" y="73.6667"/>
      <point x="338.667" y="51"/>
      <point x="418" y="51" type="curve" smooth="yes"/>
      <point x="468.667" y="51"/>
      <point x="518.333" y="60.6667"/>
      <point x="567" y="80" type="curve"/>
      <point x="591" y="25" type="line"/>
      <point x="525" y="1.66667"/>
      <point x="461" y="-10"/>
      <point x="399" y="-10" type="curve" smooth="yes"/>
      <point x="303" y="-10"/>
      <point x="220" y="19.3333"/>
      <point x="150" y="78" type="curve" smooth="yes"/>
      <point x="74" y="141.333"/>
      <point x="35.6667" y="222.667"/>
      <point x="35" y="322" type="curve" smooth="yes"/>
      <point x="35" y="424.667"/>
      <point x="71.3333" y="513.667"/>
      <point x="144" y="589" type="curve" smooth="yes"/>
      <point x="214.667" y="661"/>
      <point x="299.667" y="701.667"/>
      <point x="399" y="711" type="curve" smooth="yes"/>
      <point x="412.333" y="712.333"/>
      <point x="425" y="713"/>
      <point x="437" y="713" type="curve" smooth="yes"/>
      <point x="521" y="713"/>
      <point x="597" y="688"/>
      <point x="665" y="638" type="curve"/>
      <point x="741" y="576"/>
      <point x="780.333" y="502.667"/>
    </contour>
    <contour>
      <point x="429" y="476" type="curve" smooth="yes"/>
      <point x="383" y="476"/>
      <point x="347" y="450.667"/>
      <point x="321" y="400" type="curve" smooth="yes"/>
      <point x="304.333" y="369.333"/>
      <point x="296" y="337.667"/>
      <point x="296" y="305" type="curve" smooth="yes"/>
      <point x="296" y="271.667"/>
      <point x="308" y="245"/>
      <point x="332" y="225" type="curve" smooth="yes"/>
      <point x="344.667" y="214.333"/>
      <point x="359.667" y="209"/>
      <point x="377" y="209" type="curve" smooth="yes"/>
      <point x="418.333" y="209"/>
      <point x="452" y="239.333"/>
      <point x="478" y="300" type="curve" smooth="yes"/>
      <point x="494.667" y="338"/>
      <point x="503" y="374.333"/>
      <point x="503" y="409" type="curve"/>
      <point x="499.667" y="451.667"/>
      <point x="475" y="474"/>
    </contour>
  </outline>
</glyph>
<glyph name="A" format="2">
  <advance width="573" height="573"/>
  <unicode hex="0041"/>
  <outline>
    <contour>
      <point x="568" y="0" type="line"/>
      <point x="478" y="0" type="line"/>
      <point x="408" y="205" type="line"/>
      <point x="147" y="205" type="line"/>
      <point x="85" y="0" type="line"/>
      <point x="11" y="0" type="line"/>
      <point x="239" y="702" type="line"/>
      <point x="340" y="702" type="line"/>
    </contour>
    <contour>
      <point x="388" y="271" type="line"/>
      <point x="281" y="608" type="line"/>
      <point x="172" y="271" type="line"/>
    </contour>
  </outline>
</glyph>
<glyph name="B" format="2">
  <advance width="634" height="634"/>
  <unicode hex="0042"/>
  <outline>
    <contour>
      <point x="588" y="194" type="curve" smooth="yes"/>
      <point x="588" y="130"/>
      <point x="565.333" y="80.3333"/>
      <point x="520" y="45" type="curve" smooth="yes"/>
      <point x="484" y="16.3333"/>
      <point x="434" y="1.33333"/>
      <point x="370" y="0" type="curve" smooth="yes"/>
      <point x="347" y="0" type="line"/>
      <point x="83" y="0" type="line"/>
      <point x="83" y="702" type="line"/>
      <point x="348" y="702" type="line" smooth="yes"/>
      <point x="404.667" y="702"/>
      <point x="447.667" y="694.333"/>
      <point x="477" y="679" type="curve" smooth="yes"/>
      <point x="481.667" y="676.333"/>
      <point x="487" y="673.333"/>
      <point x="493" y="670" type="curve" smooth="yes"/>
      <point x="541" y="637.333"/>
      <point x="565.333" y="591"/>
      <point x="566" y="531" type="curve" smooth="yes"/>
      <point x="566" y="469.667"/>
      <point x="542" y="424"/>
      <point x="494" y="394" type="curve"/>
      <point x="462" y="380" type="line" smooth="yes"/>
      <point x="456" y="377.333"/>
      <point x="449.333" y="375.333"/>
      <point x="442" y="374" type="curve"/>
      <point x="442" y="372" type="line"/>
      <point x="500.667" y="359.333"/>
      <point x="542.667" y="327.333"/>
      <point x="568" y="276" type="curve" smooth="yes"/>
      <point x="581.333" y="251.333"/>
      <point x="588" y="224"/>
    </contour>
    <contour>
      <point x="479" y="520" type="curve" smooth="yes"/>
      <point x="479" y="584.667"/>
      <point x="442.667" y="621.333"/>
      <point x="370" y="630" type="curve" smooth="yes"/>
      <point x="360.667" y="630.667"/>
      <point x="351" y="631"/>
      <point x="341" y="631" type="curve" smooth="yes"/>
      <point x="171" y="631" type="line"/>
      <point x="171" y="401" type="line"/>
      <point x="317" y="401" type="line" smooth="yes"/>
      <point x="425" y="401"/>
      <point x="479" y="440.667"/>
    </contour>
    <contour>
      <point x="500" y="198" type="curve" smooth="yes"/>
      <point x="500" y="240.667"/>
      <point x="484.667" y="275.667"/>
      <point x="454" y="303" type="curve" smooth="yes"/>
      <point x="452.667" y="304.333"/>
      <point x="451" y="305.667"/>
      <point x="449" y="307" type="curve" smooth="yes"/>
      <point x="425.667" y="325"/>
      <point x="388.667" y="334"/>
      <point x="338" y="334" type="curve" smooth="yes"/>
      <point x="171" y="334" type="line"/>
      <point x="171" y="75" type="line"/>
      <point x="343" y="75" type="line" smooth="yes"/>
      <point x="431.667" y="75"/>
      <point x="483" y="105.333"/>
      <point x="497" y="166" type="curve" smooth="yes"/>
      <point x="499" y="175.333"/>
      <point x="500" y="186"/>
    </contour>
  </outline>
</glyph>
<glyph name="C" format="2">
  <advance width="634"/>
  <unicode hex="0043"/>
  <outline>
    <contour>
      <point x="589" y="219" type="line"/>
      <point x="557.667" y="90.3333"/>
      <point x="490" y="15.6667"/>
      <point x="386" y="-5" type="curve" smooth="yes"/>
      <point x="367.333" y="-8.33333"/>
      <point x="348.333" y="-10"/>
      <point x="329" y="-10" type="curve" smooth="yes"/>
      <point x="224.333" y="-10"/>
      <point x="146" y="38.3333"/>
      <point x="94" y="135" type="curve" smooth="yes"/>
      <point x="60" y="199"/>
      <point x="43" y="273.333"/>
      <point x="43" y="358" type="curve" smooth="yes"/>
      <point x="43" y="470.667"/>
      <point x="72.3333" y="560"/>
      <point x="131" y="626" type="curve" smooth="yes"/>
      <point x="183" y="684"/>
      <point x="251.333" y="713"/>
      <point x="336" y="713" type="curve" smooth="yes"/>
      <point x="435.333" y="713"/>
      <point x="508.333" y="669.333"/>
      <point x="555" y="582" type="curve" smooth="yes"/>
      <point x="570.333" y="554"/>
      <point x="581.667" y="522.667"/>
      <point x="589" y="488" type="curve"/>
      <point x="506" y="473" type="line"/>
      <point x="478.667" y="573"/>
      <point x="429.667" y="627.667"/>
      <point x="359" y="637" type="curve" smooth="yes"/>
      <point x="350.333" y="638.333"/>
      <point x="341.667" y="639"/>
      <point x="333" y="639" type="curve" smooth="yes"/>
      <point x="247.667" y="639"/>
      <point x="189.667" y="590"/>
      <point x="159" y="492" type="curve" smooth="yes"/>
      <point x="145.667" y="449.333"/>
      <point x="139" y="402.333"/>
      <point x="139" y="351" type="curve" smooth="yes"/>
      <point x="139" y="261"/>
      <point x="158.333" y="188.667"/>
      <point x="197" y="134" type="curve" smooth="yes"/>
      <point x="230.333" y="86.6667"/>
      <point x="274.333" y="63"/>
      <point x="329" y="63" type="curve" smooth="yes"/>
      <point x="417.667" y="63"/>
      <point x="476.667" y="117"/>
      <point x="506" y="225" type="curve" smooth="yes"/>
      <point x="507.333" y="229"/>
      <point x="508.333" y="233"/>
      <point x="509" y="237" type="curve"/>
    </contour>
  </outline>
</glyph>
<glyph name="D" format="2">
  <advance width="675"/>
  <unicode hex="0044"/>
  <outline>
    <contour>
      <point x="636" y="353" type="curve" smooth="yes"/>
      <point x="636" y="247"/>
      <point x="607.333" y="160.333"/>
      <point x="550" y="93" type="curve" smooth="yes"/>
      <point x="496" y="31"/>
      <point x="425.333" y="0"/>
      <point x="338" y="0" type="curve" smooth="yes"/>
      <point x="87" y="0" type="line"/>
      <point x="87" y="702" type="line"/>
      <point x="309" y="702" type="line" smooth="yes"/>
      <point x="394.333" y="702"/>
      <point x="462" y="682"/>
      <point x="512" y="642" type="curve" smooth="yes"/>
      <point x="525.333" y="631.333"/>
      <point x="538.333" y="618.333"/>
      <point x="551" y="603" type="curve" smooth="yes"/>
      <point x="607.667" y="537"/>
      <point x="636" y="453.667"/>
    </contour>
    <contour>
      <point x="547" y="353" type="curve" smooth="yes"/>
      <point x="547" y="435.667"/>
      <point x="525.333" y="503.667"/>
      <point x="482" y="557" type="curve" smooth="yes"/>
      <point x="448.667" y="599"/>
      <point x="402.667" y="622.667"/>
      <point x="344" y="628" type="curve"/>
      <point x="304" y="629" type="line"/>
      <point x="175" y="629" type="line"/>
      <point x="175" y="75" type="line"/>
      <point x="304" y="75" type="line" smooth="yes"/>
      <point x="382" y="75"/>
      <point x="440" y="96.6667"/>
      <point x="478" y="140" type="curve" smooth="yes"/>
      <point x="484" y="147.333"/>
      <point x="490" y="155.333"/>
      <point x="496" y="164" type="curve" smooth="yes"/>
      <point x="530" y="216"/>
      <point x="547" y="279"/>
    </contour>
  </outline>
</glyph>
<glyph name="E" format="2">
  <advance width="573"/>
  <unicode hex="0045"/>
  <outline>
    <contour>
      <point x="542" y="0" type="line"/>
      <point x="87" y="0" type="line"/>
      <point x="87" y="702" type="line"/>
      <point x="531" y="702" type="line"/>
      <point x="531" y="627" type="line"/>
      <point x="175" y="627" type="line"/>
      <point x="175" y="403" type="line"/>
      <point x="458" y="403" type="line"/>
      <point x="458" y="333" type="line"/>
      <point x="175" y="333" type="line"/>
      <point x="175" y="76" type="line"/>
      <point x="542" y="76" type="line"/>
    </contour>
  </outline>
</glyph>
<glyph name="G" format="2">
  <advance width="675"/>
  <unicode hex="0047"/>
  <outline>
    <contour>
      <point x="614" y="-5" type="line"/>
      <point x="560" y="-5" type="line"/>
      <point x="537" y="82" type="line"/>
      <point x="497" y="24"/>
      <point x="436.333" y="-6.66667"/>
      <point x="355" y="-10" type="curve" smooth="yes"/>
      <point x="348" y="-10"/>
      <point x="348" y="-10"/>
      <point x="342" y="-10" type="curve" smooth="yes"/>
      <point x="236.667" y="-10"/>
      <point x="157.333" y="35"/>
      <point x="104" y="125" type="curve" smooth="yes"/>
      <point x="67.3333" y="187"/>
      <point x="49" y="260"/>
      <point x="49" y="344" type="curve" smooth="yes"/>
      <point x="49" y="452"/>
      <point x="77" y="540.667"/>
      <point x="133" y="610" type="curve" smooth="yes"/>
      <point x="188.333" y="678.667"/>
      <point x="261.667" y="713"/>
      <point x="353" y="713" type="curve" smooth="yes"/>
      <point x="457" y="713"/>
      <point x="532.333" y="670.333"/>
      <point x="579" y="585" type="curve" smooth="yes"/>
      <point x="591" y="563"/>
      <point x="600.333" y="538.333"/>
      <point x="607" y="511" type="curve"/>
      <point x="524" y="490" type="line"/>
      <point x="512" y="552.667"/>
      <point x="480" y="596.667"/>
      <point x="428" y="622" type="curve" smooth="yes"/>
      <point x="403.333" y="633.333"/>
      <point x="376.333" y="639"/>
      <point x="347" y="639" type="curve" smooth="yes"/>
      <point x="256.333" y="639"/>
      <point x="195.333" y="588.667"/>
      <point x="164" y="488" type="curve" smooth="yes"/>
      <point x="150.667" y="446.667"/>
      <point x="144" y="400"/>
      <point x="144" y="348" type="curve" smooth="yes"/>
      <point x="144" y="250.667"/>
      <point x="166.667" y="175.667"/>
      <point x="212" y="123" type="curve" smooth="yes"/>
      <point x="246.667" y="81.6667"/>
      <point x="292" y="61"/>
      <point x="348" y="61" type="curve" smooth="yes"/>
      <point x="418" y="61"/>
      <point x="468.667" y="87.6667"/>
      <point x="500" y="141" type="curve" smooth="yes"/>
      <point x="516" y="169.667"/>
      <point x="524" y="203.333"/>
      <point x="524" y="242" type="curve" smooth="yes"/>
      <point x="524" y="281" type="line"/>
      <point x="349" y="281" type="line"/>
      <point x="349" y="354" type="line"/>
      <point x="614" y="354" type="line"/>
    </contour>
  </outline>
</glyph>
<glyph name="H" format="2">
  <advance width="675" height="675"/>
  <unicode hex="0048"/>
  <outline>
    <contour>
      <point x="585" y="0" type="line"/>
      <point x="497" y="0" type="line"/>
      <point x="497" y="334" type="line"/>
      <point x="171" y="334" type="line"/>
      <point x="171" y="0" type="line"/>
      <point x="83" y="0" type="line"/>
      <point x="83" y="702" type="line"/>
      <point x="171" y="702" type="line"/>
      <point x="171" y="411" type="line"/>
      <point x="497" y="411" type="line"/>
      <point x="497" y="702" type="line"/>
      <point x="585" y="702" type="line"/>
    </contour>
  </outline>
</glyph>
<glyph name="I" format="2">
  <advance width="266" height="266"/>
  <unicode hex="0049"/>
  <outline>
    <contour>
      <point x="176" y="0" type="line"/>
      <point x="88" y="0" type="line"/>
      <point x="88" y="702" type="line"/>
      <point x="176" y="702" type="line"/>
    </contour>
  </outline>
</glyph>
<glyph name="J" format="2">
  <advance width="409" height="409"/>
  <unicode hex="004A"/>
  <outline>
    <contour>
      <point x="331" y="229" type="line" smooth="yes"/>
      <point x="331" y="104.333"/>
      <point x="289.667" y="28.6667"/>
      <point x="207" y="2" type="curve" smooth="yes"/>
      <point x="181.667" y="-6"/>
      <point x="152.667" y="-10"/>
      <point x="120" y="-10" type="curve" smooth="yes"/>
      <point x="86" y="-10"/>
      <point x="51.6667" y="-5.33333"/>
      <point x="17" y="4" type="curve"/>
      <point x="17" y="76" type="line"/>
      <point x="50.3333" y="69.3333"/>
      <point x="80.6667" y="66"/>
      <point x="108" y="66" type="curve" smooth="yes"/>
      <point x="171.333" y="66"/>
      <point x="211" y="83.3333"/>
      <point x="227" y="118" type="curve" smooth="yes"/>
      <point x="237.667" y="139.333"/>
      <point x="243" y="176.333"/>
      <point x="243" y="229" type="curve" smooth="yes"/>
      <point x="243" y="702" type="line"/>
      <point x="331" y="702" type="line"/>
    </contour>
  </outline>
</glyph>
<glyph name="M" format="2">
  <advance width="839" height="839"/>
  <unicode hex="004D"/>
  <outline>
    <contour>
      <point x="761" y="0" type="line"/>
      <point x="673" y="0" type="line"/>
      <point x="673" y="613" type="line"/>
      <point x="669" y="613" type="line"/>
      <point x="446" y="0" type="line"/>
      <point x="387" y="0" type="line"/>
      <point x="160" y="613" type="line"/>
      <point x="156" y="613" type="line"/>
      <point x="156" y="0" type="line"/>
      <point x="82" y="0" type="line"/>
      <point x="82" y="702" type="line"/>
      <point x="213" y="702" type="line"/>
      <point x="425" y="140" type="line"/>
      <point x="632" y="702" type="line"/>
      <point x="761" y="702" type="line"/>
    </contour>
  </outline>
</glyph>
<glyph name="N" format="2">
  <advance width="675"/>
  <unicode hex="004E"/>
  <outline>
    <contour>
      <point x="601" y="0" type="line"/>
      <point x="515" y="0" type="line"/>
      <point x="158" y="612" type="line"/>
      <point x="158" y="0" type="line"/>
      <point x="84" y="0" type="line"/>
      <point x="84" y="702" type="line"/>
      <point x="195" y="702" type="line"/>
      <point x="527" y="130" type="line"/>
      <point x="527" y="702" type="line"/>
      <point x="601" y="702" type="line"/>
    </contour>
  </outline>
</glyph>
<glyph name="O" format="2">
  <advance width="675"/>
  <unicode hex="004F"/>
  <outline>
    <contour>
      <point x="623" y="359" type="curve" smooth="yes"/>
      <point x="623" y="258.333"/>
      <point x="598" y="172.667"/>
      <point x="548" y="102" type="curve" smooth="yes"/>
      <point x="495.333" y="27.3333"/>
      <point x="424.333" y="-10"/>
      <point x="335" y="-10" type="curve" smooth="yes"/>
      <point x="229.667" y="-10"/>
      <point x="150.667" y="36"/>
      <point x="98" y="128" type="curve" smooth="yes"/>
      <point x="62.6667" y="189.333"/>
      <point x="45" y="262"/>
      <point x="45" y="346" type="curve" smooth="yes"/>
      <point x="45" y="452.667"/>
      <point x="71.3333" y="540.333"/>
      <point x="124" y="609" type="curve" smooth="yes"/>
      <point x="176" y="678.333"/>
      <point x="246" y="713"/>
      <point x="334" y="713" type="curve" smooth="yes"/>
      <point x="435.333" y="713"/>
      <point x="512.667" y="668.667"/>
      <point x="566" y="580" type="curve" smooth="yes"/>
      <point x="604" y="516.667"/>
      <point x="623" y="443"/>
    </contour>
    <contour>
      <point x="530" y="354" type="curve" smooth="yes"/>
      <point x="530" y="448.667"/>
      <point x="509.333" y="522.333"/>
      <point x="468" y="575" type="curve" smooth="yes"/>
      <point x="435.333" y="618.333"/>
      <point x="391.667" y="640"/>
      <point x="337" y="640" type="curve" smooth="yes"/>
      <point x="250.333" y="640"/>
      <point x="191" y="590.667"/>
      <point x="159" y="492" type="curve" smooth="yes"/>
      <point x="144.333" y="448"/>
      <point x="137" y="399"/>
      <point x="137" y="345" type="curve" smooth="yes"/>
      <point x="137" y="257.667"/>
      <point x="157" y="187"/>
      <point x="197" y="133" type="curve" smooth="yes"/>
      <point x="231.667" y="85"/>
      <point x="277.667" y="61"/>
      <point x="335" y="61" type="curve" smooth="yes"/>
      <point x="417" y="61"/>
      <point x="474.333" y="108.333"/>
      <point x="507" y="203" type="curve" smooth="yes"/>
      <point x="522.333" y="248.333"/>
      <point x="530" y="298.667"/>
    </contour>
  </outline>
</glyph>
<glyph name="P" format="2">
  <advance width="573" height="573"/>
  <unicode hex="0050"/>
  <outline>
    <contour>
      <point x="542" y="492" type="curve" smooth="yes"/>
      <point x="542" y="436"/>
      <point x="523" y="388"/>
      <point x="485" y="348" type="curve" smooth="yes"/>
      <point x="480" y="343" type="line" smooth="yes"/>
      <point x="441.333" y="305"/>
      <point x="385" y="286"/>
      <point x="311" y="286" type="curve" smooth="yes"/>
      <point x="154" y="286" type="line"/>
      <point x="154" y="0" type="line"/>
      <point x="66" y="0" type="line"/>
      <point x="66" y="702" type="line"/>
      <point x="301" y="702" type="line" smooth="yes"/>
      <point x="376.333" y="702"/>
      <point x="432.667" y="686.333"/>
      <point x="470" y="655" type="curve" smooth="yes"/>
      <point x="510" y="621.667"/>
      <point x="533.667" y="575"/>
      <point x="541" y="515" type="curve" smooth="yes"/>
      <point x="541.667" y="507"/>
      <point x="542" y="499.333"/>
    </contour>
    <contour>
      <point x="453" y="492" type="curve" smooth="yes"/>
      <point x="453" y="557.333"/>
      <point x="425.333" y="600"/>
      <point x="370" y="620" type="curve" smooth="yes"/>
      <point x="351.333" y="626"/>
      <point x="330.667" y="629"/>
      <point x="308" y="629" type="curve" smooth="yes"/>
      <point x="154" y="629" type="line"/>
      <point x="154" y="358" type="line"/>
      <point x="302" y="358" type="line" smooth="yes"/>
      <point x="375.333" y="358"/>
      <point x="422" y="383.667"/>
      <point x="442" y="435" type="curve" smooth="yes"/>
      <point x="449.333" y="451.667"/>
      <point x="453" y="470.667"/>
    </contour>
  </outline>
</glyph>
<glyph name="Q" format="2">
  <advance width="675" height="675"/>
  <unicode hex="0051"/>
  <outline>
    <contour>
      <point x="626" y="351" type="curve" smooth="yes"/>
      <point x="626" y="244.333"/>
      <point x="599.333" y="157.667"/>
      <point x="546" y="91" type="curve" smooth="yes"/>
      <point x="508.667" y="45.6667"/>
      <point x="462.333" y="15.6667"/>
      <point x="407" y="1" type="curve"/>
      <point x="407" y="-14" type="line" smooth="yes"/>
      <point x="407" y="-55.3333"/>
      <point x="425" y="-80"/>
      <point x="461" y="-88" type="curve" smooth="yes"/>
      <point x="468.333" y="-90"/>
      <point x="476.333" y="-91"/>
      <point x="485" y="-91" type="curve" smooth="yes"/>
      <point x="500.333" y="-91"/>
      <point x="532" y="-88.6667"/>
      <point x="580" y="-84" type="curve"/>
      <point x="580" y="-154" type="line"/>
      <point x="553.333" y="-162.667"/>
      <point x="528" y="-167"/>
      <point x="504" y="-167" type="curve" smooth="yes"/>
      <point x="412" y="-167"/>
      <point x="357.333" y="-129.667"/>
      <point x="340" y="-55" type="curve" smooth="yes"/>
      <point x="336.667" y="-41"/>
      <point x="335" y="-26"/>
      <point x="335" y="-10" type="curve"/>
      <point x="223.667" y="-7.33333"/>
      <point x="142.333" y="41"/>
      <point x="91" y="135" type="curve" smooth="yes"/>
      <point x="58.3333" y="195"/>
      <point x="42" y="265.333"/>
      <point x="42" y="346" type="curve" smooth="yes"/>
      <point x="42" y="456"/>
      <point x="69.3333" y="545"/>
      <point x="124" y="613" type="curve" smooth="yes"/>
      <point x="176.667" y="679.667"/>
      <point x="246.667" y="713"/>
      <point x="334" y="713" type="curve" smooth="yes"/>
      <point x="440.667" y="713"/>
      <point x="520" y="666"/>
      <point x="572" y="572" type="curve" smooth="yes"/>
      <point x="608" y="509.333"/>
      <point x="626" y="435.667"/>
    </contour>
    <contour>
      <point x="530" y="349" type="curve" smooth="yes"/>
      <point x="530" y="481.667"/>
      <point x="496" y="568.667"/>
      <point x="428" y="610" type="curve" smooth="yes"/>
      <point x="401.333" y="626.667"/>
      <point x="369.667" y="635"/>
      <point x="333" y="635" type="curve" smooth="yes"/>
      <point x="233.667" y="635"/>
      <point x="171.667" y="576.333"/>
      <point x="147" y="459" type="curve" smooth="yes"/>
      <point x="139.667" y="424.333"/>
      <point x="136" y="386"/>
      <point x="136" y="344" type="curve" smooth="yes"/>
      <point x="136" y="238.667"/>
      <point x="159.667" y="161.333"/>
      <point x="207" y="112" type="curve" smooth="yes"/>
      <point x="238.333" y="78.6667"/>
      <point x="278.333" y="62"/>
      <point x="327" y="62" type="curve" smooth="yes"/>
      <point x="425" y="62"/>
      <point x="488" y="116.333"/>
      <point x="516" y="225" type="curve" smooth="yes"/>
      <point x="525.333" y="263"/>
      <point x="530" y="304.333"/>
    </contour>
  </outline>
</glyph>
<glyph name="R" format="2">
  <advance width="634" height="634"/>
  <unicode hex="0052"/>
  <outline>
    <contour>
      <point x="588" y="0" type="line"/>
      <point x="496" y="0" type="line"/>
      <point x="366" y="304" type="line"/>
      <point x="171" y="304" type="line"/>
      <point x="171" y="0" type="line"/>
      <point x="83" y="0" type="line"/>
      <point x="83" y="702" type="line"/>
      <point x="346" y="702" type="line" smooth="yes"/>
      <point x="436" y="702"/>
      <point x="502" y="676"/>
      <point x="544" y="624" type="curve" smooth="yes"/>
      <point x="563.333" y="598.667"/>
      <point x="575.333" y="568"/>
      <point x="580" y="532" type="curve" smooth="yes"/>
      <point x="580.667" y="524"/>
      <point x="581" y="515.333"/>
      <point x="581" y="506" type="curve" smooth="yes"/>
      <point x="581" y="445.333"/>
      <point x="559" y="396.333"/>
      <point x="515" y="359" type="curve" smooth="yes"/>
      <point x="495.667" y="343.667"/>
      <point x="474" y="332.667"/>
      <point x="450" y="326" type="curve"/>
    </contour>
    <contour>
      <point x="493" y="507" type="curve" smooth="yes"/>
      <point x="493" y="577"/>
      <point x="454.333" y="616.333"/>
      <point x="377" y="625" type="curve" smooth="yes"/>
      <point x="367" y="626.333"/>
      <point x="356.667" y="627"/>
      <point x="346" y="627" type="curve" smooth="yes"/>
      <point x="171" y="627" type="line"/>
      <point x="171" y="376" type="line"/>
      <point x="336" y="376" type="line" smooth="yes"/>
      <point x="422" y="376"/>
      <point x="472.333" y="406.333"/>
      <point x="487" y="467" type="curve" smooth="yes"/>
      <point x="491" y="479"/>
      <point x="493" y="492.333"/>
    </contour>
  </outline>
</glyph>
<glyph name="S" format="2">
  <advance width="634"/>
  <unicode hex="0053"/>
  <outline>
    <contour>
      <point x="590" y="201" type="curve" smooth="yes"/>
      <point x="590" y="114.333"/>
      <point x="549.667" y="53"/>
      <point x="469" y="17" type="curve" smooth="yes"/>
      <point x="427.667" y="-1"/>
      <point x="380.667" y="-10"/>
      <point x="328" y="-10" type="curve" smooth="yes"/>
      <point x="184" y="-10"/>
      <point x="89" y="56.3333"/>
      <point x="43" y="189" type="curve"/>
      <point x="122" y="207" type="line"/>
      <point x="143.333" y="134.333"/>
      <point x="191.333" y="89.3333"/>
      <point x="266" y="72" type="curve" smooth="yes"/>
      <point x="286" y="67.3333"/>
      <point x="307.333" y="65"/>
      <point x="330" y="65" type="curve" smooth="yes"/>
      <point x="398" y="65"/>
      <point x="446.667" y="83.3333"/>
      <point x="476" y="120" type="curve" smooth="yes"/>
      <point x="491.333" y="138.667"/>
      <point x="499" y="161.667"/>
      <point x="499" y="189" type="curve" smooth="yes"/>
      <point x="499" y="237"/>
      <point x="468.667" y="272.667"/>
      <point x="408" y="296" type="curve"/>
      <point x="343" y="314" type="line" smooth="yes"/>
      <point x="264.333" y="334"/>
      <point x="221.333" y="345.333"/>
      <point x="214" y="348" type="curve" smooth="yes"/>
      <point x="179.333" y="359.333"/>
      <point x="153" y="373"/>
      <point x="135" y="389" type="curve" smooth="yes"/>
      <point x="97" y="423"/>
      <point x="78" y="466.333"/>
      <point x="78" y="519" type="curve" smooth="yes"/>
      <point x="78" y="599"/>
      <point x="115" y="655.333"/>
      <point x="189" y="688" type="curve" smooth="yes"/>
      <point x="227" y="704.667"/>
      <point x="269.333" y="713"/>
      <point x="316" y="713" type="curve" smooth="yes"/>
      <point x="412.667" y="713"/>
      <point x="485.333" y="678"/>
      <point x="534" y="608" type="curve"/>
      <point x="554" y="571" type="line" smooth="yes"/>
      <point x="558.667" y="561.667"/>
      <point x="562.667" y="551.667"/>
      <point x="566" y="541" type="curve"/>
      <point x="486" y="519" type="line"/>
      <point x="477.333" y="565"/>
      <point x="448" y="600"/>
      <point x="398" y="624" type="curve" smooth="yes"/>
      <point x="371.333" y="636.667"/>
      <point x="343.333" y="643"/>
      <point x="314" y="643" type="curve" smooth="yes"/>
      <point x="265.333" y="643"/>
      <point x="225.667" y="629"/>
      <point x="195" y="601" type="curve" smooth="yes"/>
      <point x="174.333" y="581.667"/>
      <point x="164" y="558.333"/>
      <point x="164" y="531" type="curve" smooth="yes"/>
      <point x="164" y="485"/>
      <point x="192.667" y="451.333"/>
      <point x="250" y="430" type="curve" smooth="yes"/>
      <point x="264" y="425.333"/>
      <point x="308.333" y="414.333"/>
      <point x="383" y="397" type="curve" smooth="yes"/>
      <point x="449.667" y="381.667"/>
      <point x="496.667" y="362.667"/>
      <point x="524" y="340" type="curve" smooth="yes"/>
      <point x="568" y="304.667"/>
      <point x="590" y="258.333"/>
    </contour>
  </outline>
</glyph>
<glyph name="bracketleft" format="2">
  <advance width="307" height="307"/>
  <unicode hex="005B"/>
  <outline>
    <contour>
      <point x="249" y="-175" type="line"/>
      <point x="67" y="-175" type="line"/>
      <point x="67" y="702" type="line"/>
      <point x="249" y="702" type="line"/>
      <point x="249" y="650" type="line"/>
      <point x="137" y="650" type="line"/>
      <point x="137" y="-120" type="line"/>
      <point x="249" y="-120" type="line"/>
    </contour>
  </outline>
</glyph>
<glyph name="bracketright" format="2">
  <advance width="307"/>
  <unicode hex="005D"/>
  <outline>
    <contour>
      <point x="249" y="-175" type="line"/>
      <point x="67" y="-175" type="line"/>
      <point x="67" y="-120" type="line"/>
      <point x="178" y="-120" type="line"/>
      <point x="178" y="650" type="line"/>
      <point x="67" y="650" type="line"/>
      <point x="67" y="702" type="line"/>
      <point x="249" y="702" type="line"/>
    </contour>
  </outline>
</glyph>
<glyph name="grave" format="2">
  <advance width="389"/>
  <unicode hex="0060"/>
  <outline>
    <contour>
      <point x="311" y="611" type="line"/>
      <point x="291" y="570" type="line"/>
      <point x="71" y="667" type="line"/>
      <point x="105" y="733" type="line"/>
    </contour>
  </outline>
</glyph>
<glyph name="b" format="2">
  <advance width="552"/>
  <unicode hex="0062"/>
  <outline>
    <contour>
      <point x="509" y="267" type="curve" smooth="yes"/>
      <point x="509" y="179.667"/>
      <point x="486.333" y="109.667"/>
      <point x="441" y="57" type="curve" smooth="yes"/>
      <point x="403" y="12.3333"/>
      <point x="353.333" y="-10"/>
      <point x="292" y="-10" type="curve" smooth="yes"/>
      <point x="236.667" y="-10"/>
      <point x="190.333" y="12.6667"/>
      <point x="153" y="58" type="curve" smooth="yes"/>
      <point x="145" y="68"/>
      <point x="138" y="78.3333"/>
      <point x="132" y="89" type="curve"/>
      <point x="102" y="0" type="line"/>
      <point x="63" y="0" type="line"/>
      <point x="63" y="702" type="line"/>
      <point x="143" y="702" type="line"/>
      <point x="143" y="434" type="line"/>
      <point x="147" y="434" type="line"/>
      <point x="182.333" y="500.667"/>
      <point x="233.333" y="534"/>
      <point x="300" y="534" type="curve" smooth="yes"/>
      <point x="380" y="534"/>
      <point x="438.667" y="495.667"/>
      <point x="476" y="419" type="curve" smooth="yes"/>
      <point x="498" y="373.667"/>
      <point x="509" y="323"/>
    </contour>
    <contour>
      <point x="423" y="254" type="curve" smooth="yes"/>
      <point x="423" y="339.333"/>
      <point x="403.667" y="400.667"/>
      <point x="365" y="438" type="curve"/>
      <point x="344" y="454" type="line" smooth="yes"/>
      <point x="326.667" y="464"/>
      <point x="307.333" y="469"/>
      <point x="286" y="469" type="curve" smooth="yes"/>
      <point x="240.667" y="469"/>
      <point x="203" y="447.333"/>
      <point x="173" y="404" type="curve" smooth="yes"/>
      <point x="153" y="374.667"/>
      <point x="143" y="343.333"/>
      <point x="143" y="310" type="curve" smooth="yes"/>
      <point x="143" y="218" type="line" smooth="yes"/>
      <point x="143" y="161.333"/>
      <point x="161.667" y="117.333"/>
      <point x="199" y="86" type="curve" smooth="yes"/>
      <point x="222.333" y="64.6667"/>
      <point x="251.333" y="54"/>
      <point x="286" y="54" type="curve" smooth="yes"/>
      <point x="348.667" y="54"/>
      <point x="390.667" y="91"/>
      <point x="412" y="165" type="curve" smooth="yes"/>
      <point x="419.333" y="192.333"/>
      <point x="423" y="222"/>
    </contour>
  </outline>
</glyph>
<glyph name="c" format="2">
  <advance width="491"/>
  <unicode hex="0063"/>
  <outline>
    <contour>
      <point x="457" y="172" type="line"/>
      <point x="443" y="94.6667"/>
      <point x="407" y="41"/>
      <point x="349" y="11" type="curve" smooth="yes"/>
      <point x="321" y="-3"/>
      <point x="290" y="-10"/>
      <point x="256" y="-10" type="curve" smooth="yes"/>
      <point x="169.333" y="-10"/>
      <point x="106.667" y="29.3333"/>
      <point x="68" y="108" type="curve" smooth="yes"/>
      <point x="46" y="152"/>
      <point x="35" y="202.667"/>
      <point x="35" y="260" type="curve" smooth="yes"/>
      <point x="35" y="348.667"/>
      <point x="58.6667" y="418.667"/>
      <point x="106" y="470" type="curve" smooth="yes"/>
      <point x="145.333" y="512.667"/>
      <point x="195.667" y="534"/>
      <point x="257" y="534" type="curve" smooth="yes"/>
      <point x="338.333" y="534"/>
      <point x="396.667" y="499.667"/>
      <point x="432" y="431" type="curve" smooth="yes"/>
      <point x="444" y="407.667"/>
      <point x="452.333" y="381.667"/>
      <point x="457" y="353" type="curve"/>
      <point x="383" y="340" type="line"/>
      <point x="377.667" y="394"/>
      <point x="355" y="431.667"/>
      <point x="315" y="453" type="curve" smooth="yes"/>
      <point x="303" y="459.667"/>
      <point x="289" y="463.667"/>
      <point x="273" y="465" type="curve" smooth="yes"/>
      <point x="268.333" y="465.667"/>
      <point x="263.667" y="466"/>
      <point x="259" y="466" type="curve" smooth="yes"/>
      <point x="195" y="466"/>
      <point x="152.333" y="428.333"/>
      <point x="131" y="353" type="curve" smooth="yes"/>
      <point x="123.667" y="325.667"/>
      <point x="120" y="296.333"/>
      <point x="120" y="265" type="curve" smooth="yes"/>
      <point x="120" y="180.333"/>
      <point x="139.667" y="120.333"/>
      <point x="179" y="85" type="curve" smooth="yes"/>
      <point x="199.667" y="67"/>
      <point x="224.667" y="58"/>
      <point x="254" y="58" type="curve" smooth="yes"/>
      <point x="318.667" y="58"/>
      <point x="360.667" y="95.6667"/>
      <point x="380" y="171" type="curve" smooth="yes"/>
      <point x="381.333" y="175.667"/>
      <point x="382.333" y="180.333"/>
      <point x="383" y="185" type="curve"/>
    </contour>
  </outline>
</glyph>
<glyph name="d" format="2">
  <advance width="552" height="552"/>
  <unicode hex="0064"/>
  <outline>
    <contour>
      <point x="484" y="0" type="line"/>
      <point x="412" y="0" type="line"/>
      <point x="412" y="92" type="line"/>
      <point x="410" y="92" type="line"/>
      <point x="376" y="24"/>
      <point x="321.667" y="-10"/>
      <point x="247" y="-10" type="curve" smooth="yes"/>
      <point x="168.333" y="-10"/>
      <point x="110.333" y="28.6667"/>
      <point x="73" y="106" type="curve" smooth="yes"/>
      <point x="50.3333" y="152"/>
      <point x="39" y="203.333"/>
      <point x="39" y="260" type="curve" smooth="yes"/>
      <point x="39" y="345.333"/>
      <point x="61.3333" y="414.333"/>
      <point x="106" y="467" type="curve" smooth="yes"/>
      <point x="144.667" y="511.667"/>
      <point x="194" y="534"/>
      <point x="254" y="534" type="curve" smooth="yes"/>
      <point x="314.667" y="534"/>
      <point x="364.667" y="506"/>
      <point x="404" y="450" type="curve"/>
      <point x="404" y="702" type="line"/>
      <point x="484" y="702" type="line"/>
    </contour>
    <contour>
      <point x="404" y="225" type="curve" smooth="yes"/>
      <point x="404" y="308" type="line" smooth="yes"/>
      <point x="404" y="374.667"/>
      <point x="382.333" y="422"/>
      <point x="339" y="450" type="curve" smooth="yes"/>
      <point x="317" y="463.333"/>
      <point x="291" y="470"/>
      <point x="261" y="470" type="curve" smooth="yes"/>
      <point x="201.667" y="470"/>
      <point x="161" y="434.667"/>
      <point x="139" y="364" type="curve" smooth="yes"/>
      <point x="129.667" y="334"/>
      <point x="125" y="302.333"/>
      <point x="125" y="269" type="curve" smooth="yes"/>
      <point x="125" y="172.333"/>
      <point x="148" y="108"/>
      <point x="194" y="76" type="curve" smooth="yes"/>
      <point x="212" y="62.6667"/>
      <point x="233.667" y="56"/>
      <point x="259" y="56" type="curve" smooth="yes"/>
      <point x="312.333" y="56"/>
      <point x="353" y="81"/>
      <point x="381" y="131" type="curve" smooth="yes"/>
      <point x="396.333" y="159.667"/>
      <point x="404" y="191"/>
    </contour>
  </outline>
</glyph>
<glyph name="f" format="2">
  <advance width="307"/>
  <unicode hex="0066"/>
  <outline>
    <contour>
      <point x="334" y="641" type="line"/>
      <point x="305.333" y="646.333"/>
      <point x="283.333" y="649"/>
      <point x="268" y="649" type="curve" smooth="yes"/>
      <point x="222.667" y="649"/>
      <point x="195.333" y="630.333"/>
      <point x="186" y="593" type="curve" smooth="yes"/>
      <point x="183.333" y="579.667"/>
      <point x="182" y="562.333"/>
      <point x="182" y="541" type="curve" smooth="yes"/>
      <point x="182" y="520" type="line"/>
      <point x="303" y="520" type="line"/>
      <point x="303" y="457" type="line"/>
      <point x="182" y="457" type="line"/>
      <point x="182" y="0" type="line"/>
      <point x="102" y="0" type="line"/>
      <point x="102" y="457" type="line"/>
      <point x="10" y="457" type="line"/>
      <point x="10" y="520" type="line"/>
      <point x="102" y="520" type="line"/>
      <point x="102" y="536" type="line" smooth="yes"/>
      <point x="102" y="636.667"/>
      <point x="136.333" y="694.667"/>
      <point x="205" y="710" type="curve" smooth="yes"/>
      <point x="216.333" y="712.667"/>
      <point x="228.333" y="714"/>
      <point x="241" y="714" type="curve" smooth="yes"/>
      <point x="248.333" y="714"/>
      <point x="279.333" y="711.333"/>
      <point x="334" y="706" type="curve"/>
    </contour>
  </outline>
</glyph>
<glyph name="g" format="2">
  <advance width="512" height="512"/>
  <unicode hex="0067"/>
  <outline>
    <contour>
      <point x="511" y="-47" type="curve" smooth="yes"/>
      <point x="511" y="-147"/>
      <point x="425.333" y="-197"/>
      <point x="254" y="-197" type="curve" smooth="yes"/>
      <point x="92.6667" y="-197"/>
      <point x="12" y="-151.667"/>
      <point x="12" y="-61" type="curve" smooth="yes"/>
      <point x="12" y="-9.66667"/>
      <point x="38.3333" y="25.3333"/>
      <point x="91" y="44" type="curve"/>
      <point x="57.6667" y="65.3333"/>
      <point x="41" y="92.6667"/>
      <point x="41" y="126" type="curve" smooth="yes"/>
      <point x="41" y="162.667"/>
      <point x="60" y="191.333"/>
      <point x="98" y="212" type="curve" smooth="yes"/>
      <point x="102" y="214"/>
      <point x="107" y="216.333"/>
      <point x="113" y="219" type="curve"/>
      <point x="67.6667" y="254.333"/>
      <point x="45" y="300"/>
      <point x="45" y="356" type="curve" smooth="yes"/>
      <point x="45" y="420.667"/>
      <point x="72.6667" y="469.667"/>
      <point x="128" y="503" type="curve" smooth="yes"/>
      <point x="162" y="523.667"/>
      <point x="201" y="534"/>
      <point x="245" y="534" type="curve" smooth="yes"/>
      <point x="283" y="534"/>
      <point x="318" y="526.333"/>
      <point x="350" y="511" type="curve"/>
      <point x="358" y="558.333"/>
      <point x="379.333" y="586.667"/>
      <point x="414" y="596" type="curve" smooth="yes"/>
      <point x="426" y="599.333"/>
      <point x="440" y="601"/>
      <point x="456" y="601" type="curve" smooth="yes"/>
      <point x="471.333" y="601"/>
      <point x="482.667" y="600.667"/>
      <point x="490" y="600" type="curve"/>
      <point x="492" y="536" type="line"/>
      <point x="450.667" y="536"/>
      <point x="423.667" y="530"/>
      <point x="411" y="518" type="curve" smooth="yes"/>
      <point x="399" y="504" type="line"/>
      <point x="392" y="481" type="line" smooth="yes"/>
      <point x="391.333" y="479"/>
      <point x="391" y="477.333"/>
      <point x="391" y="476" type="curve" smooth="yes"/>
      <point x="424.333" y="439.333"/>
      <point x="441" y="396.667"/>
      <point x="441" y="348" type="curve" smooth="yes"/>
      <point x="441" y="286"/>
      <point x="412.667" y="239"/>
      <point x="356" y="207" type="curve" smooth="yes"/>
      <point x="322" y="187.667"/>
      <point x="284.333" y="178"/>
      <point x="243" y="178" type="curve"/>
      <point x="173" y="186" type="line"/>
      <point x="172" y="186" type="line" smooth="yes"/>
      <point x="152" y="186"/>
      <point x="136.333" y="178"/>
      <point x="125" y="162" type="curve" smooth="yes"/>
      <point x="119.667" y="154.667"/>
      <point x="117" y="146.667"/>
      <point x="117" y="138" type="curve" smooth="yes"/>
      <point x="117" y="115.333"/>
      <point x="130" y="100.667"/>
      <point x="156" y="94" type="curve" smooth="yes"/>
      <point x="179.333" y="87.3333"/>
      <point x="225.333" y="84.3333"/>
      <point x="294" y="85" type="curve" smooth="yes"/>
      <point x="355.333" y="85"/>
      <point x="401" y="79.3333"/>
      <point x="431" y="68" type="curve" smooth="yes"/>
      <point x="469" y="52.6667"/>
      <point x="494" y="26"/>
      <point x="506" y="-12" type="curve" smooth="yes"/>
      <point x="509.333" y="-24"/>
      <point x="511" y="-35.6667"/>
    </contour>
    <contour>
      <point x="360" y="356" type="curve" smooth="yes"/>
      <point x="360" y="398"/>
      <point x="342.667" y="430.333"/>
      <point x="308" y="453" type="curve" smooth="yes"/>
      <point x="289.333" y="464.333"/>
      <point x="268.333" y="470"/>
      <point x="245" y="470" type="curve" smooth="yes"/>
      <point x="199" y="470"/>
      <point x="165.333" y="452.333"/>
      <point x="144" y="417" type="curve" smooth="yes"/>
      <point x="133.333" y="398.333"/>
      <point x="128" y="377.667"/>
      <point x="128" y="355" type="curve" smooth="yes"/>
      <point x="128" y="303.667"/>
      <point x="149" y="269"/>
      <point x="191" y="251" type="curve" smooth="yes"/>
      <point x="207" y="244.333"/>
      <point x="225" y="241"/>
      <point x="245" y="241" type="curve" smooth="yes"/>
      <point x="294.333" y="241"/>
      <point x="328.667" y="260.667"/>
      <point x="348" y="300" type="curve" smooth="yes"/>
      <point x="356" y="317.333"/>
      <point x="360" y="336"/>
    </contour>
    <contour>
      <point x="434" y="-50" type="curve" smooth="yes"/>
      <point x="434" y="-10.6667"/>
      <point x="394.333" y="9.66667"/>
      <point x="315" y="11" type="curve" smooth="yes"/>
      <point x="272" y="12" type="line" smooth="yes"/>
      <point x="246" y="13.3333"/>
      <point x="204.333" y="16"/>
      <point x="147" y="20" type="curve"/>
      <point x="109.667" y="2.66667"/>
      <point x="91" y="-20.6667"/>
      <point x="91" y="-50" type="curve" smooth="yes"/>
      <point x="91" y="-95.3333"/>
      <point x="130.667" y="-122.333"/>
      <point x="210" y="-131" type="curve" smooth="yes"/>
      <point x="224.667" y="-133"/>
      <point x="239.667" y="-134"/>
      <point x="255" y="-134" type="curve" smooth="yes"/>
      <point x="354.333" y="-134"/>
      <point x="412.667" y="-114"/>
      <point x="430" y="-74" type="curve" smooth="yes"/>
      <point x="432.667" y="-66"/>
      <point x="434" y="-58"/>
    </contour>
  </outline>
</glyph>
<glyph name="h" format="2">
  <advance width="552" height="552"/>
  <unicode hex="0068"/>
  <outline>
    <contour>
      <point x="481" y="0" type="line"/>
      <point x="401" y="0" type="line"/>
      <point x="401" y="303" type="line" smooth="yes"/>
      <point x="401" y="371.667"/>
      <point x="390.667" y="417.333"/>
      <point x="370" y="440" type="curve"/>
      <point x="353" y="455" type="line"/>
      <point x="330" y="464" type="line" smooth="yes"/>
      <point x="320" y="466.667"/>
      <point x="309" y="468"/>
      <point x="297" y="468" type="curve" smooth="yes"/>
      <point x="257.667" y="468"/>
      <point x="222.333" y="449.667"/>
      <point x="191" y="413" type="curve"/>
      <point x="165.667" y="375.667"/>
      <point x="152.667" y="327"/>
      <point x="152" y="267" type="curve" smooth="yes"/>
      <point x="152" y="0" type="line"/>
      <point x="72" y="0" type="line"/>
      <point x="72" y="702" type="line"/>
      <point x="152" y="702" type="line"/>
      <point x="152" y="424" type="line"/>
      <point x="155" y="424" type="line"/>
      <point x="189" y="497.333"/>
      <point x="242.667" y="534"/>
      <point x="316" y="534" type="curve" smooth="yes"/>
      <point x="394" y="534"/>
      <point x="445" y="497.333"/>
      <point x="469" y="424" type="curve" smooth="yes"/>
      <point x="477" y="398.667"/>
      <point x="481" y="370.333"/>
      <point x="481" y="339" type="curve" smooth="yes"/>
    </contour>
  </outline>
</glyph>
<glyph name="i" format="2">
  <advance width="245"/>
  <unicode hex="0069"/>
  <outline>
    <contour>
      <point x="167" y="612" type="line"/>
      <point x="79" y="612" type="line"/>
      <point x="79" y="702" type="line"/>
      <point x="167" y="702" type="line"/>
    </contour>
    <contour>
      <point x="163" y="0" type="line"/>
      <point x="83" y="0" type="line"/>
      <point x="83" y="520" type="line"/>
      <point x="163" y="520" type="line"/>
    </contour>
  </outline>
</glyph>
<glyph name="j" format="2">
  <advance width="225" height="225"/>
  <unicode hex="006A"/>
  <outline>
    <contour>
      <point x="152" y="612" type="line"/>
      <point x="63" y="612" type="line"/>
      <point x="63" y="702" type="line"/>
      <point x="152" y="702" type="line"/>
    </contour>
    <contour>
      <point x="146" y="-9" type="line" smooth="yes"/>
      <point x="146" y="-107.667"/>
      <point x="112.333" y="-164.333"/>
      <point x="45" y="-179" type="curve" smooth="yes"/>
      <point x="31" y="-182.333"/>
      <point x="15.3333" y="-184"/>
      <point x="-2" y="-184" type="curve" smooth="yes"/>
      <point x="-25.3333" y="-184"/>
      <point x="-50.6667" y="-180.667"/>
      <point x="-78" y="-174" type="curve"/>
      <point x="-78" y="-110" type="line"/>
      <point x="-57.3333" y="-115.333"/>
      <point x="-37.6667" y="-118"/>
      <point x="-19" y="-118" type="curve" smooth="yes"/>
      <point x="25" y="-118"/>
      <point x="51.6667" y="-101.333"/>
      <point x="61" y="-68" type="curve" smooth="yes"/>
      <point x="65" y="-54.6667"/>
      <point x="67" y="-35"/>
      <point x="67" y="-9" type="curve" smooth="yes"/>
      <point x="67" y="520" type="line"/>
      <point x="146" y="520" type="line"/>
    </contour>
  </outline>
</glyph>
<glyph name="k" format="2">
  <advance width="512"/>
  <unicode hex="006B"/>
  <outline>
    <contour>
      <point x="504" y="0" type="line"/>
      <point x="419" y="0" type="line"/>
      <point x="267" y="290" type="line"/>
      <point x="156" y="161" type="line"/>
      <point x="156" y="0" type="line"/>
      <point x="76" y="0" type="line"/>
      <point x="76" y="702" type="line"/>
      <point x="156" y="702" type="line"/>
      <point x="156" y="253" type="line"/>
      <point x="396" y="518" type="line"/>
      <point x="482" y="518" type="line"/>
      <point x="321" y="336" type="line"/>
    </contour>
  </outline>
</glyph>
<glyph name="l" format="2">
  <advance width="245"/>
  <unicode hex="006C"/>
  <outline>
    <contour>
      <point x="163" y="0" type="line"/>
      <point x="83" y="0" type="line"/>
      <point x="83" y="702" type="line"/>
      <point x="163" y="702" type="line"/>
    </contour>
  </outline>
</glyph>
<glyph name="m" format="2">
  <advance width="839" height="839"/>
  <unicode hex="006D"/>
  <outline>
    <contour>
      <point x="770" y="0" type="line"/>
      <point x="690" y="0" type="line"/>
      <point x="690" y="331" type="line" smooth="yes"/>
      <point x="690" y="405"/>
      <point x="667" y="449.333"/>
      <point x="621" y="464" type="curve" smooth="yes"/>
      <point x="611" y="466.667"/>
      <point x="600.333" y="468"/>
      <point x="589" y="468" type="curve" smooth="yes"/>
      <point x="549.667" y="468"/>
      <point x="516" y="448.667"/>
      <point x="488" y="410" type="curve" smooth="yes"/>
      <point x="470" y="382.667"/>
      <point x="460.667" y="345.333"/>
      <point x="460" y="298" type="curve" smooth="yes"/>
      <point x="460" y="281" type="line"/>
      <point x="460" y="0" type="line"/>
      <point x="380" y="0" type="line"/>
      <point x="380" y="330" type="line" smooth="yes"/>
      <point x="380" y="403.333"/>
      <point x="356.333" y="447.667"/>
      <point x="309" y="463" type="curve" smooth="yes"/>
      <point x="299" y="466.333"/>
      <point x="287.667" y="468"/>
      <point x="275" y="468" type="curve" smooth="yes"/>
      <point x="242.333" y="468"/>
      <point x="212.667" y="453"/>
      <point x="186" y="423" type="curve" smooth="yes"/>
      <point x="184" y="421"/>
      <point x="182.333" y="419"/>
      <point x="181" y="417" type="curve" smooth="yes"/>
      <point x="160.333" y="390.333"/>
      <point x="150" y="350.667"/>
      <point x="150" y="298" type="curve" smooth="yes"/>
      <point x="150" y="0" type="line"/>
      <point x="70" y="0" type="line"/>
      <point x="70" y="520" type="line"/>
      <point x="142" y="520" type="line"/>
      <point x="142" y="420" type="line"/>
      <point x="144" y="420" type="line"/>
      <point x="165.333" y="470.667"/>
      <point x="199" y="505"/>
      <point x="245" y="523" type="curve" smooth="yes"/>
      <point x="262.333" y="530.333"/>
      <point x="280.667" y="534"/>
      <point x="300" y="534" type="curve" smooth="yes"/>
      <point x="355.333" y="534"/>
      <point x="397.333" y="510"/>
      <point x="426" y="462" type="curve" smooth="yes"/>
      <point x="435.333" y="446"/>
      <point x="442" y="428.667"/>
      <point x="446" y="410" type="curve"/>
      <point x="470" y="469.333"/>
      <point x="508.333" y="507.667"/>
      <point x="561" y="525" type="curve" smooth="yes"/>
      <point x="578.333" y="531"/>
      <point x="596" y="534"/>
      <point x="614" y="534" type="curve" smooth="yes"/>
      <point x="659.333" y="534"/>
      <point x="697.667" y="516.333"/>
      <point x="729" y="481" type="curve"/>
      <point x="745" y="459" type="line"/>
      <point x="761.667" y="431"/>
      <point x="770" y="387.333"/>
      <point x="770" y="328" type="curve" smooth="yes"/>
    </contour>
  </outline>
</glyph>
<glyph name="n" format="2">
  <advance width="552"/>
  <unicode hex="006E"/>
  <outline>
    <contour>
      <point x="482" y="0" type="line"/>
      <point x="402" y="0" type="line"/>
      <point x="402" y="322" type="line" smooth="yes"/>
      <point x="402" y="366"/>
      <point x="398.333" y="396"/>
      <point x="391" y="412" type="curve" smooth="yes"/>
      <point x="390.333" y="414"/>
      <point x="389.333" y="416"/>
      <point x="388" y="418" type="curve" smooth="yes"/>
      <point x="373.333" y="444"/>
      <point x="348.333" y="459.333"/>
      <point x="313" y="464" type="curve" smooth="yes"/>
      <point x="308.333" y="464.667"/>
      <point x="303.667" y="465"/>
      <point x="299" y="465" type="curve" smooth="yes"/>
      <point x="234.333" y="465"/>
      <point x="190" y="432"/>
      <point x="166" y="366" type="curve" smooth="yes"/>
      <point x="156" y="337.333"/>
      <point x="151" y="306"/>
      <point x="151" y="272" type="curve" smooth="yes"/>
      <point x="151" y="0" type="line"/>
      <point x="71" y="0" type="line"/>
      <point x="71" y="520" type="line"/>
      <point x="146" y="520" type="line"/>
      <point x="146" y="424" type="line"/>
      <point x="148" y="424" type="line"/>
      <point x="172.667" y="477.333"/>
      <point x="211" y="511.333"/>
      <point x="263" y="526" type="curve" smooth="yes"/>
      <point x="278.333" y="531.333"/>
      <point x="294" y="534"/>
      <point x="310" y="534" type="curve" smooth="yes"/>
      <point x="374.667" y="534"/>
      <point x="423" y="508.333"/>
      <point x="455" y="457" type="curve"/>
      <point x="458" y="453" type="line"/>
      <point x="474" y="425"/>
      <point x="482" y="377"/>
      <point x="482" y="309" type="curve" smooth="yes"/>
    </contour>
  </outline>
</glyph>
<glyph name="p" format="2">
  <advance width="552" height="552"/>
  <unicode hex="0070"/>
  <outline>
    <contour>
      <point x="521" y="264" type="curve" smooth="yes"/>
      <point x="521" y="177.333"/>
      <point x="499.667" y="108"/>
      <point x="457" y="56" type="curve" smooth="yes"/>
      <point x="420.333" y="12"/>
      <point x="373" y="-10"/>
      <point x="315" y="-10" type="curve" smooth="yes"/>
      <point x="248.333" y="-10"/>
      <point x="196.667" y="20.6667"/>
      <point x="160" y="82" type="curve"/>
      <point x="160" y="-170" type="line"/>
      <point x="80" y="-170" type="line"/>
      <point x="80" y="520" type="line"/>
      <point x="153" y="520" type="line"/>
      <point x="153" y="420" type="line"/>
      <point x="155" y="420" type="line"/>
      <point x="176.333" y="477.333"/>
      <point x="214.667" y="513"/>
      <point x="270" y="527" type="curve" smooth="yes"/>
      <point x="284.667" y="531.667"/>
      <point x="299.667" y="534"/>
      <point x="315" y="534" type="curve" smooth="yes"/>
      <point x="394.333" y="534"/>
      <point x="452.333" y="494.667"/>
      <point x="489" y="416" type="curve" smooth="yes"/>
      <point x="510.333" y="370.667"/>
      <point x="521" y="320"/>
    </contour>
    <contour>
      <point x="431" y="261" type="curve" smooth="yes"/>
      <point x="431" y="345"/>
      <point x="411" y="403.667"/>
      <point x="371" y="437" type="curve"/>
      <point x="349" y="452" type="line" smooth="yes"/>
      <point x="333.667" y="459.333"/>
      <point x="316.333" y="463"/>
      <point x="297" y="463" type="curve" smooth="yes"/>
      <point x="250.333" y="463"/>
      <point x="212.667" y="440"/>
      <point x="184" y="394" type="curve" smooth="yes"/>
      <point x="179.333" y="387.333"/>
      <point x="175.333" y="380"/>
      <point x="172" y="372" type="curve" smooth="yes"/>
      <point x="164" y="355.333"/>
      <point x="160" y="343.333"/>
      <point x="160" y="336" type="curve" smooth="yes"/>
      <point x="160" y="204" type="line" smooth="yes"/>
      <point x="160" y="161.333"/>
      <point x="177" y="124.333"/>
      <point x="211" y="93" type="curve" smooth="yes"/>
      <point x="237" y="69"/>
      <point x="265.667" y="57"/>
      <point x="297" y="57" type="curve" smooth="yes"/>
      <point x="368.333" y="57"/>
      <point x="411.667" y="104"/>
      <point x="427" y="198" type="curve" smooth="yes"/>
      <point x="429.667" y="217.333"/>
      <point x="431" y="238.333"/>
    </contour>
  </outline>
</glyph>
<glyph name="q" format="2">
  <advance width="552" height="552"/>
  <unicode hex="0071"/>
  <outline>
    <contour>
      <point x="483" y="-170" type="line"/>
      <point x="403" y="-170" type="line"/>
      <point x="403" y="98" type="line"/>
      <point x="400" y="98" type="line"/>
      <point x="376.667" y="36.6667"/>
      <point x="334.667" y="1.33333"/>
      <point x="274" y="-8" type="curve" smooth="yes"/>
      <point x="264.667" y="-9.33333"/>
      <point x="255" y="-10"/>
      <point x="245" y="-10" type="curve" smooth="yes"/>
      <point x="161.667" y="-10"/>
      <point x="102.667" y="31.6667"/>
      <point x="68" y="115" type="curve" smooth="yes"/>
      <point x="49.3333" y="157.667"/>
      <point x="40" y="206"/>
      <point x="40" y="260" type="curve" smooth="yes"/>
      <point x="40" y="343.333"/>
      <point x="61.3333" y="411.333"/>
      <point x="104" y="464" type="curve" smooth="yes"/>
      <point x="142" y="510.667"/>
      <point x="191.333" y="534"/>
      <point x="252" y="534" type="curve" smooth="yes"/>
      <point x="308.667" y="534"/>
      <point x="353.667" y="512.667"/>
      <point x="387" y="470" type="curve" smooth="yes"/>
      <point x="395" y="460.667"/>
      <point x="403" y="449.333"/>
      <point x="411" y="436" type="curve"/>
      <point x="442" y="520" type="line"/>
      <point x="483" y="520" type="line"/>
    </contour>
    <contour>
      <point x="402" y="246" type="curve" smooth="yes"/>
      <point x="402" y="290" type="line" smooth="yes"/>
      <point x="402" y="351.333"/>
      <point x="385" y="399.333"/>
      <point x="351" y="434" type="curve" smooth="yes"/>
      <point x="327.667" y="457.333"/>
      <point x="299" y="469"/>
      <point x="265" y="469" type="curve" smooth="yes"/>
      <point x="204.333" y="469"/>
      <point x="163" y="431.333"/>
      <point x="141" y="356" type="curve" smooth="yes"/>
      <point x="133" y="326"/>
      <point x="129" y="294.333"/>
      <point x="129" y="261" type="curve" smooth="yes"/>
      <point x="129" y="180.333"/>
      <point x="148" y="122.333"/>
      <point x="186" y="87" type="curve" smooth="yes"/>
      <point x="207.333" y="67.6667"/>
      <point x="233.333" y="58"/>
      <point x="264" y="58" type="curve" smooth="yes"/>
      <point x="319.333" y="58"/>
      <point x="359.333" y="88.6667"/>
      <point x="384" y="150" type="curve" smooth="yes"/>
      <point x="396" y="180"/>
      <point x="402" y="212"/>
    </contour>
  </outline>
</glyph>
<glyph name="r" format="2">
  <advance width="327"/>
  <unicode hex="0072"/>
  <outline>
    <contour>
      <point x="330" y="456" type="line"/>
      <point x="313" y="456" type="line" smooth="yes"/>
      <point x="249" y="456"/>
      <point x="203" y="425.667"/>
      <point x="175" y="365" type="curve" smooth="yes"/>
      <point x="161" y="333.667"/>
      <point x="154" y="299.333"/>
      <point x="154" y="262" type="curve" smooth="yes"/>
      <point x="154" y="0" type="line"/>
      <point x="74" y="0" type="line"/>
      <point x="74" y="520" type="line"/>
      <point x="145" y="520" type="line"/>
      <point x="145" y="398" type="line"/>
      <point x="147" y="398" type="line"/>
      <point x="179" y="489.333"/>
      <point x="227" y="535"/>
      <point x="291" y="535" type="curve" smooth="yes"/>
      <point x="299" y="535"/>
      <point x="312" y="534"/>
      <point x="330" y="532" type="curve"/>
    </contour>
  </outline>
</glyph>
<glyph name="s" format="2">
  <advance width="532" height="532"/>
  <unicode hex="0073"/>
  <outline>
    <contour>
      <point x="485" y="151" type="curve" smooth="yes"/>
      <point x="485" y="81.6667"/>
      <point x="448.667" y="33.6667"/>
      <point x="376" y="7" type="curve" smooth="yes"/>
      <point x="344" y="-4.33333"/>
      <point x="308.333" y="-10"/>
      <point x="269" y="-10" type="curve" smooth="yes"/>
      <point x="181.667" y="-10"/>
      <point x="117.333" y="16"/>
      <point x="76" y="68" type="curve" smooth="yes"/>
      <point x="59.3333" y="88"/>
      <point x="47.6667" y="111.333"/>
      <point x="41" y="138" type="curve"/>
      <point x="119" y="154" type="line"/>
      <point x="125.667" y="109.333"/>
      <point x="157.667" y="79.6667"/>
      <point x="215" y="65" type="curve" smooth="yes"/>
      <point x="235" y="59"/>
      <point x="255" y="56"/>
      <point x="275" y="56" type="curve" smooth="yes"/>
      <point x="331.667" y="56"/>
      <point x="370" y="71"/>
      <point x="390" y="101" type="curve" smooth="yes"/>
      <point x="397.333" y="113"/>
      <point x="401" y="126.667"/>
      <point x="401" y="142" type="curve" smooth="yes"/>
      <point x="401" y="176"/>
      <point x="378.333" y="199.667"/>
      <point x="333" y="213" type="curve"/>
      <point x="262" y="228" type="line" smooth="yes"/>
      <point x="192.667" y="240.667"/>
      <point x="145.333" y="254.667"/>
      <point x="120" y="270" type="curve" smooth="yes"/>
      <point x="81.3333" y="294.667"/>
      <point x="62" y="331.667"/>
      <point x="62" y="381" type="curve" smooth="yes"/>
      <point x="62" y="444.333"/>
      <point x="94.3333" y="489"/>
      <point x="159" y="515" type="curve" smooth="yes"/>
      <point x="188.333" y="527.667"/>
      <point x="221" y="534"/>
      <point x="257" y="534" type="curve" smooth="yes"/>
      <point x="348.333" y="534"/>
      <point x="411" y="504.333"/>
      <point x="445" y="445" type="curve" smooth="yes"/>
      <point x="453" y="432.333"/>
      <point x="459" y="418"/>
      <point x="463" y="402" type="curve"/>
      <point x="389" y="387" type="line"/>
      <point x="372.333" y="435"/>
      <point x="334.667" y="462"/>
      <point x="276" y="468" type="curve" smooth="yes"/>
      <point x="269.333" y="468.667"/>
      <point x="262.667" y="469"/>
      <point x="256" y="469" type="curve" smooth="yes"/>
      <point x="208" y="469"/>
      <point x="175" y="456"/>
      <point x="157" y="430" type="curve" smooth="yes"/>
      <point x="149" y="420"/>
      <point x="145" y="407.667"/>
      <point x="145" y="393" type="curve" smooth="yes"/>
      <point x="145" y="359"/>
      <point x="169" y="335.333"/>
      <point x="217" y="322" type="curve" smooth="yes"/>
      <point x="223" y="319.333"/>
      <point x="259.333" y="312.333"/>
      <point x="326" y="301" type="curve" smooth="yes"/>
      <point x="370.667" y="293"/>
      <point x="403" y="282"/>
      <point x="423" y="268" type="curve" smooth="yes"/>
      <point x="464.333" y="240"/>
      <point x="485" y="201"/>
    </contour>
  </outline>
</glyph>
<glyph name="t" format="2">
  <advance width="327" height="327"/>
  <unicode hex="0074"/>
  <outline>
    <contour>
      <point x="319" y="-4" type="line"/>
      <point x="225" y="-11" type="line"/>
      <point x="138.333" y="-11"/>
      <point x="95" y="46"/>
      <point x="95" y="160" type="curve" smooth="yes"/>
      <point x="95" y="461" type="line"/>
      <point x="3" y="461" type="line"/>
      <point x="3" y="524" type="line"/>
      <point x="95" y="524" type="line"/>
      <point x="95" y="653" type="line"/>
      <point x="175" y="662" type="line"/>
      <point x="175" y="524" type="line"/>
      <point x="291" y="524" type="line"/>
      <point x="291" y="461" type="line"/>
      <point x="175" y="461" type="line"/>
      <point x="175" y="146" type="line"/>
      <point x="181" y="87.3333"/>
      <point x="204.667" y="56.3333"/>
      <point x="246" y="53" type="curve"/>
      <point x="246" y="53"/>
      <point x="246" y="53"/>
      <point x="319" y="59" type="curve"/>
    </contour>
  </outline>
</glyph>
<glyph name="y" format="2">
  <advance width="430"/>
  <unicode hex="0079"/>
  <outline>
    <contour>
      <point x="435" y="520" type="line"/>
      <point x="231" y="-49" type="line" smooth="yes"/>
      <point x="210.333" y="-108.333"/>
      <point x="185" y="-147"/>
      <point x="155" y="-165" type="curve" smooth="yes"/>
      <point x="133" y="-178.333"/>
      <point x="105.667" y="-185"/>
      <point x="73" y="-185" type="curve" smooth="yes"/>
      <point x="56.3333" y="-185"/>
      <point x="36.3333" y="-182"/>
      <point x="13" y="-176" type="curve"/>
      <point x="13" y="-112" type="line"/>
      <point x="33.6667" y="-116.667"/>
      <point x="51.6667" y="-119"/>
      <point x="67" y="-119" type="curve" smooth="yes"/>
      <point x="109" y="-119"/>
      <point x="140" y="-97.6667"/>
      <point x="160" y="-55" type="curve" smooth="yes"/>
      <point x="164" y="-47"/>
      <point x="171.667" y="-25.6667"/>
      <point x="183" y="9" type="curve"/>
      <point x="3" y="520" type="line"/>
      <point x="86" y="520" type="line"/>
      <point x="225" y="129" type="line"/>
      <point x="368" y="520" type="line"/>
    </contour>
  </outline>
</glyph>
<glyph name="z" format="2">
  <advance width="430"/>
  <unicode hex="007A"/>
  <outline>
    <contour>
      <point x="411" y="0" type="line"/>
      <point x="28" y="0" type="line"/>
      <point x="28" y="62" type="line"/>
      <point x="304" y="457" type="line"/>
      <point x="49" y="457" type="line"/>
      <point x="49" y="520" type="line"/>
      <point x="411" y="520" type="line"/>
      <point x="411" y="476" type="line"/>
      <point x="125" y="62" type="line"/>
      <point x="411" y="62" type="line"/>
    </contour>
  </outline>
</glyph>
<glyph name="braceleft" format="2">
  <advance width="307"/>
  <unicode hex="007B"/>
  <outline>
    <contour>
      <point x="272" y="-175" type="line"/>
      <point x="198" y="-172" type="line" smooth="yes"/>
      <point x="170" y="-170.667"/>
      <point x="146.667" y="-151.667"/>
      <point x="128" y="-115" type="curve" smooth="yes"/>
      <point x="118.667" y="-95"/>
      <point x="114" y="-76"/>
      <point x="114" y="-58" type="curve" smooth="yes"/>
      <point x="115" y="104" type="line"/>
      <point x="115" y="105" type="line" smooth="yes"/>
      <point x="115" y="159.667"/>
      <point x="104.333" y="196.333"/>
      <point x="83" y="215" type="curve" smooth="yes"/>
      <point x="71" y="225.667"/>
      <point x="54.6667" y="233.333"/>
      <point x="34" y="238" type="curve"/>
      <point x="34" y="301" type="line"/>
      <point x="76.6667" y="309"/>
      <point x="102.333" y="333.333"/>
      <point x="111" y="374" type="curve" smooth="yes"/>
      <point x="113.667" y="388"/>
      <point x="115" y="408.667"/>
      <point x="115" y="436" type="curve" smooth="yes"/>
      <point x="114" y="595" type="line"/>
      <point x="114" y="596" type="line" smooth="yes"/>
      <point x="114" y="626"/>
      <point x="124.667" y="654.333"/>
      <point x="146" y="681" type="curve" smooth="yes"/>
      <point x="162" y="699.667"/>
      <point x="179.333" y="709.333"/>
      <point x="198" y="710" type="curve" smooth="yes"/>
      <point x="272" y="713" type="line"/>
      <point x="272" y="650" type="line"/>
      <point x="237.333" y="647.333"/>
      <point x="217" y="644.667"/>
      <point x="211" y="642" type="curve" smooth="yes"/>
      <point x="201" y="634" type="line"/>
      <point x="194" y="617" type="line"/>
      <point x="190" y="586" type="line"/>
      <point x="191" y="421" type="line"/>
      <point x="191" y="420" type="line" smooth="yes"/>
      <point x="191" y="354.667"/>
      <point x="167.667" y="305.333"/>
      <point x="121" y="272" type="curve" smooth="yes"/>
      <point x="119.667" y="270.667"/>
      <point x="118.333" y="269.667"/>
      <point x="117" y="269" type="curve"/>
      <point x="166.333" y="231.667"/>
      <point x="191" y="181.333"/>
      <point x="191" y="118" type="curve" smooth="yes"/>
      <point x="190" y="-49" type="line" smooth="yes"/>
      <point x="190" y="-80.3333"/>
      <point x="198.667" y="-99"/>
      <point x="216" y="-105" type="curve" smooth="yes"/>
      <point x="220" y="-107.667"/>
      <point x="238.667" y="-111"/>
      <point x="272" y="-115" type="curve"/>
    </contour>
  </outline>
</glyph>
<glyph name="braceright" format="2">
  <advance width="307"/>
  <unicode hex="007D"/>
  <outline>
    <contour>
      <point x="272" y="238" type="line"/>
      <point x="228.667" y="229.333"/>
      <point x="203" y="203"/>
      <point x="195" y="159" type="curve" smooth="yes"/>
      <point x="192.333" y="144.333"/>
      <point x="191" y="125"/>
      <point x="191" y="101" type="curve" smooth="yes"/>
      <point x="193" y="-57" type="line"/>
      <point x="193" y="-58" type="line" smooth="yes"/>
      <point x="193" y="-89.3333"/>
      <point x="182" y="-118"/>
      <point x="160" y="-144" type="curve" smooth="yes"/>
      <point x="144" y="-162"/>
      <point x="127" y="-171.333"/>
      <point x="109" y="-172" type="curve" smooth="yes"/>
      <point x="34" y="-175" type="line"/>
      <point x="34" y="-115" type="line"/>
      <point x="68.6667" y="-110.333"/>
      <point x="88.3333" y="-106.667"/>
      <point x="93" y="-104" type="curve" smooth="yes"/>
      <point x="108.333" y="-97.3333"/>
      <point x="116" y="-79"/>
      <point x="116" y="-49" type="curve" smooth="yes"/>
      <point x="115" y="117" type="line"/>
      <point x="115" y="118" type="line" smooth="yes"/>
      <point x="115" y="181.333"/>
      <point x="139.667" y="231.667"/>
      <point x="189" y="269" type="curve"/>
      <point x="141" y="305"/>
      <point x="116.333" y="355.333"/>
      <point x="115" y="420" type="curve" smooth="yes"/>
      <point x="116" y="586" type="line" smooth="yes"/>
      <point x="116" y="618.667"/>
      <point x="107.667" y="638"/>
      <point x="91" y="644" type="curve"/>
      <point x="61" y="648" type="line"/>
      <point x="34" y="650" type="line"/>
      <point x="34" y="713" type="line"/>
      <point x="109" y="710" type="line" smooth="yes"/>
      <point x="137" y="708.667"/>
      <point x="160" y="689.333"/>
      <point x="178" y="652" type="curve" smooth="yes"/>
      <point x="188" y="632.667"/>
      <point x="193" y="614"/>
      <point x="193" y="596" type="curve" smooth="yes"/>
      <point x="191" y="433" type="line"/>
      <point x="191" y="432" type="line" smooth="yes"/>
      <point x="191" y="379.333"/>
      <point x="200.333" y="344.333"/>
      <point x="219" y="327" type="curve" smooth="yes"/>
      <point x="231.667" y="314.333"/>
      <point x="249.333" y="305.667"/>
      <point x="272" y="301" type="curve"/>
    </contour>
  </outline>
</glyph>
<glyph name="asciitilde" format="2">
  <advance width="614"/>
  <unicode hex="007E"/>
  <outline>
    <contour>
      <point x="555" y="354" type="line"/>
      <point x="556" y="340" type="line"/>
      <point x="556" y="339" type="line" smooth="yes"/>
      <point x="556" y="299"/>
      <point x="541" y="263.667"/>
      <point x="511" y="233" type="curve" smooth="yes"/>
      <point x="489" y="210.333"/>
      <point x="464" y="199"/>
      <point x="436" y="199" type="curve" smooth="yes"/>
      <point x="403.333" y="199"/>
      <point x="356" y="218"/>
      <point x="294" y="256" type="curve" smooth="yes"/>
      <point x="242" y="287.333"/>
      <point x="208.333" y="304.333"/>
      <point x="193" y="307" type="curve" smooth="yes"/>
      <point x="188.333" y="307.667"/>
      <point x="184.667" y="308"/>
      <point x="182" y="308" type="curve" smooth="yes"/>
      <point x="150.667" y="308"/>
      <point x="132.667" y="283.333"/>
      <point x="128" y="234" type="curve" smooth="yes"/>
      <point x="127.333" y="228"/>
      <point x="127" y="222"/>
      <point x="127" y="216" type="curve"/>
      <point x="57" y="216" type="line"/>
      <point x="59.6667" y="271.333"/>
      <point x="75.6667" y="314.667"/>
      <point x="105" y="346" type="curve" smooth="yes"/>
      <point x="125.667" y="367.333"/>
      <point x="150" y="378"/>
      <point x="178" y="378" type="curve" smooth="yes"/>
      <point x="205.333" y="378"/>
      <point x="248.333" y="360.333"/>
      <point x="307" y="325" type="curve" smooth="yes"/>
      <point x="361.667" y="291"/>
      <point x="399" y="272.333"/>
      <point x="419" y="269" type="curve" smooth="yes"/>
      <point x="424.333" y="267.667"/>
      <point x="429.333" y="267"/>
      <point x="434" y="267" type="curve" smooth="yes"/>
      <point x="468" y="267"/>
      <point x="485" y="296"/>
      <point x="485" y="354" type="curve"/>
    </contour>
  </outline>
</glyph>
<glyph name="exclamdown" format="2">
  <advance width="307"/>
  <unicode hex="00A1"/>
  <outline>
    <contour>
      <point x="203" y="411" type="line"/>
      <point x="95" y="411" type="line"/>
      <point x="95" y="520" type="line"/>
      <point x="203" y="520" type="line"/>
    </contour>
    <contour>
      <point x="210" y="-175" type="line"/>
      <point x="89" y="-175" type="line"/>
      <point x="129" y="352" type="line"/>
      <point x="173" y="352" type="line"/>
    </contour>
  </outline>
</glyph>
<glyph name="cent" format="2">
  <advance width="614"/>
  <unicode hex="00A2"/>
  <outline>
    <contour>
      <point x="511" y="279" type="line"/>
      <point x="495.667" y="205"/>
      <point x="458" y="155.333"/>
      <point x="398" y="130" type="curve" smooth="yes"/>
      <point x="382.667" y="123.333"/>
      <point x="365.667" y="119"/>
      <point x="347" y="117" type="curve"/>
      <point x="347" y="-30" type="line"/>
      <point x="285" y="-30" type="line"/>
      <point x="285" y="117" type="line"/>
      <point x="213" y="125.667"/>
      <point x="161" y="164.333"/>
      <point x="129" y="233" type="curve" smooth="yes"/>
      <point x="111.667" y="270.333"/>
      <point x="103" y="311"/>
      <point x="103" y="355" type="curve" smooth="yes"/>
      <point x="103" y="443.667"/>
      <point x="129" y="511"/>
      <point x="181" y="557" type="curve" smooth="yes"/>
      <point x="209" y="582.333"/>
      <point x="243.667" y="597.667"/>
      <point x="285" y="603" type="curve"/>
      <point x="285" y="732" type="line"/>
      <point x="347" y="732" type="line"/>
      <point x="347" y="603" type="line"/>
      <point x="401.667" y="597.667"/>
      <point x="445.333" y="571.667"/>
      <point x="478" y="525" type="curve" smooth="yes"/>
      <point x="496" y="500.333"/>
      <point x="507" y="473"/>
      <point x="511" y="443" type="curve"/>
      <point x="441" y="430" type="line"/>
      <point x="434.333" y="469.333"/>
      <point x="417.667" y="500.333"/>
      <point x="391" y="523" type="curve" smooth="yes"/>
      <point x="377.667" y="535"/>
      <point x="363" y="541.667"/>
      <point x="347" y="543" type="curve"/>
      <point x="347" y="180" type="line"/>
      <point x="384.333" y="186.667"/>
      <point x="412" y="211"/>
      <point x="430" y="253" type="curve" smooth="yes"/>
      <point x="435.333" y="264.333"/>
      <point x="439" y="276.667"/>
      <point x="441" y="290" type="curve"/>
    </contour>
    <contour>
      <point x="285" y="180" type="curve"/>
      <point x="285" y="541" type="line"/>
      <point x="218.333" y="522.333"/>
      <point x="185" y="459.667"/>
      <point x="185" y="353" type="curve" smooth="yes"/>
      <point x="185" y="280.333"/>
      <point x="205" y="229"/>
      <point x="245" y="199" type="curve" smooth="yes"/>
      <point x="256.333" y="189.667"/>
      <point x="269.667" y="183.333"/>
    </contour>
  </outline>
</glyph>
<glyph name="sterling" format="2">
  <advance width="614"/>
  <unicode hex="00A3"/>
  <outline>
    <contour>
      <point x="612" y="113" type="line"/>
      <point x="576" y="37.6667"/>
      <point x="511.333" y="0"/>
      <point x="418" y="0" type="curve" smooth="yes"/>
      <point x="3" y="0" type="line"/>
      <point x="3" y="77" type="line"/>
      <point x="55.6667" y="77"/>
      <point x="91.6667" y="80.3333"/>
      <point x="111" y="87" type="curve" smooth="yes"/>
      <point x="124.333" y="91"/>
      <point x="136.333" y="97"/>
      <point x="147" y="105" type="curve" smooth="yes"/>
      <point x="187" y="132.333"/>
      <point x="207" y="174"/>
      <point x="207" y="230" type="curve" smooth="yes"/>
      <point x="207" y="236"/>
      <point x="204" y="270"/>
      <point x="198" y="332" type="curve"/>
      <point x="85" y="332" type="line"/>
      <point x="85" y="392" type="line"/>
      <point x="191" y="392" type="line"/>
      <point x="182" y="481" type="line"/>
      <point x="182" y="487" type="line" smooth="yes"/>
      <point x="182" y="562.333"/>
      <point x="204" y="621.667"/>
      <point x="248" y="665" type="curve" smooth="yes"/>
      <point x="281.333" y="697"/>
      <point x="322.667" y="713"/>
      <point x="372" y="713" type="curve" smooth="yes"/>
      <point x="440.667" y="713"/>
      <point x="497.667" y="681"/>
      <point x="543" y="617" type="curve"/>
      <point x="484" y="573" type="line"/>
      <point x="454" y="613"/>
      <point x="424.333" y="635.333"/>
      <point x="395" y="640" type="curve" smooth="yes"/>
      <point x="389" y="641.333"/>
      <point x="383" y="642"/>
      <point x="377" y="642" type="curve" smooth="yes"/>
      <point x="339.667" y="642"/>
      <point x="310.667" y="625"/>
      <point x="290" y="591" type="curve" smooth="yes"/>
      <point x="278.667" y="572.333"/>
      <point x="273" y="552.333"/>
      <point x="273" y="531" type="curve" smooth="yes"/>
      <point x="273" y="519.667"/>
      <point x="277" y="473.333"/>
      <point x="285" y="392" type="curve"/>
      <point x="435" y="392" type="line"/>
      <point x="435" y="332" type="line"/>
      <point x="291" y="332" type="line"/>
      <point x="294.333" y="284"/>
      <point x="296" y="255.667"/>
      <point x="296" y="247" type="curve" smooth="yes"/>
      <point x="296" y="174.333"/>
      <point x="268.333" y="117.667"/>
      <point x="213" y="77" type="curve"/>
      <point x="365" y="77" type="line" smooth="yes"/>
      <point x="429" y="77"/>
      <point x="475" y="86.6667"/>
      <point x="503" y="106" type="curve" smooth="yes"/>
      <point x="519.667" y="118.667"/>
      <point x="533.667" y="135.667"/>
      <point x="545" y="157" type="curve"/>
    </contour>
  </outline>
</glyph>
<glyph name="currency" format="2">
  <advance width="614"/>
  <unicode hex="00A4"/>
  <outline>
    <contour>
      <point x="523" y="500" type="line"/>
      <point x="464" y="443" type="line"/>
      <point x="484" y="412.333"/>
      <point x="494" y="381.333"/>
      <point x="494" y="350" type="curve" smooth="yes"/>
      <point x="494" y="321.333"/>
      <point x="482.667" y="287.333"/>
      <point x="460" y="248" type="curve"/>
      <point x="518" y="189" type="line"/>
      <point x="459" y="133" type="line"/>
      <point x="404" y="189" type="line"/>
      <point x="370" y="167"/>
      <point x="336.667" y="156"/>
      <point x="304" y="156" type="curve" smooth="yes"/>
      <point x="276" y="156"/>
      <point x="243.667" y="164.333"/>
      <point x="207" y="181" type="curve"/>
      <point x="152" y="129" type="line"/>
      <point x="95" y="189" type="line"/>
      <point x="145" y="242" type="line"/>
      <point x="123.667" y="269.333"/>
      <point x="113" y="304.333"/>
      <point x="113" y="347" type="curve" smooth="yes"/>
      <point x="113" y="393.667"/>
      <point x="125.667" y="427"/>
      <point x="151" y="447" type="curve"/>
      <point x="91" y="509" type="line"/>
      <point x="146" y="567" type="line"/>
      <point x="206" y="507" type="line"/>
      <point x="245.333" y="526.333"/>
      <point x="278.667" y="536"/>
      <point x="306" y="536" type="curve" smooth="yes"/>
      <point x="334" y="536"/>
      <point x="367.333" y="526.333"/>
      <point x="406" y="507" type="curve"/>
      <point x="463" y="562" type="line"/>
    </contour>
    <contour>
      <point x="406" y="348" type="curve" smooth="yes"/>
      <point x="406" y="390.667"/>
      <point x="387.667" y="420.667"/>
      <point x="351" y="438" type="curve" smooth="yes"/>
      <point x="335.667" y="446"/>
      <point x="318.333" y="450"/>
      <point x="299" y="450" type="curve" smooth="yes"/>
      <point x="254.333" y="450"/>
      <point x="223.667" y="431.667"/>
      <point x="207" y="395" type="curve" smooth="yes"/>
      <point x="199.667" y="380.333"/>
      <point x="196" y="363.667"/>
      <point x="196" y="345" type="curve" smooth="yes"/>
      <point x="196" y="300.333"/>
      <point x="214.333" y="269"/>
      <point x="251" y="251" type="curve" smooth="yes"/>
      <point x="265" y="244.333"/>
      <point x="281" y="241"/>
      <point x="299" y="241" type="curve" smooth="yes"/>
      <point x="344.333" y="241"/>
      <point x="376" y="259.333"/>
      <point x="394" y="296" type="curve" smooth="yes"/>
      <point x="402" y="311.333"/>
      <point x="406" y="328.667"/>
    </contour>
  </outline>
</glyph>
<glyph name="yen" format="2">
  <advance width="614" height="614"/>
  <unicode hex="00A5"/>
  <outline>
    <contour>
      <point x="586" y="702" type="line"/>
      <point x="432" y="435" type="line"/>
      <point x="562" y="435" type="line"/>
      <point x="562" y="375" type="line"/>
      <point x="396" y="375" type="line"/>
      <point x="351" y="296" type="line"/>
      <point x="351" y="293" type="line"/>
      <point x="562" y="293" type="line"/>
      <point x="562" y="231" type="line"/>
      <point x="351" y="231" type="line"/>
      <point x="351" y="0" type="line"/>
      <point x="264" y="0" type="line"/>
      <point x="264" y="231" type="line"/>
      <point x="53" y="231" type="line"/>
      <point x="53" y="293" type="line"/>
      <point x="264" y="293" type="line"/>
      <point x="264" y="296" type="line"/>
      <point x="218" y="375" type="line"/>
      <point x="53" y="375" type="line"/>
      <point x="53" y="435" type="line"/>
      <point x="183" y="435" type="line"/>
      <point x="29" y="702" type="line"/>
      <point x="132" y="702" type="line"/>
      <point x="317" y="379" type="line"/>
      <point x="506" y="702" type="line"/>
    </contour>
  </outline>
</glyph>
<glyph name="brokenbar" format="2">
  <advance width="266"/>
  <unicode hex="00A6"/>
  <outline>
    <contour>
      <point x="164" y="333" type="line"/>
      <point x="102" y="333" type="line"/>
      <point x="102" y="691" type="line"/>
      <point x="164" y="691" type="line"/>
    </contour>
    <contour>
      <point x="164" y="-179" type="line"/>
      <point x="102" y="-179" type="line"/>
      <point x="102" y="179" type="line"/>
      <point x="164" y="179" type="line"/>
    </contour>
  </outline>
</glyph>
<glyph name="section" format="2">
  <advance width="614"/>
  <unicode hex="00A7"/>
  <outline>
    <contour>
      <point x="548" y="-1" type="curve" smooth="yes"/>
      <point x="548" y="-69.6667"/>
      <point x="515.333" y="-122"/>
      <point x="450" y="-158" type="curve" smooth="yes"/>
      <point x="408" y="-181.333"/>
      <point x="361.333" y="-193"/>
      <point x="310" y="-193" type="curve" smooth="yes"/>
      <point x="218" y="-193"/>
      <point x="148.333" y="-163"/>
      <point x="101" y="-103" type="curve" smooth="yes"/>
      <point x="87" y="-85"/>
      <point x="76" y="-64.3333"/>
      <point x="68" y="-41" type="curve"/>
      <point x="158" y="-28" type="line"/>
      <point x="174.667" y="-70.6667"/>
      <point x="208" y="-100.333"/>
      <point x="258" y="-117" type="curve" smooth="yes"/>
      <point x="276.667" y="-123"/>
      <point x="295.333" y="-126"/>
      <point x="314" y="-126" type="curve" smooth="yes"/>
      <point x="362.667" y="-126"/>
      <point x="402" y="-112"/>
      <point x="432" y="-84" type="curve" smooth="yes"/>
      <point x="452.667" y="-64.6667"/>
      <point x="463" y="-41.6667"/>
      <point x="463" y="-15" type="curve" smooth="yes"/>
      <point x="463" y="25"/>
      <point x="436" y="55.6667"/>
      <point x="382" y="77" type="curve" smooth="yes"/>
      <point x="372" y="80.3333"/>
      <point x="331" y="91.6667"/>
      <point x="259" y="111" type="curve" smooth="yes"/>
      <point x="184.333" y="130.333"/>
      <point x="135.667" y="155.667"/>
      <point x="113" y="187" type="curve" smooth="yes"/>
      <point x="97" y="207.667"/>
      <point x="89" y="233"/>
      <point x="89" y="263" type="curve" smooth="yes"/>
      <point x="89" y="321.667"/>
      <point x="120.667" y="372"/>
      <point x="184" y="414" type="curve" smooth="yes"/>
      <point x="185.333" y="415.333"/>
      <point x="186.667" y="416.333"/>
      <point x="188" y="417" type="curve"/>
      <point x="132" y="447.667"/>
      <point x="104" y="493.333"/>
      <point x="104" y="554" type="curve" smooth="yes"/>
      <point x="104" y="618.667"/>
      <point x="135.667" y="664.667"/>
      <point x="199" y="692" type="curve" smooth="yes"/>
      <point x="229.667" y="706"/>
      <point x="263.667" y="713"/>
      <point x="301" y="713" type="curve" smooth="yes"/>
      <point x="379.667" y="713"/>
      <point x="439.333" y="689"/>
      <point x="480" y="641" type="curve" smooth="yes"/>
      <point x="496.667" y="621.667"/>
      <point x="508.333" y="599.667"/>
      <point x="515" y="575" type="curve"/>
      <point x="437" y="567" type="line"/>
      <point x="420.333" y="613"/>
      <point x="386" y="640.667"/>
      <point x="334" y="650" type="curve" smooth="yes"/>
      <point x="323.333" y="652"/>
      <point x="312.667" y="653"/>
      <point x="302" y="653" type="curve" smooth="yes"/>
      <point x="254.667" y="653"/>
      <point x="220.333" y="639.667"/>
      <point x="199" y="613" type="curve" smooth="yes"/>
      <point x="187.667" y="599.667"/>
      <point x="182" y="583.667"/>
      <point x="182" y="565" type="curve" smooth="yes"/>
      <point x="182" y="523.667"/>
      <point x="208" y="492.333"/>
      <point x="260" y="471" type="curve" smooth="yes"/>
      <point x="268.667" y="467"/>
      <point x="306.333" y="455"/>
      <point x="373" y="435" type="curve" smooth="yes"/>
      <point x="441.667" y="415.667"/>
      <point x="487" y="390"/>
      <point x="509" y="358" type="curve"/>
      <point x="522" y="334" type="line" smooth="yes"/>
      <point x="528" y="318"/>
      <point x="531" y="300.667"/>
      <point x="531" y="282" type="curve" smooth="yes"/>
      <point x="531" y="233.333"/>
      <point x="503.667" y="186.333"/>
      <point x="449" y="141" type="curve"/>
      <point x="496.333" y="121.667"/>
      <point x="527.333" y="89"/>
      <point x="542" y="43" type="curve" smooth="yes"/>
      <point x="546" y="29"/>
      <point x="548" y="14.3333"/>
    </contour>
    <contour>
      <point x="457" y="260" type="curve" smooth="yes"/>
      <point x="457" y="304.667"/>
      <point x="422" y="337.667"/>
      <point x="352" y="359" type="curve" smooth="yes"/>
      <point x="251" y="391" type="line"/>
      <point x="197" y="363.667"/>
      <point x="170" y="330.333"/>
      <point x="170" y="291" type="curve" smooth="yes"/>
      <point x="170" y="249"/>
      <point x="197.667" y="218.333"/>
      <point x="253" y="199" type="curve" smooth="yes"/>
      <point x="262.333" y="195.667"/>
      <point x="276" y="191.333"/>
      <point x="294" y="186" type="curve" smooth="yes"/>
      <point x="383" y="162" type="line"/>
      <point x="412.333" y="174"/>
      <point x="433.667" y="194.333"/>
      <point x="447" y="223" type="curve" smooth="yes"/>
      <point x="453.667" y="235.667"/>
      <point x="457" y="248"/>
    </contour>
  </outline>
</glyph>
<glyph name="dieresis" format="2">
  <advance width="409" height="409"/>
  <unicode hex="00A8"/>
  <outline>
    <contour>
      <point x="337" y="682" type="line" smooth="yes"/>
      <point x="337" y="658.667"/>
      <point x="326.333" y="642.667"/>
      <point x="305" y="634" type="curve" smooth="yes"/>
      <point x="297.667" y="630.667"/>
      <point x="290.333" y="629"/>
      <point x="283" y="629" type="curve" smooth="yes"/>
      <point x="260.333" y="629"/>
      <point x="244" y="639.333"/>
      <point x="234" y="660" type="curve" smooth="yes"/>
      <point x="231.333" y="667.333"/>
      <point x="230" y="674.667"/>
      <point x="230" y="682" type="curve" smooth="yes"/>
      <point x="230" y="705.333"/>
      <point x="241" y="721"/>
      <point x="263" y="729" type="curve" smooth="yes"/>
      <point x="269.667" y="731.667"/>
      <point x="276.667" y="733"/>
      <point x="284" y="733" type="curve" smooth="yes"/>
      <point x="304.667" y="733"/>
      <point x="320.333" y="723.667"/>
      <point x="331" y="705" type="curve"/>
      <point x="337" y="686" type="line"/>
    </contour>
    <contour>
      <point x="178" y="682" type="line" smooth="yes"/>
      <point x="178" y="658.667"/>
      <point x="167.333" y="642.667"/>
      <point x="146" y="634" type="curve" smooth="yes"/>
      <point x="138.667" y="630.667"/>
      <point x="131.333" y="629"/>
      <point x="124" y="629" type="curve" smooth="yes"/>
      <point x="101.333" y="629"/>
      <point x="85.3333" y="639.333"/>
      <point x="76" y="660" type="curve" smooth="yes"/>
      <point x="73.3333" y="667.333"/>
      <point x="72" y="674.667"/>
      <point x="72" y="682" type="curve" smooth="yes"/>
      <point x="72" y="705.333"/>
      <point x="82.6667" y="721"/>
      <point x="104" y="729" type="curve" smooth="yes"/>
      <point x="111.333" y="731.667"/>
      <point x="118.333" y="733"/>
      <point x="125" y="733" type="curve" smooth="yes"/>
      <point x="146.333" y="733"/>
      <point x="162" y="723.667"/>
      <point x="172" y="705" type="curve"/>
      <point x="178" y="686" type="line"/>
    </contour>
  </outline>
</glyph>
<glyph name="copyright" format="2">
  <advance width="778" height="778"/>
  <unicode hex="00A9"/>
  <outline>
    <contour>
      <point x="761" y="353" type="curve" smooth="yes"/>
      <point x="761" y="255"/>
      <point x="726" y="170.667"/>
      <point x="656" y="100" type="curve" smooth="yes"/>
      <point x="588.667" y="32"/>
      <point x="507" y="-4.33333"/>
      <point x="411" y="-9" type="curve" smooth="yes"/>
      <point x="403.667" y="-9.66667"/>
      <point x="396.667" y="-10"/>
      <point x="390" y="-10" type="curve" smooth="yes"/>
      <point x="292" y="-10"/>
      <point x="207" y="22.6667"/>
      <point x="135" y="88" type="curve" smooth="yes"/>
      <point x="63" y="154"/>
      <point x="24" y="235.667"/>
      <point x="18" y="333" type="curve" smooth="yes"/>
      <point x="17.3333" y="339.667"/>
      <point x="17" y="346.333"/>
      <point x="17" y="353" type="curve" smooth="yes"/>
      <point x="17" y="451.667"/>
      <point x="53" y="535.667"/>
      <point x="125" y="605" type="curve" smooth="yes"/>
      <point x="193" y="672.333"/>
      <point x="275.333" y="708.333"/>
      <point x="372" y="713" type="curve"/>
      <point x="372" y="713"/>
      <point x="372" y="713"/>
      <point x="390" y="713" type="curve" smooth="yes"/>
      <point x="488" y="713"/>
      <point x="572.333" y="680.333"/>
      <point x="643" y="615" type="curve" smooth="yes"/>
      <point x="715.667" y="549.667"/>
      <point x="754.667" y="469.333"/>
      <point x="760" y="374" type="curve" smooth="yes"/>
      <point x="760.667" y="367.333"/>
      <point x="761" y="360.333"/>
    </contour>
    <contour>
      <point x="690" y="353" type="curve" smooth="yes"/>
      <point x="690" y="437"/>
      <point x="658.333" y="507.333"/>
      <point x="595" y="564" type="curve" smooth="yes"/>
      <point x="537.667" y="616"/>
      <point x="469.333" y="642"/>
      <point x="390" y="642" type="curve" smooth="yes"/>
      <point x="306" y="642"/>
      <point x="234.667" y="613.667"/>
      <point x="176" y="557" type="curve" smooth="yes"/>
      <point x="117.333" y="501"/>
      <point x="88" y="433"/>
      <point x="88" y="353" type="curve" smooth="yes"/>
      <point x="88" y="267"/>
      <point x="119.667" y="195.333"/>
      <point x="183" y="138" type="curve" smooth="yes"/>
      <point x="241" y="86"/>
      <point x="310" y="60"/>
      <point x="390" y="60" type="curve" smooth="yes"/>
      <point x="474.667" y="60"/>
      <point x="546.333" y="89.3333"/>
      <point x="605" y="148" type="curve" smooth="yes"/>
      <point x="661.667" y="204.667"/>
      <point x="690" y="273"/>
    </contour>
    <contour>
      <point x="579" y="286" type="line"/>
      <point x="573" y="232.667"/>
      <point x="545.333" y="193"/>
      <point x="496" y="167" type="curve" smooth="yes"/>
      <point x="468.667" y="152.333"/>
      <point x="439" y="145"/>
      <point x="407" y="145" type="curve" smooth="yes"/>
      <point x="335" y="145"/>
      <point x="279.667" y="171.667"/>
      <point x="241" y="225" type="curve" smooth="yes"/>
      <point x="214.333" y="262.333"/>
      <point x="201" y="305.667"/>
      <point x="201" y="355" type="curve" smooth="yes"/>
      <point x="201" y="431.667"/>
      <point x="228" y="489"/>
      <point x="282" y="527" type="curve" smooth="yes"/>
      <point x="316" y="550.333"/>
      <point x="356.333" y="562"/>
      <point x="403" y="562" type="curve" smooth="yes"/>
      <point x="469" y="562"/>
      <point x="518.333" y="540"/>
      <point x="551" y="496" type="curve" smooth="yes"/>
      <point x="565" y="476"/>
      <point x="574.333" y="453"/>
      <point x="579" y="427" type="curve"/>
      <point x="510" y="427" type="line"/>
      <point x="502.667" y="468.333"/>
      <point x="478" y="494"/>
      <point x="436" y="504" type="curve"/>
      <point x="407" y="507" type="line"/>
      <point x="333.667" y="507"/>
      <point x="290" y="471.333"/>
      <point x="276" y="400" type="curve" smooth="yes"/>
      <point x="273.333" y="386"/>
      <point x="272" y="370.333"/>
      <point x="272" y="353" type="curve" smooth="yes"/>
      <point x="272" y="285.667"/>
      <point x="295.333" y="239.667"/>
      <point x="342" y="215" type="curve" smooth="yes"/>
      <point x="361.333" y="205.667"/>
      <point x="383.667" y="201"/>
      <point x="409" y="201" type="curve" smooth="yes"/>
      <point x="453.667" y="201"/>
      <point x="484.333" y="218.667"/>
      <point x="501" y="254" type="curve" smooth="yes"/>
      <point x="505.667" y="263.333"/>
      <point x="508.667" y="274"/>
      <point x="510" y="286" type="curve"/>
    </contour>
  </outline>
</glyph>
<glyph name="ordfeminine" format="2">
  <advance width="368"/>
  <unicode hex="00AA"/>
  <outline>
    <contour>
      <point x="333" y="388" type="curve"/>
      <point x="268" y="388" type="line"/>
      <point x="268" y="432" type="line"/>
      <point x="246.667" y="400"/>
      <point x="209" y="384"/>
      <point x="155" y="384" type="curve" smooth="yes"/>
      <point x="107" y="384"/>
      <point x="72.3333" y="399"/>
      <point x="51" y="429" type="curve" smooth="yes"/>
      <point x="41.6667" y="443.667"/>
      <point x="37" y="460.333"/>
      <point x="37" y="479" type="curve" smooth="yes"/>
      <point x="37" y="553.667"/>
      <point x="101.667" y="592.667"/>
      <point x="231" y="596" type="curve" smooth="yes"/>
      <point x="244" y="596"/>
      <point x="244" y="596"/>
      <point x="260" y="596" type="curve"/>
      <point x="260" y="618" type="line" smooth="yes"/>
      <point x="260" y="648"/>
      <point x="235.667" y="663"/>
      <point x="187" y="663" type="curve" smooth="yes"/>
      <point x="141" y="663"/>
      <point x="113.667" y="650.333"/>
      <point x="105" y="625" type="curve" smooth="yes"/>
      <point x="104.333" y="623.667"/>
      <point x="104" y="622.333"/>
      <point x="104" y="621" type="curve"/>
      <point x="46" y="627" type="line"/>
      <point x="52" y="672.333"/>
      <point x="88" y="700"/>
      <point x="154" y="710" type="curve" smooth="yes"/>
      <point x="166" y="712"/>
      <point x="178.333" y="713"/>
      <point x="191" y="713" type="curve" smooth="yes"/>
      <point x="252.333" y="713"/>
      <point x="291.333" y="697.333"/>
      <point x="308" y="666" type="curve"/>
      <point x="317" y="639" type="line" smooth="yes"/>
      <point x="321.667" y="622.333"/>
      <point x="324" y="602.333"/>
      <point x="324" y="579" type="curve" smooth="yes"/>
      <point x="324" y="494.333"/>
      <point x="325.667" y="439.333"/>
      <point x="329" y="414" type="curve" smooth="yes"/>
      <point x="330.333" y="404.667"/>
      <point x="331.667" y="396"/>
    </contour>
    <contour>
      <point x="260" y="526" type="curve" smooth="yes"/>
      <point x="260" y="549" type="line"/>
      <point x="223" y="549" type="line"/>
      <point x="141.667" y="546.333"/>
      <point x="99.6667" y="523"/>
      <point x="97" y="479" type="curve" smooth="yes"/>
      <point x="97" y="457"/>
      <point x="113.333" y="442.667"/>
      <point x="146" y="436" type="curve" smooth="yes"/>
      <point x="154" y="434.667"/>
      <point x="161.333" y="434"/>
      <point x="168" y="434" type="curve" smooth="yes"/>
      <point x="197.333" y="434"/>
      <point x="222" y="447.667"/>
      <point x="242" y="475" type="curve" smooth="yes"/>
      <point x="254" y="491.667"/>
      <point x="260" y="508.667"/>
    </contour>
  </outline>
</glyph>
<glyph name="guillemotleft" format="2">
  <advance width="409"/>
  <unicode hex="00AB"/>
  <outline>
    <contour>
      <point x="339" y="114" type="line"/>
      <point x="294" y="114" type="line"/>
      <point x="205" y="263" type="line"/>
      <point x="293" y="409" type="line"/>
      <point x="339" y="409" type="line"/>
      <point x="285" y="263" type="line"/>
    </contour>
    <contour>
      <point x="205" y="114" type="line"/>
      <point x="160" y="114" type="line"/>
      <point x="71" y="263" type="line"/>
      <point x="159" y="409" type="line"/>
      <point x="205" y="409" type="line"/>
      <point x="151" y="263" type="line"/>
    </contour>
  </outline>
</glyph>
<glyph name="registered" format="2">
  <advance width="778"/>
  <unicode hex="00AE"/>
  <outline>
    <contour>
      <point x="761" y="353" type="curve" smooth="yes"/>
      <point x="761" y="255"/>
      <point x="726" y="170.667"/>
      <point x="656" y="100" type="curve" smooth="yes"/>
      <point x="588.667" y="32"/>
      <point x="507" y="-4.33333"/>
      <point x="411" y="-9" type="curve" smooth="yes"/>
      <point x="403.667" y="-9.66667"/>
      <point x="396.667" y="-10"/>
      <point x="390" y="-10" type="curve" smooth="yes"/>
      <point x="292" y="-10"/>
      <point x="207" y="22.6667"/>
      <point x="135" y="88" type="curve" smooth="yes"/>
      <point x="63" y="154"/>
      <point x="24" y="235.667"/>
      <point x="18" y="333" type="curve" smooth="yes"/>
      <point x="17.3333" y="339.667"/>
      <point x="17" y="346.333"/>
      <point x="17" y="353" type="curve" smooth="yes"/>
      <point x="17" y="451.667"/>
      <point x="53" y="535.667"/>
      <point x="125" y="605" type="curve" smooth="yes"/>
      <point x="193" y="672.333"/>
      <point x="275.333" y="708.333"/>
      <point x="372" y="713" type="curve"/>
      <point x="390" y="713" type="line" smooth="yes"/>
      <point x="488" y="713"/>
      <point x="572.333" y="680.333"/>
      <point x="643" y="615" type="curve" smooth="yes"/>
      <point x="715.667" y="549.667"/>
      <point x="754.667" y="469.333"/>
      <point x="760" y="374" type="curve" smooth="yes"/>
      <point x="760.667" y="367.333"/>
      <point x="761" y="360.333"/>
    </contour>
    <contour>
      <point x="690" y="353" type="curve" smooth="yes"/>
      <point x="690" y="437"/>
      <point x="658.333" y="507.333"/>
      <point x="595" y="564" type="curve" smooth="yes"/>
      <point x="537.667" y="616"/>
      <point x="469.333" y="642"/>
      <point x="390" y="642" type="curve" smooth="yes"/>
      <point x="306" y="642"/>
      <point x="234.667" y="613.667"/>
      <point x="176" y="557" type="curve" smooth="yes"/>
      <point x="117.333" y="501"/>
      <point x="88" y="433"/>
      <point x="88" y="353" type="curve" smooth="yes"/>
      <point x="88" y="267"/>
      <point x="119.667" y="195.333"/>
      <point x="183" y="138" type="curve" smooth="yes"/>
      <point x="241" y="86"/>
      <point x="310" y="60"/>
      <point x="390" y="60" type="curve" smooth="yes"/>
      <point x="474.667" y="60"/>
      <point x="546.333" y="89.3333"/>
      <point x="605" y="148" type="curve" smooth="yes"/>
      <point x="661.667" y="204.667"/>
      <point x="690" y="273"/>
    </contour>
    <contour>
      <point x="450" y="336" type="curve"/>
      <point x="575" y="150" type="line"/>
      <point x="505" y="150" type="line"/>
      <point x="386" y="336" type="line"/>
      <point x="313" y="336" type="line"/>
      <point x="313" y="150" type="line"/>
      <point x="252" y="150" type="line"/>
      <point x="252" y="554" type="line"/>
      <point x="433" y="554" type="line" smooth="yes"/>
      <point x="531.667" y="554"/>
      <point x="581" y="518.333"/>
      <point x="581" y="447" type="curve" smooth="yes"/>
      <point x="581" y="375.667"/>
      <point x="537.333" y="338.667"/>
    </contour>
    <contour>
      <point x="519" y="449" type="curve" smooth="yes"/>
      <point x="519" y="485.667"/>
      <point x="493" y="505.333"/>
      <point x="441" y="508" type="curve"/>
      <point x="421" y="508" type="line"/>
      <point x="313" y="508" type="line"/>
      <point x="313" y="386" type="line"/>
      <point x="422" y="386" type="line" smooth="yes"/>
      <point x="472" y="386"/>
      <point x="502.333" y="397"/>
      <point x="513" y="419" type="curve" smooth="yes"/>
      <point x="517" y="427"/>
      <point x="519" y="437"/>
    </contour>
  </outline>
</glyph>
<glyph name="macron" format="2">
  <advance width="471"/>
  <unicode hex="00AF"/>
  <outline>
    <contour>
      <point x="396" y="673" type="line"/>
      <point x="74" y="673" type="line"/>
      <point x="74" y="733" type="line"/>
      <point x="396" y="733" type="line"/>
    </contour>
  </outline>
</glyph>
<glyph name="degree" format="2">
  <advance width="409"/>
  <unicode hex="00B0"/>
  <outline>
    <contour>
      <point x="358" y="559" type="curve" smooth="yes"/>
      <point x="358" y="510.333"/>
      <point x="339" y="470.667"/>
      <point x="301" y="440" type="curve"/>
      <point x="274" y="423" type="line" smooth="yes"/>
      <point x="252.667" y="411.667"/>
      <point x="229.667" y="406"/>
      <point x="205" y="406" type="curve" smooth="yes"/>
      <point x="154.333" y="406"/>
      <point x="113.667" y="426"/>
      <point x="83" y="466" type="curve" smooth="yes"/>
      <point x="61.6667" y="493.333"/>
      <point x="51" y="524.333"/>
      <point x="51" y="559" type="curve" smooth="yes"/>
      <point x="51" y="609.667"/>
      <point x="71.3333" y="650.333"/>
      <point x="112" y="681" type="curve" smooth="yes"/>
      <point x="139.333" y="702.333"/>
      <point x="170.333" y="713"/>
      <point x="205" y="713" type="curve" smooth="yes"/>
      <point x="254.333" y="713"/>
      <point x="294.667" y="693"/>
      <point x="326" y="653" type="curve" smooth="yes"/>
      <point x="347.333" y="625"/>
      <point x="358" y="593.667"/>
    </contour>
    <contour>
      <point x="296" y="558" type="curve" smooth="yes"/>
      <point x="296" y="591.333"/>
      <point x="281.667" y="617.333"/>
      <point x="253" y="636" type="curve" smooth="yes"/>
      <point x="237.667" y="645.333"/>
      <point x="221.333" y="650"/>
      <point x="204" y="650" type="curve" smooth="yes"/>
      <point x="170" y="650"/>
      <point x="144" y="635"/>
      <point x="126" y="605" type="curve"/>
      <point x="116" y="582" type="line" smooth="yes"/>
      <point x="114" y="574"/>
      <point x="113" y="566"/>
      <point x="113" y="558" type="curve" smooth="yes"/>
      <point x="113" y="524.667"/>
      <point x="127.667" y="498.667"/>
      <point x="157" y="480" type="curve" smooth="yes"/>
      <point x="171" y="471.333"/>
      <point x="186.667" y="467"/>
      <point x="204" y="467" type="curve" smooth="yes"/>
      <point x="238" y="467"/>
      <point x="264.333" y="481.667"/>
      <point x="283" y="511" type="curve" smooth="yes"/>
      <point x="291.667" y="525"/>
      <point x="296" y="540.667"/>
    </contour>
  </outline>
</glyph>
<glyph name="plusminus" format="2">
  <advance width="614"/>
  <unicode hex="00B1"/>
  <outline>
    <contour>
      <point x="571" y="349" type="line"/>
      <point x="340" y="349" type="line"/>
      <point x="340" y="118" type="line"/>
      <point x="273" y="118" type="line"/>
      <point x="273" y="349" type="line"/>
      <point x="42" y="349" type="line"/>
      <point x="42" y="416" type="line"/>
      <point x="273" y="416" type="line"/>
      <point x="273" y="647" type="line"/>
      <point x="340" y="647" type="line"/>
      <point x="340" y="416" type="line"/>
      <point x="571" y="416" type="line"/>
    </contour>
    <contour>
      <point x="571" y="0" type="line"/>
      <point x="42" y="0" type="line"/>
      <point x="42" y="67" type="line"/>
      <point x="571" y="67" type="line"/>
    </contour>
  </outline>
</glyph>
<glyph name="uni00B2" format="2">
  <advance width="368"/>
  <unicode hex="00B2"/>
  <outline>
    <contour>
      <point x="346" y="285" type="line"/>
      <point x="22" y="285" type="line"/>
      <point x="22" y="333" type="line"/>
      <point x="201" y="463" type="line" smooth="yes"/>
      <point x="249" y="498.333"/>
      <point x="276" y="533.333"/>
      <point x="282" y="568" type="curve" smooth="yes"/>
      <point x="283.333" y="574.667"/>
      <point x="284" y="581"/>
      <point x="284" y="587" type="curve" smooth="yes"/>
      <point x="284" y="623"/>
      <point x="264.333" y="647.333"/>
      <point x="225" y="660" type="curve" smooth="yes"/>
      <point x="212.333" y="664.667"/>
      <point x="198.667" y="667"/>
      <point x="184" y="667" type="curve" smooth="yes"/>
      <point x="150.667" y="667"/>
      <point x="122.667" y="654.333"/>
      <point x="100" y="629" type="curve"/>
      <point x="87" y="608" type="line" smooth="yes"/>
      <point x="83" y="600.667"/>
      <point x="80.6667" y="593"/>
      <point x="80" y="585" type="curve" smooth="yes"/>
      <point x="79.3333" y="581.667"/>
      <point x="79" y="578"/>
      <point x="79" y="574" type="curve"/>
      <point x="22" y="589" type="line"/>
      <point x="35.3333" y="647.667"/>
      <point x="70" y="685.667"/>
      <point x="126" y="703" type="curve" smooth="yes"/>
      <point x="144.667" y="709.667"/>
      <point x="164.667" y="713"/>
      <point x="186" y="713" type="curve" smooth="yes"/>
      <point x="238" y="713"/>
      <point x="279.667" y="697.333"/>
      <point x="311" y="666" type="curve" smooth="yes"/>
      <point x="333.667" y="644"/>
      <point x="345" y="617.667"/>
      <point x="345" y="587" type="curve" smooth="yes"/>
      <point x="345" y="528.333"/>
      <point x="313.333" y="477.667"/>
      <point x="250" y="435" type="curve" smooth="yes"/>
      <point x="98" y="333" type="line"/>
      <point x="346" y="333" type="line"/>
    </contour>
  </outline>
</glyph>
<glyph name="uni00B3" format="2">
  <advance width="368" height="368"/>
  <unicode hex="00B3"/>
  <outline>
    <contour>
      <point x="357" y="402" type="curve" smooth="yes"/>
      <point x="357" y="350"/>
      <point x="327" y="313.333"/>
      <point x="267" y="292" type="curve" smooth="yes"/>
      <point x="241" y="283.333"/>
      <point x="213.333" y="279"/>
      <point x="184" y="279" type="curve" smooth="yes"/>
      <point x="116.667" y="279"/>
      <point x="66" y="300.333"/>
      <point x="32" y="343" type="curve" smooth="yes"/>
      <point x="22.6667" y="354.333"/>
      <point x="15.3333" y="367"/>
      <point x="10" y="381" type="curve"/>
      <point x="63" y="401" type="line"/>
      <point x="79.6667" y="351"/>
      <point x="119.667" y="326"/>
      <point x="183" y="326" type="curve" smooth="yes"/>
      <point x="218.333" y="326"/>
      <point x="241.667" y="329.667"/>
      <point x="253" y="337" type="curve" smooth="yes"/>
      <point x="280.333" y="353.667"/>
      <point x="294" y="375.333"/>
      <point x="294" y="402" type="curve" smooth="yes"/>
      <point x="294" y="452"/>
      <point x="247.667" y="477.667"/>
      <point x="155" y="479" type="curve" smooth="yes"/>
      <point x="123" y="479" type="line"/>
      <point x="123" y="526" type="line"/>
      <point x="171" y="526"/>
      <point x="201" y="527.667"/>
      <point x="213" y="531" type="curve" smooth="yes"/>
      <point x="221.667" y="533.667"/>
      <point x="229.667" y="537"/>
      <point x="237" y="541" type="curve" smooth="yes"/>
      <point x="264.333" y="557.667"/>
      <point x="278" y="576"/>
      <point x="278" y="596" type="curve" smooth="yes"/>
      <point x="278" y="634.667"/>
      <point x="255.667" y="658"/>
      <point x="211" y="666" type="curve" smooth="yes"/>
      <point x="203" y="667.333"/>
      <point x="194.333" y="668"/>
      <point x="185" y="668" type="curve" smooth="yes"/>
      <point x="142.333" y="668"/>
      <point x="110.333" y="652"/>
      <point x="89" y="620" type="curve" smooth="yes"/>
      <point x="85" y="613.333"/>
      <point x="81.6667" y="606.333"/>
      <point x="79" y="599" type="curve"/>
      <point x="28" y="616" type="line"/>
      <point x="48" y="668"/>
      <point x="89.6667" y="699.333"/>
      <point x="153" y="710" type="curve" smooth="yes"/>
      <point x="164.333" y="712"/>
      <point x="176.333" y="713"/>
      <point x="189" y="713" type="curve" smooth="yes"/>
      <point x="245.667" y="713"/>
      <point x="287.667" y="697"/>
      <point x="315" y="665" type="curve" smooth="yes"/>
      <point x="331" y="647"/>
      <point x="339" y="625"/>
      <point x="339" y="599" type="curve" smooth="yes"/>
      <point x="339" y="566.333"/>
      <point x="323" y="540.333"/>
      <point x="291" y="521" type="curve" smooth="yes"/>
      <point x="279" y="513.667"/>
      <point x="266.667" y="509"/>
      <point x="254" y="507" type="curve"/>
      <point x="254" y="505" type="line"/>
      <point x="300" y="499"/>
      <point x="331.333" y="478.667"/>
      <point x="348" y="444" type="curve" smooth="yes"/>
      <point x="354" y="432"/>
      <point x="357" y="418"/>
    </contour>
  </outline>
</glyph>
<glyph name="acute" format="2">
  <advance width="389" height="389"/>
  <unicode hex="00B4"/>
  <outline>
    <contour>
      <point x="311" y="667" type="line"/>
      <point x="91" y="570" type="line"/>
      <point x="71" y="611" type="line"/>
      <point x="276" y="733" type="line"/>
    </contour>
  </outline>
</glyph>
<glyph name="uni00B5" format="2">
  <advance width="552" height="552"/>
  <unicode hex="00B5"/>
  <outline>
    <contour>
      <point x="479" y="0" type="line"/>
      <point x="407" y="0" type="line"/>
      <point x="407" y="103" type="line"/>
      <point x="404" y="103" type="line"/>
      <point x="386" y="57.6667"/>
      <point x="354.667" y="24.6667"/>
      <point x="310" y="4" type="curve" smooth="yes"/>
      <point x="289.333" y="-5.33333"/>
      <point x="267.667" y="-10"/>
      <point x="245" y="-10" type="curve" smooth="yes"/>
      <point x="211.667" y="-10"/>
      <point x="180.333" y="-2"/>
      <point x="151" y="14" type="curve"/>
      <point x="151" y="-170" type="line"/>
      <point x="71" y="-170" type="line"/>
      <point x="71" y="520" type="line"/>
      <point x="151" y="520" type="line"/>
      <point x="151" y="204" type="line" smooth="yes"/>
      <point x="151" y="113.333"/>
      <point x="181.333" y="65"/>
      <point x="242" y="59" type="curve"/>
      <point x="242" y="59"/>
      <point x="242" y="59"/>
      <point x="252" y="59" type="curve" smooth="yes"/>
      <point x="311.333" y="59"/>
      <point x="354" y="88.6667"/>
      <point x="380" y="148" type="curve" smooth="yes"/>
      <point x="392.667" y="176.667"/>
      <point x="399" y="208.667"/>
      <point x="399" y="244" type="curve" smooth="yes"/>
      <point x="399" y="520" type="line"/>
      <point x="479" y="520" type="line"/>
    </contour>
  </outline>
</glyph>
<glyph name="paragraph" format="2">
  <advance width="552"/>
  <unicode hex="00B6"/>
  <outline>
    <contour>
      <point x="519" y="636" type="line"/>
      <point x="460" y="636" type="line"/>
      <point x="460" y="-193" type="line"/>
      <point x="393" y="-193" type="line"/>
      <point x="393" y="636" type="line"/>
      <point x="310" y="636" type="line"/>
      <point x="310" y="-193" type="line"/>
      <point x="244" y="-193" type="line"/>
      <point x="244" y="220" type="line"/>
      <point x="190" y="227.333"/>
      <point x="151" y="239.667"/>
      <point x="127" y="257" type="curve" smooth="yes"/>
      <point x="109.667" y="269"/>
      <point x="93.3333" y="286.667"/>
      <point x="78" y="310" type="curve" smooth="yes"/>
      <point x="48" y="354"/>
      <point x="33" y="402"/>
      <point x="33" y="454" type="curve" smooth="yes"/>
      <point x="33" y="486.667"/>
      <point x="39.3333" y="519.667"/>
      <point x="52" y="553" type="curve" smooth="yes"/>
      <point x="72" y="604.333"/>
      <point x="106.333" y="644.333"/>
      <point x="155" y="673" type="curve" smooth="yes"/>
      <point x="187" y="692.333"/>
      <point x="219.667" y="702"/>
      <point x="253" y="702" type="curve" smooth="yes"/>
      <point x="519" y="702" type="line"/>
    </contour>
  </outline>
</glyph>
<glyph name="periodcentered" format="2">
  <advance width="245"/>
  <unicode hex="00B7"/>
  <outline>
    <contour>
      <point x="176" y="314" type="curve" smooth="yes"/>
      <point x="176" y="291.333"/>
      <point x="165.333" y="275.333"/>
      <point x="144" y="266" type="curve" smooth="yes"/>
      <point x="136.667" y="262.667"/>
      <point x="129.333" y="261"/>
      <point x="122" y="261" type="curve" smooth="yes"/>
      <point x="99.3333" y="261"/>
      <point x="83.3333" y="271.667"/>
      <point x="74" y="293" type="curve" smooth="yes"/>
      <point x="71.3333" y="299.667"/>
      <point x="70" y="306.667"/>
      <point x="70" y="314" type="curve" smooth="yes"/>
      <point x="70" y="337.333"/>
      <point x="80.6667" y="353"/>
      <point x="102" y="361" type="curve" smooth="yes"/>
      <point x="109.333" y="364.333"/>
      <point x="116.333" y="366"/>
      <point x="123" y="366" type="curve" smooth="yes"/>
      <point x="144.333" y="366"/>
      <point x="160" y="356.333"/>
      <point x="170" y="337" type="curve" smooth="yes"/>
      <point x="174" y="330.333"/>
      <point x="176" y="322.667"/>
    </contour>
  </outline>
</glyph>
<glyph name="cedilla" format="2">
  <advance width="327"/>
  <unicode hex="00B8"/>
  <outline>
    <contour>
      <point x="259" y="-102" type="curve" smooth="yes"/>
      <point x="259" y="-140"/>
      <point x="238.333" y="-164"/>
      <point x="197" y="-174" type="curve" smooth="yes"/>
      <point x="186.333" y="-176.667"/>
      <point x="175" y="-178"/>
      <point x="163" y="-178" type="curve" smooth="yes"/>
      <point x="126.333" y="-178"/>
      <point x="95.3333" y="-170.333"/>
      <point x="70" y="-155" type="curve"/>
      <point x="81" y="-122" type="line"/>
      <point x="105.667" y="-134"/>
      <point x="130.333" y="-140"/>
      <point x="155" y="-140" type="curve" smooth="yes"/>
      <point x="180.333" y="-140"/>
      <point x="196.667" y="-132.667"/>
      <point x="204" y="-118" type="curve" smooth="yes"/>
      <point x="206" y="-114"/>
      <point x="207" y="-109.667"/>
      <point x="207" y="-105" type="curve" smooth="yes"/>
      <point x="207" y="-80.3333"/>
      <point x="185.333" y="-68"/>
      <point x="142" y="-68" type="curve" smooth="yes"/>
      <point x="140.667" y="-68"/>
      <point x="130" y="-69"/>
      <point x="110" y="-71" type="curve"/>
      <point x="132" y="0" type="line"/>
      <point x="167" y="0" type="line"/>
      <point x="157" y="-35" type="line"/>
      <point x="161" y="-35" type="line" smooth="yes"/>
      <point x="207.667" y="-35"/>
      <point x="238" y="-48.3333"/>
      <point x="252" y="-75" type="curve" smooth="yes"/>
      <point x="256.667" y="-83"/>
      <point x="259" y="-92"/>
    </contour>
  </outline>
</glyph>
<glyph name="uni00B9" format="2">
  <advance width="368"/>
  <unicode hex="00B9"/>
  <outline>
    <contour>
      <point x="344" y="291" type="line"/>
      <point x="25" y="291" type="line"/>
      <point x="25" y="338" type="line"/>
      <point x="157" y="338" type="line"/>
      <point x="157" y="648" type="line"/>
      <point x="122.333" y="610.667"/>
      <point x="81.6667" y="581"/>
      <point x="35" y="559" type="curve"/>
      <point x="35" y="611" type="line"/>
      <point x="89" y="637.667"/>
      <point x="133.667" y="671.667"/>
      <point x="169" y="713" type="curve"/>
      <point x="220" y="713" type="line"/>
      <point x="220" y="338" type="line"/>
      <point x="344" y="338" type="line"/>
    </contour>
  </outline>
</glyph>
<glyph name="ordmasculine" format="2">
  <advance width="368" height="368"/>
  <unicode hex="00BA"/>
  <outline>
    <contour>
      <point x="336" y="549" type="curve" smooth="yes"/>
      <point x="336" y="485.667"/>
      <point x="314.333" y="439"/>
      <point x="271" y="409" type="curve" smooth="yes"/>
      <point x="246.333" y="392.333"/>
      <point x="217.333" y="384"/>
      <point x="184" y="384" type="curve" smooth="yes"/>
      <point x="122" y="384"/>
      <point x="78" y="410"/>
      <point x="52" y="462" type="curve" smooth="yes"/>
      <point x="39.3333" y="487.333"/>
      <point x="33" y="516.333"/>
      <point x="33" y="549" type="curve" smooth="yes"/>
      <point x="33" y="609.667"/>
      <point x="53.6667" y="655.333"/>
      <point x="95" y="686" type="curve" smooth="yes"/>
      <point x="120.333" y="704"/>
      <point x="150" y="713"/>
      <point x="184" y="713" type="curve" smooth="yes"/>
      <point x="243.333" y="713"/>
      <point x="286.667" y="688"/>
      <point x="314" y="638" type="curve" smooth="yes"/>
      <point x="328.667" y="612"/>
      <point x="336" y="582.333"/>
    </contour>
    <contour>
      <point x="273" y="549" type="curve" smooth="yes"/>
      <point x="273" y="592.333"/>
      <point x="258.333" y="623.667"/>
      <point x="229" y="643" type="curve" smooth="yes"/>
      <point x="216.333" y="651"/>
      <point x="201.333" y="655"/>
      <point x="184" y="655" type="curve" smooth="yes"/>
      <point x="144.667" y="655"/>
      <point x="117.667" y="635.333"/>
      <point x="103" y="596" type="curve"/>
      <point x="96" y="564" type="line" smooth="yes"/>
      <point x="95.3333" y="559.333"/>
      <point x="95" y="554.333"/>
      <point x="95" y="549" type="curve" smooth="yes"/>
      <point x="95" y="502.333"/>
      <point x="110.333" y="470.333"/>
      <point x="141" y="453" type="curve" smooth="yes"/>
      <point x="153.667" y="445"/>
      <point x="168" y="441"/>
      <point x="184" y="441" type="curve" smooth="yes"/>
      <point x="226" y="441"/>
      <point x="253.667" y="462.333"/>
      <point x="267" y="505" type="curve" smooth="yes"/>
      <point x="271" y="518.333"/>
      <point x="273" y="533"/>
    </contour>
  </outline>
</glyph>
<glyph name="onequarter" format="2">
  <advance width="921" height="921"/>
  <unicode hex="00BC"/>
  <outline>
    <contour>
      <point x="891" y="98" type="line"/>
      <point x="824" y="98" type="line"/>
      <point x="824" y="0" type="line"/>
      <point x="761" y="0" type="line"/>
      <point x="761" y="98" type="line"/>
      <point x="529" y="98" type="line"/>
      <point x="529" y="133" type="line"/>
      <point x="738" y="422" type="line"/>
      <point x="824" y="422" type="line"/>
      <point x="824" y="145" type="line"/>
      <point x="891" y="145" type="line"/>
    </contour>
    <contour>
      <point x="761" y="145" type="line"/>
      <point x="761" y="367" type="line"/>
      <point x="601" y="145" type="line"/>
    </contour>
    <contour>
      <point x="773" y="702" type="line"/>
      <point x="348" y="0" type="line"/>
      <point x="273" y="0" type="line"/>
      <point x="698" y="702" type="line"/>
    </contour>
    <contour>
      <point x="350" y="281" type="line"/>
      <point x="31" y="281" type="line"/>
      <point x="31" y="328" type="line"/>
      <point x="163" y="328" type="line"/>
      <point x="163" y="638" type="line"/>
      <point x="129" y="600.667"/>
      <point x="88.3333" y="571"/>
      <point x="41" y="549" type="curve"/>
      <point x="41" y="601" type="line"/>
      <point x="95" y="627.667"/>
      <point x="139.667" y="661.333"/>
      <point x="175" y="702" type="curve"/>
      <point x="226" y="702" type="line"/>
      <point x="226" y="328" type="line"/>
      <point x="350" y="328" type="line"/>
    </contour>
  </outline>
</glyph>
<glyph name="onehalf" format="2">
  <advance width="921" height="921"/>
  <unicode hex="00BD"/>
  <outline>
    <contour>
      <point x="891" y="0" type="line"/>
      <point x="566" y="0" type="line"/>
      <point x="566" y="48" type="line"/>
      <point x="745" y="178" type="line" smooth="yes"/>
      <point x="793.667" y="213.333"/>
      <point x="820.667" y="248.667"/>
      <point x="826" y="284" type="curve" smooth="yes"/>
      <point x="827.333" y="290"/>
      <point x="828" y="296"/>
      <point x="828" y="302" type="curve" smooth="yes"/>
      <point x="828" y="338"/>
      <point x="808.667" y="362.667"/>
      <point x="770" y="376" type="curve"/>
      <point x="739" y="382" type="line"/>
      <point x="739" y="382"/>
      <point x="739" y="382"/>
      <point x="729" y="382" type="curve" smooth="yes"/>
      <point x="695.667" y="382"/>
      <point x="667.667" y="369.333"/>
      <point x="645" y="344" type="curve" smooth="yes"/>
      <point x="631" y="327.333"/>
      <point x="624" y="309.333"/>
      <point x="624" y="290" type="curve"/>
      <point x="566" y="304" type="line"/>
      <point x="580" y="362.667"/>
      <point x="615" y="401"/>
      <point x="671" y="419" type="curve" smooth="yes"/>
      <point x="689" y="425"/>
      <point x="709" y="428"/>
      <point x="731" y="428" type="curve" smooth="yes"/>
      <point x="783" y="428"/>
      <point x="824.667" y="412.333"/>
      <point x="856" y="381" type="curve" smooth="yes"/>
      <point x="878.667" y="359"/>
      <point x="890" y="332.667"/>
      <point x="890" y="302" type="curve" smooth="yes"/>
      <point x="890" y="243.333"/>
      <point x="858.333" y="193"/>
      <point x="795" y="151" type="curve" smooth="yes"/>
      <point x="643" y="48" type="line"/>
      <point x="891" y="48" type="line"/>
    </contour>
    <contour>
      <point x="739" y="702" type="line"/>
      <point x="314" y="0" type="line"/>
      <point x="240" y="0" type="line"/>
      <point x="665" y="702" type="line"/>
    </contour>
    <contour>
      <point x="350" y="281" type="line"/>
      <point x="31" y="281" type="line"/>
      <point x="31" y="328" type="line"/>
      <point x="163" y="328" type="line"/>
      <point x="163" y="638" type="line"/>
      <point x="129" y="600.667"/>
      <point x="88.3333" y="571"/>
      <point x="41" y="549" type="curve"/>
      <point x="41" y="601" type="line"/>
      <point x="95" y="627.667"/>
      <point x="139.667" y="661.333"/>
      <point x="175" y="702" type="curve"/>
      <point x="226" y="702" type="line"/>
      <point x="226" y="328" type="line"/>
      <point x="350" y="328" type="line"/>
    </contour>
  </outline>
</glyph>
<glyph name="threequarters" format="2">
  <advance width="921" height="921"/>
  <unicode hex="00BE"/>
  <outline>
    <contour>
      <point x="891" y="98" type="line"/>
      <point x="824" y="98" type="line"/>
      <point x="824" y="0" type="line"/>
      <point x="761" y="0" type="line"/>
      <point x="761" y="98" type="line"/>
      <point x="529" y="98" type="line"/>
      <point x="529" y="133" type="line"/>
      <point x="738" y="422" type="line"/>
      <point x="824" y="422" type="line"/>
      <point x="824" y="145" type="line"/>
      <point x="891" y="145" type="line"/>
    </contour>
    <contour>
      <point x="761" y="145" type="line"/>
      <point x="761" y="367" type="line"/>
      <point x="601" y="145" type="line"/>
    </contour>
    <contour>
      <point x="763" y="702" type="line"/>
      <point x="338" y="0" type="line"/>
      <point x="263" y="0" type="line"/>
      <point x="688" y="702" type="line"/>
    </contour>
    <contour>
      <point x="378" y="392" type="curve" smooth="yes"/>
      <point x="378" y="339.333"/>
      <point x="348" y="302.667"/>
      <point x="288" y="282" type="curve" smooth="yes"/>
      <point x="262" y="272.667"/>
      <point x="234.333" y="268"/>
      <point x="205" y="268" type="curve" smooth="yes"/>
      <point x="137" y="268"/>
      <point x="86" y="289.667"/>
      <point x="52" y="333" type="curve" smooth="yes"/>
      <point x="43.3333" y="344.333"/>
      <point x="36.3333" y="357"/>
      <point x="31" y="371" type="curve"/>
      <point x="84" y="391" type="line"/>
      <point x="100.667" y="340.333"/>
      <point x="140.667" y="315"/>
      <point x="204" y="315" type="curve" smooth="yes"/>
      <point x="238.667" y="315"/>
      <point x="261.667" y="319"/>
      <point x="273" y="327" type="curve" smooth="yes"/>
      <point x="300.333" y="343.667"/>
      <point x="314" y="365.333"/>
      <point x="314" y="392" type="curve" smooth="yes"/>
      <point x="314" y="442"/>
      <point x="267.667" y="467.667"/>
      <point x="175" y="469" type="curve" smooth="yes"/>
      <point x="143" y="469" type="line"/>
      <point x="143" y="516" type="line"/>
      <point x="191" y="516"/>
      <point x="221" y="517.667"/>
      <point x="233" y="521" type="curve" smooth="yes"/>
      <point x="242.333" y="523"/>
      <point x="250.333" y="526"/>
      <point x="257" y="530" type="curve" smooth="yes"/>
      <point x="284.333" y="547.333"/>
      <point x="298" y="566"/>
      <point x="298" y="586" type="curve" smooth="yes"/>
      <point x="298" y="624.667"/>
      <point x="275.667" y="647.667"/>
      <point x="231" y="655" type="curve" smooth="yes"/>
      <point x="223" y="656.333"/>
      <point x="214.667" y="657"/>
      <point x="206" y="657" type="curve" smooth="yes"/>
      <point x="162.667" y="657"/>
      <point x="130.667" y="641"/>
      <point x="110" y="609" type="curve" smooth="yes"/>
      <point x="105.333" y="603"/>
      <point x="101.667" y="596.333"/>
      <point x="99" y="589" type="curve"/>
      <point x="48" y="606" type="line"/>
      <point x="68.6667" y="658"/>
      <point x="110.333" y="689"/>
      <point x="173" y="699" type="curve" smooth="yes"/>
      <point x="184.333" y="701"/>
      <point x="196.667" y="702"/>
      <point x="210" y="702" type="curve" smooth="yes"/>
      <point x="266.667" y="702"/>
      <point x="308.667" y="686"/>
      <point x="336" y="654" type="curve" smooth="yes"/>
      <point x="351.333" y="636.667"/>
      <point x="359" y="615"/>
      <point x="359" y="589" type="curve" smooth="yes"/>
      <point x="359" y="556.333"/>
      <point x="343" y="530.333"/>
      <point x="311" y="511" type="curve" smooth="yes"/>
      <point x="299.667" y="503.667"/>
      <point x="287.333" y="499"/>
      <point x="274" y="497" type="curve"/>
      <point x="274" y="495" type="line"/>
      <point x="320" y="488.333"/>
      <point x="351.667" y="468"/>
      <point x="369" y="434" type="curve" smooth="yes"/>
      <point x="375" y="422"/>
      <point x="378" y="408"/>
    </contour>
  </outline>
</glyph>
<glyph name="questiondown" format="2">
  <advance width="552" height="552"/>
  <unicode hex="00BF"/>
  <outline>
    <contour>
      <point x="347" y="420" type="line"/>
      <point x="243" y="420" type="line"/>
      <point x="243" y="520" type="line"/>
      <point x="347" y="520" type="line"/>
    </contour>
    <contour>
      <point x="516" y="20" type="line"/>
      <point x="501.333" y="-76"/>
      <point x="454.667" y="-139"/>
      <point x="376" y="-169" type="curve" smooth="yes"/>
      <point x="346" y="-180.333"/>
      <point x="312.333" y="-186"/>
      <point x="275" y="-186" type="curve" smooth="yes"/>
      <point x="200.333" y="-186"/>
      <point x="141" y="-163.667"/>
      <point x="97" y="-119" type="curve" smooth="yes"/>
      <point x="63" y="-84.3333"/>
      <point x="46" y="-41"/>
      <point x="46" y="11" type="curve" smooth="yes"/>
      <point x="46" y="87"/>
      <point x="89.6667" y="148.667"/>
      <point x="177" y="196" type="curve" smooth="yes"/>
      <point x="213.667" y="214"/>
      <point x="236.333" y="228.333"/>
      <point x="245" y="239" type="curve" smooth="yes"/>
      <point x="257.667" y="253.667"/>
      <point x="263" y="284.667"/>
      <point x="261" y="332" type="curve" smooth="yes"/>
      <point x="261" y="346"/>
      <point x="261" y="346"/>
      <point x="261" y="352" type="curve"/>
      <point x="335" y="352" type="line"/>
      <point x="335" y="308" type="line" smooth="yes"/>
      <point x="335" y="258"/>
      <point x="328.667" y="223.333"/>
      <point x="316" y="204" type="curve" smooth="yes"/>
      <point x="308" y="191.333"/>
      <point x="296.667" y="179.667"/>
      <point x="282" y="169" type="curve" smooth="yes"/>
      <point x="282" y="169"/>
      <point x="282" y="169"/>
      <point x="268" y="161" type="curve" smooth="yes"/>
      <point x="222" y="134.333"/>
      <point x="194" y="117"/>
      <point x="184" y="109" type="curve" smooth="yes"/>
      <point x="152.667" y="83"/>
      <point x="137" y="50.6667"/>
      <point x="137" y="12" type="curve" smooth="yes"/>
      <point x="137" y="-41.3333"/>
      <point x="161.333" y="-78.3333"/>
      <point x="210" y="-99" type="curve" smooth="yes"/>
      <point x="232" y="-109"/>
      <point x="256" y="-114"/>
      <point x="282" y="-114" type="curve" smooth="yes"/>
      <point x="349.333" y="-114"/>
      <point x="396.667" y="-82.3333"/>
      <point x="424" y="-19" type="curve" smooth="yes"/>
      <point x="430.667" y="-2.33333"/>
      <point x="435.667" y="16.3333"/>
      <point x="439" y="37" type="curve"/>
    </contour>
  </outline>
</glyph>
<glyph name="Agrave" format="2">
  <advance width="573"/>
  <unicode hex="00C0"/>
  <outline>
    <contour>
      <point x="362" y="794" type="line"/>
      <point x="342" y="753" type="line"/>
      <point x="122" y="849" type="line"/>
      <point x="157" y="915" type="line"/>
    </contour>
    <contour>
      <point x="568" y="0" type="line"/>
      <point x="478" y="0" type="line"/>
      <point x="408" y="205" type="line"/>
      <point x="147" y="205" type="line"/>
      <point x="85" y="0" type="line"/>
      <point x="11" y="0" type="line"/>
      <point x="239" y="702" type="line"/>
      <point x="340" y="702" type="line"/>
    </contour>
    <contour>
      <point x="388" y="271" type="line"/>
      <point x="281" y="608" type="line"/>
      <point x="172" y="271" type="line"/>
    </contour>
  </outline>
</glyph>
<glyph name="Atilde" format="2">
  <advance width="573" height="573"/>
  <unicode hex="00C3"/>
  <outline>
    <contour>
      <point x="429" y="847" type="line"/>
      <point x="397.667" y="815.667"/>
      <point x="362.333" y="800"/>
      <point x="323" y="800" type="curve" smooth="yes"/>
      <point x="304.333" y="800"/>
      <point x="277" y="808.667"/>
      <point x="241" y="826" type="curve" smooth="yes"/>
      <point x="213" y="840"/>
      <point x="189.667" y="847"/>
      <point x="171" y="847" type="curve" smooth="yes"/>
      <point x="147.667" y="847"/>
      <point x="126" y="836.333"/>
      <point x="106" y="815" type="curve"/>
      <point x="62" y="847" type="line"/>
      <point x="94" y="883.667"/>
      <point x="132.333" y="903"/>
      <point x="177" y="905" type="curve" smooth="yes"/>
      <point x="197.667" y="905"/>
      <point x="228.667" y="896"/>
      <point x="270" y="878" type="curve" smooth="yes"/>
      <point x="296" y="866"/>
      <point x="316" y="860"/>
      <point x="330" y="860" type="curve" smooth="yes"/>
      <point x="343.333" y="860"/>
      <point x="364" y="868.667"/>
      <point x="392" y="886" type="curve"/>
    </contour>
    <contour>
      <point x="568" y="0" type="line"/>
      <point x="478" y="0" type="line"/>
      <point x="408" y="205" type="line"/>
      <point x="147" y="205" type="line"/>
      <point x="85" y="0" type="line"/>
      <point x="11" y="0" type="line"/>
      <point x="239" y="702" type="line"/>
      <point x="340" y="702" type="line"/>
    </contour>
    <contour>
      <point x="388" y="271" type="line"/>
      <point x="281" y="608" type="line"/>
      <point x="172" y="271" type="line"/>
    </contour>
  </outline>
</glyph>
<glyph name="Adieresis" format="2">
  <advance width="573"/>
  <unicode hex="00C4"/>
  <outline>
    <contour>
      <point x="378" y="844" type="line" smooth="yes"/>
      <point x="378" y="820.667"/>
      <point x="367.333" y="804.667"/>
      <point x="346" y="796" type="curve" smooth="yes"/>
      <point x="338.667" y="792.667"/>
      <point x="331.333" y="791"/>
      <point x="324" y="791" type="curve" smooth="yes"/>
      <point x="301.333" y="791"/>
      <point x="285" y="801.333"/>
      <point x="275" y="822" type="curve" smooth="yes"/>
      <point x="272.333" y="829.333"/>
      <point x="271" y="836.667"/>
      <point x="271" y="844" type="curve" smooth="yes"/>
      <point x="271" y="867.333"/>
      <point x="282" y="883"/>
      <point x="304" y="891" type="curve" smooth="yes"/>
      <point x="310.667" y="893.667"/>
      <point x="317.667" y="895"/>
      <point x="325" y="895" type="curve" smooth="yes"/>
      <point x="345.667" y="895"/>
      <point x="361.333" y="885.333"/>
      <point x="372" y="866" type="curve"/>
      <point x="378" y="848" type="line"/>
    </contour>
    <contour>
      <point x="219" y="844" type="line" smooth="yes"/>
      <point x="219" y="820.667"/>
      <point x="208.333" y="804.667"/>
      <point x="187" y="796" type="curve" smooth="yes"/>
      <point x="179.667" y="792.667"/>
      <point x="172.333" y="791"/>
      <point x="165" y="791" type="curve" smooth="yes"/>
      <point x="142.333" y="791"/>
      <point x="126.333" y="801.333"/>
      <point x="117" y="822" type="curve" smooth="yes"/>
      <point x="114.333" y="829.333"/>
      <point x="113" y="836.667"/>
      <point x="113" y="844" type="curve" smooth="yes"/>
      <point x="113" y="867.333"/>
      <point x="123.667" y="883"/>
      <point x="145" y="891" type="curve" smooth="yes"/>
      <point x="152.333" y="893.667"/>
      <point x="159.333" y="895"/>
      <point x="166" y="895" type="curve" smooth="yes"/>
      <point x="187.333" y="895"/>
      <point x="203" y="885.333"/>
      <point x="213" y="866" type="curve"/>
      <point x="219" y="848" type="line"/>
    </contour>
    <contour>
      <point x="568" y="0" type="line"/>
      <point x="478" y="0" type="line"/>
      <point x="408" y="205" type="line"/>
      <point x="147" y="205" type="line"/>
      <point x="85" y="0" type="line"/>
      <point x="11" y="0" type="line"/>
      <point x="239" y="702" type="line"/>
      <point x="340" y="702" type="line"/>
    </contour>
    <contour>
      <point x="388" y="271" type="line"/>
      <point x="281" y="608" type="line"/>
      <point x="172" y="271" type="line"/>
    </contour>
  </outline>
</glyph>
<glyph name="Aring" format="2">
  <advance width="573" height="573"/>
  <unicode hex="00C5"/>
  <outline>
    <contour>
      <point x="338" y="843" type="curve" smooth="yes"/>
      <point x="338" y="808.333"/>
      <point x="322.667" y="782"/>
      <point x="292" y="764" type="curve" smooth="yes"/>
      <point x="277.333" y="756"/>
      <point x="261.667" y="752"/>
      <point x="245" y="752" type="curve" smooth="yes"/>
      <point x="212.333" y="752"/>
      <point x="186.667" y="766.333"/>
      <point x="168" y="795" type="curve" smooth="yes"/>
      <point x="158.667" y="809.667"/>
      <point x="154" y="825.667"/>
      <point x="154" y="843" type="curve" smooth="yes"/>
      <point x="154" y="877"/>
      <point x="168.333" y="903.333"/>
      <point x="197" y="922" type="curve" smooth="yes"/>
      <point x="211" y="931.333"/>
      <point x="227" y="936"/>
      <point x="245" y="936" type="curve" smooth="yes"/>
      <point x="280.333" y="936"/>
      <point x="307" y="921"/>
      <point x="325" y="891" type="curve" smooth="yes"/>
      <point x="333.667" y="876.333"/>
      <point x="338" y="860.333"/>
    </contour>
    <contour>
      <point x="294" y="842" type="curve" smooth="yes"/>
      <point x="294" y="862"/>
      <point x="284.333" y="876.333"/>
      <point x="265" y="885" type="curve" smooth="yes"/>
      <point x="259.667" y="887.667"/>
      <point x="253.667" y="889"/>
      <point x="247" y="889" type="curve" smooth="yes"/>
      <point x="225" y="889"/>
      <point x="210.333" y="879"/>
      <point x="203" y="859" type="curve" smooth="yes"/>
      <point x="201" y="853.667"/>
      <point x="200" y="848"/>
      <point x="200" y="842" type="curve" smooth="yes"/>
      <point x="200" y="820.667"/>
      <point x="209.667" y="806.333"/>
      <point x="229" y="799" type="curve" smooth="yes"/>
      <point x="235" y="797"/>
      <point x="241" y="796"/>
      <point x="247" y="796" type="curve" smooth="yes"/>
      <point x="265.667" y="796"/>
      <point x="279.667" y="804.667"/>
      <point x="289" y="822" type="curve" smooth="yes"/>
      <point x="292.333" y="828"/>
      <point x="294" y="834.667"/>
    </contour>
    <contour>
      <point x="568" y="0" type="line"/>
      <point x="478" y="0" type="line"/>
      <point x="408" y="205" type="line"/>
      <point x="147" y="205" type="line"/>
      <point x="85" y="0" type="line"/>
      <point x="11" y="0" type="line"/>
      <point x="239" y="702" type="line"/>
      <point x="340" y="702" type="line"/>
    </contour>
    <contour>
      <point x="388" y="271" type="line"/>
      <point x="281" y="608" type="line"/>
      <point x="172" y="271" type="line"/>
    </contour>
  </outline>
</glyph>
<glyph name="AE" format="2">
  <advance width="983" height="983"/>
  <unicode hex="00C6"/>
  <outline>
    <contour>
      <point x="944" y="0" type="line"/>
      <point x="462" y="0" type="line"/>
      <point x="462" y="217" type="line"/>
      <point x="225" y="217" type="line"/>
      <point x="96" y="0" type="line"/>
      <point x="11" y="0" type="line"/>
      <point x="429" y="702" type="line"/>
      <point x="931" y="702" type="line"/>
      <point x="931" y="627" type="line"/>
      <point x="550" y="627" type="line"/>
      <point x="550" y="403" type="line"/>
      <point x="858" y="403" type="line"/>
      <point x="858" y="333" type="line"/>
      <point x="550" y="333" type="line"/>
      <point x="550" y="76" type="line"/>
      <point x="944" y="76" type="line"/>
    </contour>
    <contour>
      <point x="462" y="286" type="line"/>
      <point x="462" y="623" type="line"/>
      <point x="263" y="286" type="line"/>
    </contour>
  </outline>
</glyph>
<glyph name="Ccedilla" format="2">
  <advance width="634"/>
  <unicode hex="00C7"/>
  <outline>
    <contour>
      <point x="589" y="219" type="line"/>
      <point x="553" y="75.6667"/>
      <point x="473.667" y="-0.333333"/>
      <point x="351" y="-9" type="curve" smooth="yes"/>
      <point x="343.667" y="-9.66667"/>
      <point x="336" y="-10"/>
      <point x="328" y="-10" type="curve"/>
      <point x="321" y="-35" type="line"/>
      <point x="325" y="-35" type="line" smooth="yes"/>
      <point x="371.667" y="-35"/>
      <point x="402" y="-48.3333"/>
      <point x="416" y="-75" type="curve" smooth="yes"/>
      <point x="420.667" y="-83"/>
      <point x="423" y="-92"/>
      <point x="423" y="-102" type="curve" smooth="yes"/>
      <point x="423" y="-140"/>
      <point x="402" y="-164"/>
      <point x="360" y="-174" type="curve" smooth="yes"/>
      <point x="350" y="-176.667"/>
      <point x="339" y="-178"/>
      <point x="327" y="-178" type="curve" smooth="yes"/>
      <point x="289.667" y="-178"/>
      <point x="258.333" y="-170.333"/>
      <point x="233" y="-155" type="curve"/>
      <point x="245" y="-122" type="line"/>
      <point x="269.667" y="-134"/>
      <point x="294" y="-140"/>
      <point x="318" y="-140" type="curve" smooth="yes"/>
      <point x="343.333" y="-140"/>
      <point x="360" y="-132.667"/>
      <point x="368" y="-118" type="curve" smooth="yes"/>
      <point x="370" y="-114"/>
      <point x="371" y="-109.667"/>
      <point x="371" y="-105" type="curve" smooth="yes"/>
      <point x="371" y="-80.3333"/>
      <point x="349.333" y="-68"/>
      <point x="306" y="-68" type="curve" smooth="yes"/>
      <point x="304.667" y="-68"/>
      <point x="293.667" y="-69"/>
      <point x="273" y="-71" type="curve"/>
      <point x="294" y="-8" type="line"/>
      <point x="199.333" y="2.66667"/>
      <point x="129.667" y="57.3333"/>
      <point x="85" y="156" type="curve" smooth="yes"/>
      <point x="57" y="216.667"/>
      <point x="43" y="284"/>
      <point x="43" y="358" type="curve" smooth="yes"/>
      <point x="43" y="470.667"/>
      <point x="72.3333" y="560"/>
      <point x="131" y="626" type="curve" smooth="yes"/>
      <point x="183" y="684"/>
      <point x="251.333" y="713"/>
      <point x="336" y="713" type="curve" smooth="yes"/>
      <point x="435.333" y="713"/>
      <point x="508.333" y="669.333"/>
      <point x="555" y="582" type="curve" smooth="yes"/>
      <point x="570.333" y="554"/>
      <point x="581.667" y="522.667"/>
      <point x="589" y="488" type="curve"/>
      <point x="506" y="473" type="line"/>
      <point x="479.333" y="571.667"/>
      <point x="431.333" y="626.333"/>
      <point x="362" y="637" type="curve" smooth="yes"/>
      <point x="352.667" y="638.333"/>
      <point x="343" y="639"/>
      <point x="333" y="639" type="curve" smooth="yes"/>
      <point x="247.667" y="639"/>
      <point x="189.667" y="590"/>
      <point x="159" y="492" type="curve" smooth="yes"/>
      <point x="145.667" y="449.333"/>
      <point x="139" y="402.333"/>
      <point x="139" y="351" type="curve" smooth="yes"/>
      <point x="139" y="261"/>
      <point x="158.333" y="188.667"/>
      <point x="197" y="134" type="curve" smooth="yes"/>
      <point x="230.333" y="86.6667"/>
      <point x="274.333" y="63"/>
      <point x="329" y="63" type="curve" smooth="yes"/>
      <point x="421" y="63"/>
      <point x="481" y="121"/>
      <point x="509" y="237" type="curve"/>
    </contour>
  </outline>
</glyph>
<glyph name="Eacute" format="2">
  <advance width="573"/>
  <unicode hex="00C9"/>
  <outline>
    <contour>
      <point x="444" y="849" type="line"/>
      <point x="224" y="753" type="line"/>
      <point x="204" y="794" type="line"/>
      <point x="410" y="915" type="line"/>
    </contour>
    <contour>
      <point x="542" y="0" type="line"/>
      <point x="87" y="0" type="line"/>
      <point x="87" y="702" type="line"/>
      <point x="531" y="702" type="line"/>
      <point x="531" y="627" type="line"/>
      <point x="175" y="627" type="line"/>
      <point x="175" y="403" type="line"/>
      <point x="458" y="403" type="line"/>
      <point x="458" y="333" type="line"/>
      <point x="175" y="333" type="line"/>
      <point x="175" y="76" type="line"/>
      <point x="542" y="76" type="line"/>
    </contour>
  </outline>
</glyph>
<glyph name="Edieresis" format="2">
  <advance width="573" height="573"/>
  <unicode hex="00CB"/>
  <outline>
    <contour>
      <point x="460" y="844" type="line" smooth="yes"/>
      <point x="460" y="820.667"/>
      <point x="449.333" y="804.667"/>
      <point x="428" y="796" type="curve" smooth="yes"/>
      <point x="420.667" y="792.667"/>
      <point x="413.333" y="791"/>
      <point x="406" y="791" type="curve" smooth="yes"/>
      <point x="383.333" y="791"/>
      <point x="367" y="801.333"/>
      <point x="357" y="822" type="curve" smooth="yes"/>
      <point x="354.333" y="829.333"/>
      <point x="353" y="836.667"/>
      <point x="353" y="844" type="curve" smooth="yes"/>
      <point x="353" y="867.333"/>
      <point x="364" y="883"/>
      <point x="386" y="891" type="curve" smooth="yes"/>
      <point x="392.667" y="893.667"/>
      <point x="399.667" y="895"/>
      <point x="407" y="895" type="curve" smooth="yes"/>
      <point x="427.667" y="895"/>
      <point x="443.333" y="885.333"/>
      <point x="454" y="866" type="curve"/>
      <point x="460" y="848" type="line"/>
    </contour>
    <contour>
      <point x="301" y="844" type="line" smooth="yes"/>
      <point x="301" y="820.667"/>
      <point x="290.333" y="804.667"/>
      <point x="269" y="796" type="curve" smooth="yes"/>
      <point x="261.667" y="792.667"/>
      <point x="254.333" y="791"/>
      <point x="247" y="791" type="curve" smooth="yes"/>
      <point x="224.333" y="791"/>
      <point x="208.333" y="801.333"/>
      <point x="199" y="822" type="curve" smooth="yes"/>
      <point x="196.333" y="829.333"/>
      <point x="195" y="836.667"/>
      <point x="195" y="844" type="curve" smooth="yes"/>
      <point x="195" y="867.333"/>
      <point x="205.667" y="883"/>
      <point x="227" y="891" type="curve" smooth="yes"/>
      <point x="234.333" y="893.667"/>
      <point x="241.333" y="895"/>
      <point x="248" y="895" type="curve" smooth="yes"/>
      <point x="269.333" y="895"/>
      <point x="285" y="885.333"/>
      <point x="295" y="866" type="curve"/>
      <point x="301" y="848" type="line"/>
    </contour>
    <contour>
      <point x="542" y="0" type="line"/>
      <point x="87" y="0" type="line"/>
      <point x="87" y="702" type="line"/>
      <point x="531" y="702" type="line"/>
      <point x="531" y="627" type="line"/>
      <point x="175" y="627" type="line"/>
      <point x="175" y="403" type="line"/>
      <point x="458" y="403" type="line"/>
      <point x="458" y="333" type="line"/>
      <point x="175" y="333" type="line"/>
      <point x="175" y="76" type="line"/>
      <point x="542" y="76" type="line"/>
    </contour>
  </outline>
</glyph>
<glyph name="Idieresis" format="2">
  <advance width="266" height="266"/>
  <unicode hex="00CF"/>
  <outline>
    <contour>
      <point x="255" y="844" type="line" smooth="yes"/>
      <point x="255" y="820.667"/>
      <point x="244.333" y="804.667"/>
      <point x="223" y="796" type="curve" smooth="yes"/>
      <point x="215.667" y="792.667"/>
      <point x="208.333" y="791"/>
      <point x="201" y="791" type="curve" smooth="yes"/>
      <point x="178.333" y="791"/>
      <point x="162.333" y="801.333"/>
      <point x="153" y="822" type="curve" smooth="yes"/>
      <point x="149.667" y="829.333"/>
      <point x="148" y="836.667"/>
      <point x="148" y="844" type="curve" smooth="yes"/>
      <point x="148" y="867.333"/>
      <point x="159" y="883"/>
      <point x="181" y="891" type="curve" smooth="yes"/>
      <point x="187.667" y="893.667"/>
      <point x="194.667" y="895"/>
      <point x="202" y="895" type="curve" smooth="yes"/>
      <point x="222.667" y="895"/>
      <point x="238.333" y="885.333"/>
      <point x="249" y="866" type="curve"/>
      <point x="255" y="848" type="line"/>
    </contour>
    <contour>
      <point x="96" y="844" type="line" smooth="yes"/>
      <point x="96" y="820.667"/>
      <point x="85.6667" y="804.667"/>
      <point x="65" y="796" type="curve" smooth="yes"/>
      <point x="57" y="792.667"/>
      <point x="49.3333" y="791"/>
      <point x="42" y="791" type="curve" smooth="yes"/>
      <point x="19.3333" y="791"/>
      <point x="3.33333" y="801.333"/>
      <point x="-6" y="822" type="curve" smooth="yes"/>
      <point x="-8.66667" y="829.333"/>
      <point x="-10" y="836.667"/>
      <point x="-10" y="844" type="curve" smooth="yes"/>
      <point x="-10" y="867.333"/>
      <point x="1" y="883"/>
      <point x="23" y="891" type="curve" smooth="yes"/>
      <point x="29.6667" y="893.667"/>
      <point x="36.3333" y="895"/>
      <point x="43" y="895" type="curve" smooth="yes"/>
      <point x="64.3333" y="895"/>
      <point x="80" y="885.333"/>
      <point x="90" y="866" type="curve"/>
      <point x="96" y="848" type="line"/>
    </contour>
    <contour>
      <point x="176" y="0" type="line"/>
      <point x="88" y="0" type="line"/>
      <point x="88" y="702" type="line"/>
      <point x="176" y="702" type="line"/>
    </contour>
  </outline>
</glyph>
<glyph name="Ntilde" format="2">
  <advance width="675"/>
  <unicode hex="00D1"/>
  <outline>
    <contour>
      <point x="521" y="847" type="line"/>
      <point x="489.667" y="815.667"/>
      <point x="454.333" y="800"/>
      <point x="415" y="800" type="curve" smooth="yes"/>
      <point x="396.333" y="800"/>
      <point x="369" y="808.667"/>
      <point x="333" y="826" type="curve" smooth="yes"/>
      <point x="294" y="842" type="line" smooth="yes"/>
      <point x="284" y="845.333"/>
      <point x="273.667" y="847"/>
      <point x="263" y="847" type="curve" smooth="yes"/>
      <point x="239.667" y="847"/>
      <point x="218.333" y="836.333"/>
      <point x="199" y="815" type="curve"/>
      <point x="155" y="847" type="line"/>
      <point x="186.333" y="883.667"/>
      <point x="224.333" y="903"/>
      <point x="269" y="905" type="curve" smooth="yes"/>
      <point x="289.667" y="905"/>
      <point x="320.667" y="896"/>
      <point x="362" y="878" type="curve" smooth="yes"/>
      <point x="388" y="866"/>
      <point x="408" y="860"/>
      <point x="422" y="860" type="curve" smooth="yes"/>
      <point x="435.333" y="860"/>
      <point x="456" y="868.667"/>
      <point x="484" y="886" type="curve"/>
    </contour>
    <contour>
      <point x="601" y="0" type="line"/>
      <point x="515" y="0" type="line"/>
      <point x="158" y="612" type="line"/>
      <point x="158" y="0" type="line"/>
      <point x="84" y="0" type="line"/>
      <point x="84" y="702" type="line"/>
      <point x="195" y="702" type="line"/>
      <point x="527" y="130" type="line"/>
      <point x="527" y="702" type="line"/>
      <point x="601" y="702" type="line"/>
    </contour>
  </outline>
</glyph>
